<svg width="42" height="42" viewBox="0 0 42 42" fill="none" xmlns="http://www.w3.org/2000/svg">
<path d="M31.5558 0H10.4442C4.67604 0 0 4.67604 0 10.4442V31.5558C0 37.324 4.67604 42 10.4442 42H31.5558C37.324 42 42 37.324 42 31.5558V10.4442C42 4.67604 37.324 0 31.5558 0Z" fill="#EDF1F2"/>
<path d="M15.3055 8.57297L15.2932 8.56148L15.2751 8.54508C15.2587 8.52949 15.2415 8.51391 15.2242 8.49996L15.2144 8.49094C15.1923 8.47289 15.1701 8.45566 15.148 8.44008L15.1373 8.4327C15.1143 8.41629 15.0905 8.4007 15.0667 8.38676C15.0405 8.37035 15.0134 8.35559 14.9847 8.34164C14.9294 8.3136 14.8721 8.28975 14.8133 8.27027H14.8067C14.7531 8.25245 14.6983 8.23846 14.6426 8.22844H14.6238C14.5975 8.22844 14.5705 8.22023 14.5417 8.21777H14.5327C14.5089 8.21777 14.4851 8.21777 14.4605 8.21777H14.4376C14.4113 8.21777 14.3859 8.21777 14.3596 8.21777H14.3482C14.3252 8.21777 14.3014 8.21777 14.2776 8.22352H14.2587C14.2317 8.22352 14.2046 8.23172 14.1767 8.23664C14.1496 8.24156 14.1226 8.24812 14.0947 8.25551H14.0848C14.0288 8.27115 13.9739 8.29089 13.9208 8.31457H13.915C13.8614 8.33799 13.8095 8.36541 13.76 8.3966L13.751 8.40152C13.7029 8.43249 13.6569 8.46646 13.6132 8.50324L13.5984 8.51637C13.5771 8.53441 13.5566 8.5541 13.536 8.57379L8.56987 13.535C8.34249 13.7717 8.21697 14.088 8.22028 14.4162C8.22358 14.7443 8.35544 15.0581 8.58754 15.2901C8.81964 15.522 9.13347 15.6538 9.46161 15.6569C9.78976 15.6601 10.1061 15.5344 10.3426 15.3069L13.1661 12.4834V32.54C13.1618 32.7073 13.191 32.8737 13.2521 33.0295C13.3131 33.1852 13.4048 33.3272 13.5215 33.447C13.6383 33.5668 13.7779 33.662 13.932 33.727C14.0862 33.792 14.2518 33.8255 14.4191 33.8255C14.5864 33.8255 14.752 33.792 14.9062 33.727C15.0603 33.662 15.1999 33.5668 15.3167 33.447C15.4335 33.3272 15.5251 33.1852 15.5861 33.0295C15.6472 32.8737 15.6764 32.7073 15.6721 32.54V12.4842L18.2504 15.0633C18.4857 15.2984 18.8047 15.4303 19.1373 15.4302C19.4699 15.43 19.7888 15.2978 20.0239 15.0625C20.259 14.8272 20.3909 14.5081 20.3908 14.1755C20.3906 13.8429 20.2584 13.524 20.0231 13.2889L15.3055 8.57297Z" fill="#0A626A"/>
<path d="M33.4303 13.2889L28.711 8.57297C28.7074 8.56894 28.7036 8.5651 28.6996 8.56148L28.6815 8.54508C28.6651 8.52949 28.6479 8.51391 28.6307 8.49996L28.6208 8.49094C28.5987 8.47289 28.5765 8.45566 28.5535 8.44008L28.5437 8.4327C28.5207 8.41629 28.4969 8.4007 28.4732 8.38676C28.4461 8.37035 28.419 8.35559 28.3911 8.34164C28.3362 8.31346 28.2791 8.2896 28.2205 8.27027H28.2139C28.159 8.25229 28.1028 8.23831 28.0458 8.22844H28.0269C28.0007 8.22844 27.9744 8.22023 27.9449 8.21777H27.9358C27.9121 8.21777 27.8875 8.21777 27.8637 8.21777H27.8399C27.8136 8.21777 27.7882 8.21777 27.7578 8.21777H27.7464C27.7226 8.21777 27.6996 8.21777 27.6758 8.22352H27.6561C27.6291 8.22352 27.602 8.2309 27.5741 8.23664C27.547 8.24156 27.52 8.24812 27.4921 8.25551H27.4822C27.4262 8.27131 27.3714 8.29105 27.3182 8.31457H27.3132C27.2597 8.33834 27.2079 8.36574 27.1582 8.3966L27.1492 8.40152C27.1011 8.43249 27.0551 8.46646 27.0114 8.50324L26.9966 8.51637C26.9753 8.53441 26.9548 8.5541 26.9342 8.57379L21.9771 13.535C21.7497 13.7717 21.6242 14.088 21.6275 14.4162C21.6308 14.7443 21.7627 15.0581 21.9948 15.2901C22.2269 15.522 22.5407 15.6538 22.8688 15.6569C23.197 15.6601 23.5133 15.5344 23.7498 15.3069L26.5725 12.4834V32.54C26.5725 32.8725 26.7045 33.1913 26.9396 33.4264C27.1747 33.6614 27.4935 33.7935 27.8259 33.7935C28.1584 33.7935 28.4772 33.6614 28.7122 33.4264C28.9473 33.1913 29.0794 32.8725 29.0794 32.54V12.4842L31.6576 15.0633C31.7741 15.1797 31.9124 15.272 32.0646 15.3349C32.2168 15.3979 32.3798 15.4303 32.5445 15.4302C32.7092 15.4301 32.8723 15.3976 33.0244 15.3345C33.1765 15.2714 33.3147 15.179 33.4311 15.0625C33.5475 14.946 33.6398 14.8077 33.7028 14.6555C33.7657 14.5033 33.7981 14.3402 33.798 14.1755C33.7979 14.0108 33.7654 13.8478 33.7023 13.6957C33.6392 13.5435 33.5468 13.4053 33.4303 13.2889Z" fill="#0A626A"/>
</svg>
