<svg width="47" height="46" viewBox="0 0 47 46" fill="none" xmlns="http://www.w3.org/2000/svg">
<path d="M18.2903 26.1262C17.8998 25.7357 17.2666 25.7357 16.8761 26.1262C16.4855 26.5168 16.4855 27.1499 16.8761 27.5404L18.2903 26.1262ZM21.4165 30.6667L20.7094 31.3738C21.0999 31.7643 21.7331 31.7643 22.1236 31.3738L21.4165 30.6667ZM29.7903 23.7071C30.1808 23.3166 30.1808 22.6834 29.7903 22.2929C29.3998 21.9024 28.7666 21.9024 28.3761 22.2929L29.7903 23.7071ZM35.7498 13.4167V36.4167H37.7498V13.4167H35.7498ZM32.9165 39.25H13.7498V41.25H32.9165V39.25ZM10.9165 36.4167V13.4167H8.9165V36.4167H10.9165ZM13.7498 10.5833H17.5832V8.58333H13.7498V10.5833ZM29.0832 10.5833H32.9165V8.58333H29.0832V10.5833ZM13.7498 39.25C12.185 39.25 10.9165 37.9815 10.9165 36.4167H8.9165C8.9165 39.086 11.0805 41.25 13.7498 41.25V39.25ZM35.7498 36.4167C35.7498 37.9815 34.4813 39.25 32.9165 39.25V41.25C35.5859 41.25 37.7498 39.086 37.7498 36.4167H35.7498ZM37.7498 13.4167C37.7498 10.7473 35.5859 8.58333 32.9165 8.58333V10.5833C34.4813 10.5833 35.7498 11.8519 35.7498 13.4167H37.7498ZM10.9165 13.4167C10.9165 11.8519 12.185 10.5833 13.7498 10.5833V8.58333C11.0805 8.58333 8.9165 10.7473 8.9165 13.4167H10.9165ZM16.8761 27.5404L20.7094 31.3738L22.1236 29.9596L18.2903 26.1262L16.8761 27.5404ZM22.1236 31.3738L29.7903 23.7071L28.3761 22.2929L20.7094 29.9596L22.1236 31.3738ZM21.4165 6.75H25.2498V4.75H21.4165V6.75ZM25.2498 12.4167H21.4165V14.4167H25.2498V12.4167ZM21.4165 12.4167C19.8517 12.4167 18.5832 11.1481 18.5832 9.58333H16.5832C16.5832 12.2527 18.7471 14.4167 21.4165 14.4167V12.4167ZM28.0832 9.58333C28.0832 11.1481 26.8146 12.4167 25.2498 12.4167V14.4167C27.9192 14.4167 30.0832 12.2527 30.0832 9.58333H28.0832ZM25.2498 6.75C26.8146 6.75 28.0832 8.01853 28.0832 9.58333H30.0832C30.0832 6.91396 27.9192 4.75 25.2498 4.75V6.75ZM21.4165 4.75C18.7471 4.75 16.5832 6.91396 16.5832 9.58333H18.5832C18.5832 8.01853 19.8517 6.75 21.4165 6.75V4.75Z" fill="white"/>
</svg>
