<svg width="47" height="46" viewBox="0 0 47 46" fill="none" xmlns="http://www.w3.org/2000/svg">
<path d="M19.1884 32.5833H28.1449M23.6666 5.75V7.66667M35.8642 10.8024L34.5089 12.1577M40.9167 22.9999H39.0001M8.33341 22.9999H6.41675M12.8243 12.1577L11.4691 10.8024M16.8902 29.7765C13.1477 26.034 13.1477 19.9661 16.8902 16.2236C20.6327 12.4811 26.7006 12.4811 30.4431 16.2236C34.1856 19.9661 34.1856 26.034 30.4431 29.7765L29.3945 30.8251C28.1815 32.0381 27.5 33.6833 27.5 35.3988V36.4167C27.5 38.5338 25.7837 40.25 23.6666 40.25C21.5496 40.25 19.8333 38.5338 19.8333 36.4167V35.3988C19.8333 33.6833 19.1518 32.0381 17.9388 30.8251L16.8902 29.7765Z" stroke="white" stroke-width="2" stroke-linecap="round" stroke-linejoin="round"/>
</svg>
