<svg width="47" height="46" viewBox="0 0 47 46" fill="none" xmlns="http://www.w3.org/2000/svg">
<path d="M17.5833 36.4167V24.9167C17.5833 22.7996 15.867 21.0833 13.7499 21.0833H9.91659C7.79949 21.0833 6.08325 22.7996 6.08325 24.9167V36.4167C6.08325 38.5338 7.79949 40.25 9.91658 40.25H13.7499C15.867 40.25 17.5833 38.5338 17.5833 36.4167ZM17.5833 36.4167V17.25C17.5833 15.1329 19.2995 13.4167 21.4166 13.4167H25.2499C27.367 13.4167 29.0833 15.1329 29.0833 17.25V36.4167M17.5833 36.4167C17.5833 38.5338 19.2995 40.25 21.4166 40.25H25.2499C27.367 40.25 29.0833 38.5338 29.0833 36.4167M29.0833 36.4167V9.58333C29.0833 7.46624 30.7995 5.75 32.9166 5.75H36.7499C38.867 5.75 40.5833 7.46624 40.5833 9.58333V36.4167C40.5833 38.5338 38.867 40.25 36.7499 40.25H32.9166C30.7995 40.25 29.0833 38.5338 29.0833 36.4167Z" stroke="white" stroke-width="2" stroke-linecap="round" stroke-linejoin="round"/>
</svg>
