<svg width="46" height="46" viewBox="0 0 46 46" fill="none" xmlns="http://www.w3.org/2000/svg">
<path d="M40.25 25.4063C34.923 27.5626 29.1002 28.75 23 28.75C16.8998 28.75 11.077 27.5626 5.75 25.4063M30.6667 11.5V7.66671C30.6667 5.54962 28.9504 3.83337 26.8333 3.83337H19.1667C17.0496 3.83337 15.3333 5.54962 15.3333 7.66671V11.5M23 23H23.0192M9.58333 38.3334H36.4167C38.5338 38.3334 40.25 36.6171 40.25 34.5V15.3334C40.25 13.2163 38.5338 11.5 36.4167 11.5H9.58333C7.46624 11.5 5.75 13.2163 5.75 15.3334V34.5C5.75 36.6171 7.46624 38.3334 9.58333 38.3334Z" stroke="white" stroke-width="2" stroke-linecap="round" stroke-linejoin="round"/>
</svg>
