<svg width="244" height="117" viewBox="0 0 244 117" fill="none" xmlns="http://www.w3.org/2000/svg">
<rect x="1" y="1" width="242" height="115" rx="7" fill="#EDF1F2"/>
<rect x="1" y="1" width="242" height="115" rx="7" stroke="#08616A" stroke-width="2"/>
<g clip-path="url(#clip0_4812_1894)">
<path d="M79.6827 63.0166V37.0318H96.7796C97.5958 37.0312 98.4059 37.1729 99.1735 37.4506C99.9223 37.7155 100.616 38.1158 101.22 38.6317C101.812 39.139 102.297 39.7583 102.649 40.4538C103.015 41.1797 103.201 41.9831 103.191 42.7961V47.6055C103.198 48.4587 102.994 49.3003 102.596 50.0549C102.994 50.8096 103.198 51.6512 103.191 52.5044V57.2523C103.201 58.0715 103.015 58.8812 102.649 59.6144C102.302 60.3126 101.815 60.9326 101.22 61.4366C100.611 61.939 99.9183 62.3301 99.1735 62.5918C98.4062 62.8705 97.5959 63.0122 96.7796 63.0106L79.6827 63.0166ZM95.2551 43.723H87.2992V46.7401H95.265C95.3059 46.7458 95.3475 46.7419 95.3866 46.7287C95.4257 46.7155 95.4612 46.6934 95.4902 46.6641C95.5193 46.6348 95.5412 46.5992 95.5541 46.56C95.567 46.5209 95.5707 46.4792 95.5648 46.4384V44.0247C95.5711 43.9829 95.5674 43.9403 95.5539 43.9002C95.5405 43.8601 95.5177 43.8239 95.4874 43.7944C95.4571 43.7649 95.4203 43.743 95.3799 43.7306C95.3395 43.7182 95.2967 43.7156 95.2551 43.723ZM95.4357 53.3698H87.2992V56.3849H95.4377C95.4744 56.3902 95.5118 56.3869 95.547 56.3752C95.5822 56.3636 95.6142 56.3438 95.6404 56.3176C95.6666 56.2914 95.6863 56.2594 95.698 56.2242C95.7097 56.1891 95.713 56.1516 95.7077 56.115V53.6397C95.713 53.6031 95.7097 53.5656 95.698 53.5304C95.6863 53.4953 95.6666 53.4633 95.6404 53.4371C95.6142 53.4109 95.5822 53.3911 95.547 53.3795C95.5118 53.3678 95.4744 53.3645 95.4377 53.3698H95.4357ZM112.81 43.9334V46.3769C112.805 46.4172 112.808 46.4583 112.821 46.497C112.834 46.5358 112.855 46.5711 112.883 46.6004C112.912 46.6297 112.946 46.6521 112.984 46.666C113.023 46.6799 113.064 46.6849 113.104 46.6806H123.595C123.422 47.6756 123.151 48.6511 122.785 49.5925C122.479 50.3854 122.012 51.107 121.415 51.7124C120.817 52.2964 120.092 52.7357 119.297 52.9966C118.306 53.3085 117.27 53.4554 116.231 53.4313C115.709 53.4313 115.183 53.4095 114.643 53.3698C114.103 53.3301 113.585 53.3102 113.065 53.3102C112.884 53.3102 112.793 53.4115 112.793 53.612V56.0554C112.787 56.0964 112.79 56.1383 112.803 56.1776C112.816 56.217 112.838 56.2527 112.868 56.282C112.897 56.3113 112.933 56.3334 112.972 56.3464C113.011 56.3595 113.053 56.3631 113.094 56.3571H128.925C128.771 57.2233 128.54 58.0737 128.232 58.8978C127.95 59.671 127.539 60.3905 127.015 61.0257C126.502 61.6407 125.861 62.1371 125.137 62.4806C124.287 62.8602 123.362 63.0434 122.432 63.0166L105.387 62.9888V42.7961C105.372 41.9702 105.558 41.1532 105.926 40.4141C106.276 39.7219 106.762 39.1075 107.356 38.6078C107.958 38.1031 108.645 37.7086 109.384 37.4427C110.147 37.1632 110.954 37.0214 111.766 37.0239H128.925C128.77 37.8955 128.538 38.7518 128.232 39.5824C127.954 40.3569 127.542 41.0764 127.015 41.7083C126.499 42.3169 125.858 42.8088 125.137 43.1514C124.288 43.5327 123.364 43.7179 122.434 43.6932L113.104 43.6635C112.906 43.6635 112.81 43.7548 112.81 43.9334ZM139.902 43.9612C139.907 43.9205 139.903 43.8791 139.89 43.8403C139.876 43.8015 139.854 43.7662 139.825 43.7374C139.796 43.7086 139.76 43.6869 139.721 43.6741C139.682 43.6612 139.641 43.6576 139.6 43.6635H129.08C129.25 42.7851 129.492 41.9221 129.802 41.0831C130.08 40.3168 130.484 39.6029 130.999 38.9711C131.51 38.3602 132.152 37.8723 132.877 37.5439C133.736 37.1766 134.664 36.9992 135.598 37.0239H158.206C158.051 37.8926 157.815 38.7446 157.499 39.5685C157.209 40.3354 156.792 41.048 156.266 41.6765C155.746 42.2883 155.1 42.7806 154.372 43.1196C153.526 43.4963 152.607 43.6793 151.681 43.6555H147.683C147.642 43.6496 147.601 43.6532 147.562 43.666C147.523 43.6788 147.488 43.7006 147.459 43.7294C147.43 43.7583 147.408 43.7936 147.395 43.8325C147.381 43.8713 147.378 43.9127 147.383 43.9533V57.2523C147.383 58.3083 147.157 59.1876 146.704 59.8962C146.256 60.5958 145.658 61.187 144.954 61.6271C144.212 62.0841 143.402 62.4192 142.554 62.6196C141.681 62.8395 140.795 63.0026 139.902 63.1079V43.9612Z" fill="#095860"/>
<path fill-rule="evenodd" clip-rule="evenodd" d="M42.9443 61.4604C45.7015 60.2079 47.9783 59.0129 49.739 57.8875C51.4901 56.7788 53.03 55.3674 54.2866 53.7191C55.5391 52.0698 56.2735 50.0857 56.3967 48.0184C56.5594 45.6821 56.1029 43.586 55.0349 41.748C53.9588 39.9148 52.4165 38.3992 50.5647 37.3553C48.6075 36.2405 46.4557 35.5089 44.2246 35.1997C43.1624 35.0353 42.0868 34.9741 41.0129 35.0171C40.6774 35.033 40.3479 35.0647 40.0204 35.1044L34.4068 35.5967L30.9251 40.4042L30.9608 41.5376C30.7595 41.9709 30.5819 42.4149 30.4288 42.8675L31.0104 43.1394L31.1375 47.1093L37.6741 46.2101C38.7996 43.0342 40.6814 41.7321 42.8351 42.1212C43.9527 42.3197 44.7645 42.8477 45.2588 43.6952C45.7688 44.5997 45.9878 45.6393 45.8861 46.6726C45.7848 48.0621 45.0246 49.5766 43.6172 51.1705C42.1124 52.8483 40.4299 54.3578 38.5991 55.6723C36.6803 57.071 34.7006 58.3751 32.66 59.5846L28.3446 62.1511L27.8979 68.0881L53.8479 76.5022L54.4275 68.2568L38.4006 63.6557V63.5445C38.752 63.3699 40.2546 62.6831 42.9443 61.4604Z" fill="#C6211C"/>
<path d="M47.2318 77.6574L47.8273 69.2969L31.6237 64.6323V64.5191C31.9711 64.3425 33.4837 63.6458 36.2071 62.4052C38.9861 61.1368 41.2967 59.924 43.0772 58.7787C44.8483 57.6508 46.4049 56.2173 47.6745 54.5449C48.9414 52.8715 49.6834 50.8599 49.8064 48.7647C49.9731 46.3947 49.5106 44.2708 48.4328 42.4129C47.3465 40.5547 45.7869 39.0177 43.9129 37.9588C41.9333 36.8283 39.7556 36.0872 37.4974 35.7753C35.2173 35.4366 33.1357 35.5378 31.2525 36.079C29.4601 36.5743 27.8216 37.5137 26.4885 38.8103C25.1432 40.133 24.1374 41.7612 23.5567 43.5563L31.1454 47.0656C32.2808 43.8342 33.9244 42.405 36.096 42.8C37.2274 42.9985 38.0472 43.5364 38.5474 44.388C39.0633 45.3077 39.2843 46.3636 39.1807 47.413C39.0774 48.8342 38.3092 50.3586 36.888 51.9783C35.3666 53.6788 33.6654 55.2096 31.8143 56.5437C29.873 57.9622 27.8714 59.2855 25.8097 60.5135L21.4526 63.1059L21 69.1262L47.2318 77.6574Z" fill="#E84043"/>
<path fill-rule="evenodd" clip-rule="evenodd" d="M62.572 60.7597V60.7299L62.5303 60.7477L62.4906 60.7358L66.5976 47.3356L64.6523 42.1469L62.8836 42.4129C62.8233 41.4527 62.6025 40.5094 62.2306 39.6221L65.4066 37.131L57.2125 35.9936C55.834 35.8117 54.4347 35.8641 53.0737 36.1485C51.0167 36.5467 49.0597 37.3511 47.3172 38.5145C45.4217 39.7781 43.7813 41.3875 42.4817 43.2585C41.087 45.2445 40.077 47.4744 39.5042 49.8326H39.5221L46.7058 51.7878L55.1064 45.2156C55.1683 45.5642 55.1982 45.9176 55.1957 46.2716C55.1957 47.5936 54.6597 49.3046 53.572 51.4325C52.3139 53.8496 50.8975 56.181 49.332 58.4115C47.5574 60.976 45.6253 63.6074 43.5358 66.3056L38.7162 72.4906V79.3287L45.8483 82.9988L71.1373 63.3301L62.572 60.7597Z" fill="#075962"/>
<path d="M71.1324 70.6427V63.3203L57.486 69.152V69.0329C57.8155 68.6101 59.2248 66.8693 61.6544 63.8959C63.9906 61.0296 65.8049 58.6418 67.1407 56.6826C68.4008 54.8498 69.4653 52.8899 70.3166 50.835C71.0897 49.0012 71.4943 47.0331 71.5076 45.043C71.5076 42.9588 71.0868 41.2855 70.2392 40.0072C69.399 38.7194 68.1147 37.7855 66.6306 37.3831C65.0426 36.9266 63.1907 36.8909 61.0728 37.2958C58.8918 37.7153 56.8167 38.5663 54.9691 39.7988C52.9622 41.1359 51.2249 42.8388 49.848 44.8187C48.3704 46.9172 47.298 49.2734 46.686 51.766L55.7016 51.4762C56.6245 47.55 58.1549 45.3407 60.255 44.8207C61.303 44.5587 62.0712 44.7472 62.5654 45.3784C63.0597 46.0097 63.3038 46.881 63.3038 48.0164C63.3038 49.4059 62.7342 51.2261 61.5829 53.479C60.2513 56.0376 58.7514 58.505 57.093 60.8649C55.2126 63.579 53.1668 66.3632 50.9556 69.2175L45.8741 75.7678V83.0028L71.1324 70.6427Z" fill="#008C9B"/>
<path d="M78.8906 78.8404C78.9125 78.491 78.9323 77.973 78.9323 77.5164V71.3254H79.8315V74.549H79.8533C80.0216 74.2485 80.2703 74.001 80.5715 73.8341C80.8727 73.6672 81.2145 73.5875 81.5585 73.6041C82.7991 73.6041 83.6785 74.6641 83.6685 76.2223C83.6685 78.0563 82.541 78.9674 81.4235 78.9674C81.0811 78.9843 80.7411 78.9023 80.4441 78.7313C80.147 78.5602 79.9054 78.3073 79.7481 78.0028H79.7184L79.6767 78.8503L78.8906 78.8404ZM79.8315 76.784C79.8349 76.8982 79.8488 77.0118 79.8732 77.1234C79.9449 77.4321 80.1185 77.7076 80.3658 77.9056C80.6132 78.1036 80.92 78.2127 81.2369 78.2151C82.1897 78.2151 82.7574 77.4212 82.7574 76.2441C82.7574 75.2159 82.2413 74.3366 81.2687 74.3366C80.9424 74.3449 80.6283 74.4621 80.3765 74.6697C80.1246 74.8773 79.9496 75.1632 79.8792 75.4819C79.8493 75.6069 79.832 75.7346 79.8275 75.863L79.8315 76.784ZM85.3141 76.4466C85.3339 77.707 86.12 78.233 87.0291 78.233C87.5063 78.2487 87.981 78.1578 88.4186 77.967L88.5735 78.6359C88.0482 78.8598 87.4809 78.9681 86.91 78.9535C85.3697 78.9535 84.4486 77.9134 84.4486 76.3731C84.4486 74.8328 85.3379 73.6061 86.7949 73.6061C88.4286 73.6061 88.8633 75.0809 88.8633 76.0238C88.8618 76.1691 88.8518 76.3143 88.8335 76.4585L85.3141 76.4466ZM87.98 75.7776C87.9919 75.1822 87.7437 74.2631 86.7195 74.2631C85.7984 74.2631 85.3955 75.1325 85.33 75.7776H87.98ZM91.0905 72.2385V73.7074H92.3926V74.418H91.0905V77.183C91.0905 77.8201 91.2651 78.1754 91.7733 78.1754C91.9507 78.1779 92.1276 78.1565 92.2993 78.1119L92.341 78.8126C92.0827 78.9052 91.8093 78.9483 91.5351 78.9396C91.3522 78.9499 91.1693 78.9196 90.9994 78.851C90.8296 78.7823 90.677 78.6771 90.5525 78.5427C90.2945 78.2667 90.2012 77.8122 90.2012 77.2068V74.4219H89.425V73.7074H90.2012V72.4787L91.0905 72.2385ZM97.3829 78.8404V78.4255L97.903 77.9095C99.1496 76.6907 99.7133 76.0436 99.7213 75.2894C99.7213 74.7792 99.4811 74.3088 98.7526 74.3088C98.3673 74.3239 97.9998 74.4743 97.7144 74.7336L97.504 74.2552C97.891 73.9243 98.3843 73.7439 98.8935 73.7471C99.9456 73.7471 100.39 74.4874 100.39 75.204C100.39 76.129 99.7352 76.8753 98.7049 77.8936L98.3079 78.2628V78.2727H100.503V78.8344L97.3829 78.8404ZM106.04 75.3866C106.04 74.7296 106.02 74.1957 105.998 73.7113H106.816L106.857 74.5907H106.877C107.055 74.2768 107.316 74.0181 107.631 73.843C107.946 73.6679 108.303 73.5832 108.664 73.5982C109.873 73.5982 110.784 74.6482 110.784 76.2064C110.784 78.0504 109.688 78.9615 108.509 78.9615C108.204 78.9739 107.901 78.906 107.631 78.7646C107.361 78.6231 107.132 78.4131 106.969 78.1556H106.947V80.9345H106.047L106.04 75.3866ZM106.939 76.7522C106.942 76.8809 106.956 77.0091 106.98 77.1353C107.053 77.444 107.227 77.7193 107.475 77.9173C107.722 78.1152 108.029 78.2243 108.346 78.2271C109.307 78.2271 109.865 77.4212 109.865 76.2421C109.865 75.2139 109.339 74.3346 108.376 74.3346C108.051 74.3465 107.739 74.4667 107.49 74.676C107.242 74.8853 107.07 75.1717 107.002 75.4898C106.965 75.6136 106.944 75.7417 106.939 75.8709V76.7522ZM111.923 71.3254H112.832V78.8503H111.923V71.3254ZM117.134 78.8404L117.06 78.1953H117.03C116.856 78.4361 116.625 78.6311 116.359 78.7638C116.092 78.8965 115.798 78.9629 115.5 78.9575C115.301 78.9699 115.101 78.9408 114.914 78.872C114.726 78.8031 114.555 78.6961 114.411 78.5576C114.267 78.4191 114.154 78.2522 114.078 78.0675C114.002 77.8828 113.965 77.6843 113.97 77.4847C113.97 76.2441 115.045 75.5653 116.979 75.5772V75.47C116.979 75.0472 116.864 74.279 115.841 74.279C115.379 74.281 114.927 74.4138 114.537 74.6621L114.339 74.0468C114.832 73.7414 115.402 73.5831 115.982 73.5902C117.513 73.5902 117.886 74.6621 117.886 75.6903V77.6078C117.879 78.0189 117.907 78.43 117.969 78.8364L117.134 78.8404ZM116.999 76.2243C116.006 76.2024 114.879 76.383 114.879 77.3795C114.868 77.4964 114.883 77.6143 114.922 77.725C114.961 77.8358 115.023 77.9368 115.105 78.0212C115.186 78.1057 115.285 78.1715 115.394 78.2142C115.504 78.2569 115.621 78.2755 115.738 78.2687C116.005 78.2737 116.266 78.1931 116.484 78.0388C116.701 77.8844 116.864 77.6645 116.947 77.4112C116.979 77.3152 116.997 77.2148 116.999 77.1135V76.2243ZM119.593 73.7074L120.689 76.7384C120.804 77.0778 120.927 77.4807 121.01 77.7884H121.03C121.124 77.4807 121.229 77.0877 121.352 76.7165L122.344 73.7074H123.305L121.941 77.3636C121.29 79.1223 120.846 80.0234 120.224 80.5752C119.911 80.8685 119.527 81.0739 119.109 81.1707L118.881 80.3867C119.172 80.2879 119.442 80.1335 119.675 79.9321C120.006 79.6491 120.268 79.2931 120.439 78.892C120.476 78.8227 120.501 78.7475 120.512 78.6697C120.503 78.5858 120.483 78.5036 120.451 78.4255L118.601 73.7074H119.593Z" fill="#02898F"/>
<path fill-rule="evenodd" clip-rule="evenodd" d="M92.8036 75.9207C92.8036 79.3725 95.5428 82.1811 98.9112 82.1811C102.28 82.1811 105.021 79.3725 105.021 75.9207C105.021 72.4689 102.28 69.6582 98.9112 69.6582C95.5428 69.6582 92.8036 72.4669 92.8036 75.9207ZM93.2919 75.9207C93.2919 72.7448 95.8127 70.1644 98.9112 70.1644C102.01 70.1644 104.531 72.7448 104.531 75.9207C104.531 79.0966 102.01 81.677 98.9112 81.677C95.8127 81.677 93.2919 79.0966 93.2919 75.9207Z" fill="#457075"/>
<path d="M135.046 78.8404C135.066 78.491 135.088 77.973 135.088 77.5164V71.3254H135.987V74.549H136.007C136.176 74.2484 136.425 74.0007 136.726 73.8338C137.028 73.6669 137.37 73.5874 137.714 73.6041C138.955 73.6041 139.834 74.6641 139.822 76.2223C139.822 78.0563 138.697 78.9674 137.579 78.9674C137.237 78.9858 136.896 78.9045 136.599 78.7332C136.301 78.562 136.06 78.3083 135.904 78.0028H135.874L135.832 78.8503L135.046 78.8404ZM135.987 76.784C135.99 76.8983 136.004 77.012 136.029 77.1234C136.1 77.4322 136.274 77.708 136.521 77.906C136.769 78.1041 137.076 78.213 137.393 78.2151C138.343 78.2151 138.913 77.4212 138.913 76.2441C138.913 75.2159 138.397 74.3366 137.424 74.3366C137.098 74.3445 136.784 74.4617 136.532 74.6693C136.28 74.8769 136.105 75.1631 136.035 75.4819C136.005 75.6069 135.988 75.7346 135.983 75.863L135.987 76.784ZM141.476 76.4466C141.498 77.707 142.284 78.233 143.193 78.233C143.67 78.2487 144.145 78.1578 144.582 77.967L144.737 78.6359C144.212 78.8598 143.645 78.9681 143.074 78.9535C141.531 78.9535 140.612 77.9134 140.612 76.3731C140.612 74.8328 141.502 73.6061 142.959 73.6061C144.592 73.6061 145.027 75.0809 145.027 76.0238C145.026 76.1692 145.015 76.3144 144.995 76.4585L141.476 76.4466ZM144.144 75.7776C144.144 75.1822 143.905 74.2631 142.883 74.2631C141.962 74.2631 141.559 75.1325 141.494 75.7776H144.144ZM147.246 72.2385V73.7074H148.548V74.418H147.246V77.183C147.246 77.8201 147.421 78.1754 147.927 78.1754C148.105 78.178 148.283 78.1567 148.455 78.1119L148.497 78.8126C148.238 78.9049 147.965 78.948 147.691 78.9396C147.506 78.9514 147.322 78.9218 147.15 78.8531C146.978 78.7845 146.824 78.6784 146.698 78.5427C146.44 78.2668 146.347 77.8122 146.347 77.2068V74.4219H145.571V73.7074H146.347V72.4787L147.246 72.2385ZM153.539 78.8404V78.4255L154.057 77.9095C155.305 76.6907 155.869 76.0436 155.877 75.2894C155.877 74.7792 155.637 74.3088 154.906 74.3088C154.522 74.3244 154.155 74.4748 153.87 74.7336L153.66 74.2552C154.047 73.924 154.54 73.7435 155.049 73.7471C156.101 73.7471 156.544 74.4874 156.544 75.204C156.544 76.129 155.891 76.8753 154.861 77.8936L154.464 78.2628V78.2727H156.659V78.8344L153.539 78.8404ZM162.557 73.7074L163.22 76.3156C163.364 76.8872 163.497 77.4172 163.591 77.9472H163.623C163.736 77.4271 163.9 76.8773 164.067 76.3255L164.883 73.7074H165.649L166.423 76.2719C166.61 76.8872 166.755 77.4271 166.868 77.9472H166.898C166.995 77.3861 167.123 76.8308 167.281 76.2838L167.993 73.7034H168.893L167.281 78.8325H166.453L165.689 76.385C165.512 75.8313 165.363 75.2688 165.244 74.6998H165.222C165.104 75.2733 164.952 75.8393 164.768 76.395L163.962 78.8325H163.134L161.628 73.7074H162.557ZM170.818 72.2703C170.818 72.4198 170.759 72.5632 170.653 72.6689C170.547 72.7746 170.404 72.834 170.254 72.834C170.105 72.834 169.962 72.7746 169.856 72.6689C169.75 72.5632 169.691 72.4198 169.691 72.2703C169.688 72.194 169.7 72.1179 169.728 72.0467C169.755 71.9755 169.797 71.9106 169.85 71.856C169.903 71.8014 169.967 71.7582 170.038 71.7291C170.108 71.7 170.184 71.6856 170.26 71.6867C170.336 71.6852 170.412 71.6994 170.482 71.7285C170.552 71.7577 170.615 71.801 170.668 71.8559C170.72 71.9108 170.76 71.9759 170.786 72.0473C170.812 72.1186 170.823 72.1945 170.818 72.2703ZM169.804 78.8404V73.7074H170.715V78.8364L169.804 78.8404ZM172.224 75.0968C172.224 74.5668 172.214 74.1321 172.182 73.7074H172.988L173.041 74.5549H173.061C173.221 74.2576 173.461 74.0102 173.752 73.8401C174.044 73.6699 174.377 73.5834 174.715 73.5902C175.407 73.5902 176.483 74.015 176.483 75.7737V78.8364H175.574V75.8908C175.574 75.0631 175.274 74.3743 174.415 74.3743C174.136 74.3811 173.867 74.4777 173.647 74.6497C173.428 74.8217 173.27 75.06 173.196 75.329C173.152 75.4695 173.13 75.6164 173.133 75.7637V78.8464H172.224V75.0968Z" fill="#02898F"/>
<path fill-rule="evenodd" clip-rule="evenodd" d="M149.144 75.9305C149.144 79.3843 151.883 82.193 155.252 82.193C158.62 82.193 161.361 79.3843 161.361 75.9305C161.361 72.4767 158.62 69.67 155.252 69.67C151.883 69.67 149.144 72.4787 149.144 75.9305ZM149.632 75.9305C149.632 72.7546 152.153 70.1742 155.252 70.1742C158.35 70.1742 160.873 72.7546 160.873 75.9305C160.873 79.1064 158.352 81.6868 155.252 81.6868C152.151 81.6868 149.628 79.1084 149.628 75.9305H149.632Z" fill="#457075"/>
<path d="M160.107 63.1873C159.857 63.1938 159.609 63.1465 159.378 63.0485C159.148 62.9506 158.942 62.8043 158.773 62.6196C158.422 62.2514 158.23 61.7589 158.241 61.25C158.237 61.0106 158.282 60.7729 158.374 60.5517C158.465 60.3304 158.601 60.1303 158.773 59.9637C158.943 59.79 159.148 59.6532 159.373 59.5616C159.598 59.4701 159.84 59.4259 160.083 59.4318C160.33 59.4243 160.576 59.4677 160.805 59.5592C161.035 59.6507 161.243 59.7884 161.417 59.9637C161.589 60.1303 161.725 60.3304 161.817 60.5517C161.908 60.7729 161.953 61.0106 161.949 61.25C161.957 61.7484 161.781 62.2321 161.453 62.6077C161.287 62.8 161.08 62.9522 160.847 63.0526C160.614 63.153 160.361 63.1991 160.107 63.1873ZM174.419 50.6822C173.946 50.2734 173.39 49.9715 172.789 49.7969C172.236 49.636 171.664 49.5525 171.088 49.5488C170.721 49.55 170.356 49.6014 170.002 49.7016C169.647 49.8011 169.317 49.9742 169.034 50.2098C168.738 50.4632 168.5 50.7773 168.337 51.1308C168.146 51.5615 168.054 52.0294 168.067 52.5004V57.2484C168.053 57.7155 168.145 58.1798 168.337 58.6061C168.503 58.9575 168.745 59.2679 169.046 59.5152C169.333 59.7483 169.661 59.9248 170.014 60.0352C170.362 60.1436 170.724 60.1991 171.088 60.2C171.651 60.198 172.212 60.1186 172.754 59.9637C173.369 59.7771 173.943 59.4723 174.443 59.0666L175.977 61.5696C175.329 62.1046 174.584 62.5091 173.782 62.7605C172.897 63.047 171.972 63.1904 171.042 63.1853C170.275 63.1857 169.511 63.074 168.776 62.8538C168.061 62.6471 167.389 62.3158 166.791 61.8752C166.207 61.4398 165.724 60.8841 165.373 60.2456C164.999 59.5371 164.812 58.7443 164.831 57.9431V51.8454C164.814 51.0534 164.996 50.2697 165.361 49.5667C165.704 48.9277 166.177 48.3683 166.751 47.9251C167.342 47.4761 168.011 47.1397 168.724 46.9327C169.46 46.7131 170.223 46.6021 170.991 46.6032C171.913 46.5997 172.831 46.7267 173.718 46.9803C174.55 47.2095 175.32 47.6211 175.973 48.1852L174.419 50.6822ZM190.48 57.828C190.497 58.6276 190.327 59.4202 189.983 60.1424C189.663 60.7924 189.204 61.3648 188.64 61.8197C188.052 62.2887 187.377 62.6375 186.655 62.8459C185.076 63.3037 183.4 63.3037 181.821 62.8459C181.098 62.6375 180.424 62.2887 179.836 61.8197C179.272 61.3648 178.813 60.7924 178.492 60.1424C178.145 59.421 177.972 58.6284 177.986 57.828V51.8454C177.966 51.0838 178.129 50.3286 178.461 49.6428C178.793 48.957 179.284 48.3606 179.894 47.9033C180.495 47.4524 181.175 47.116 181.898 46.9108C182.657 46.6902 183.443 46.5793 184.233 46.5813C185.024 46.5796 185.81 46.6987 186.565 46.9346C187.289 47.1555 187.968 47.5037 188.57 47.9628C189.177 48.4283 189.667 49.0302 189.999 49.7199C190.33 50.4095 190.495 51.1676 190.48 51.9327V57.828ZM187.244 52.5064C187.257 52.0402 187.169 51.5768 186.984 51.1487C186.825 50.7994 186.591 50.4891 186.299 50.2396C186.018 50.0051 185.692 49.8284 185.342 49.7195C184.987 49.6099 184.617 49.5544 184.245 49.5548C183.868 49.5548 183.494 49.6103 183.133 49.7195C182.779 49.826 182.45 50.0029 182.166 50.2396C181.873 50.4878 181.639 50.7984 181.482 51.1487C181.296 51.5766 181.207 52.0402 181.222 52.5064V57.2543C181.208 57.7243 181.297 58.1915 181.482 58.6239C181.637 58.9787 181.871 59.2936 182.166 59.5449C182.449 59.7808 182.779 59.954 183.133 60.0531C183.495 60.1545 183.869 60.206 184.245 60.2059C184.616 60.2064 184.985 60.1549 185.342 60.0531C185.705 59.9516 186.04 59.7707 186.324 59.5235C186.608 59.2763 186.834 58.969 186.984 58.6239C187.168 58.1912 187.256 57.7242 187.244 57.2543V52.5064ZM195.226 63.1873C194.976 63.1938 194.727 63.1465 194.497 63.0485C194.267 62.9506 194.06 62.8043 193.892 62.6196C193.54 62.2514 193.349 61.7589 193.36 61.25C193.356 61.0106 193.401 60.7729 193.492 60.5517C193.584 60.3304 193.72 60.1303 193.892 59.9637C194.062 59.79 194.266 59.6532 194.492 59.5616C194.717 59.4701 194.959 59.4259 195.202 59.4318C195.449 59.4243 195.695 59.4677 195.924 59.5592C196.154 59.6507 196.362 59.7884 196.536 59.9637C196.708 60.1303 196.844 60.3304 196.935 60.5517C197.027 60.7729 197.072 61.0106 197.068 61.25C197.076 61.7484 196.899 62.2321 196.572 62.6077C196.406 62.7998 196.198 62.9518 195.965 63.0522C195.732 63.1526 195.479 63.1988 195.226 63.1873ZM206.421 49.648V63.0166H203.186V49.648H198.856V46.7441H210.713V49.648H206.421ZM211.759 60.2337L219.103 49.648H212.065V46.7441H223V49.4317L215.56 60.1106H223V63.0166H211.759V60.2337Z" fill="#345961"/>
</g>
<defs>
<clipPath id="clip0_4812_1894">
<rect width="202" height="48" fill="white" transform="translate(21 35)"/>
</clipPath>
</defs>
</svg>
