<svg width="244" height="117" viewBox="0 0 244 117" fill="none" xmlns="http://www.w3.org/2000/svg">
<rect x="1" y="1" width="242" height="115" rx="7" fill="#EDF1F2"/>
<rect x="1" y="1" width="242" height="115" rx="7" stroke="#08616A" stroke-width="2"/>
<path d="M94.7336 63.0133V37.028H111.845C112.662 37.0274 113.473 37.1691 114.241 37.4469C114.991 37.7117 115.685 38.1121 116.29 38.6279C116.882 39.1353 117.368 39.7545 117.72 40.4501C118.086 41.176 118.272 41.9794 118.262 42.7924V47.602C118.269 48.4551 118.065 49.2967 117.666 50.0514C118.065 50.8061 118.269 51.6477 118.262 52.5009V57.2489C118.272 58.0682 118.086 58.8778 117.72 59.611C117.372 60.3093 116.885 60.9293 116.29 61.4332C115.68 61.9357 114.987 62.3268 114.241 62.5885C113.473 62.8672 112.662 63.009 111.845 63.0073L94.7336 63.0133ZM110.319 43.7194H102.357V46.7365H110.329C110.37 46.7422 110.412 46.7383 110.451 46.7251C110.49 46.7119 110.526 46.6898 110.555 46.6605C110.584 46.6312 110.606 46.5956 110.619 46.5564C110.632 46.5173 110.635 46.4756 110.629 46.4348V44.0211C110.636 43.9793 110.632 43.9366 110.619 43.8965C110.605 43.8565 110.582 43.8202 110.552 43.7907C110.522 43.7612 110.485 43.7394 110.444 43.727C110.404 43.7146 110.361 43.7119 110.319 43.7194ZM110.5 53.3663H102.357V56.3815H110.502C110.539 56.3868 110.576 56.3835 110.612 56.3718C110.647 56.3601 110.679 56.3404 110.705 56.3142C110.731 56.288 110.751 56.256 110.763 56.2208C110.774 56.1856 110.778 56.1482 110.772 56.1115V53.6363C110.778 53.5996 110.774 53.5622 110.763 53.527C110.751 53.4918 110.731 53.4598 110.705 53.4336C110.679 53.4074 110.647 53.3877 110.612 53.376C110.576 53.3643 110.539 53.361 110.502 53.3663H110.5ZM127.89 43.9298V46.3733C127.884 46.4136 127.888 46.4547 127.901 46.4934C127.913 46.5322 127.935 46.5675 127.963 46.5968C127.991 46.6261 128.026 46.6485 128.064 46.6624C128.103 46.6763 128.144 46.6813 128.184 46.677H138.684C138.511 47.6721 138.239 48.6475 137.873 49.5889C137.567 50.3819 137.1 51.1035 136.502 51.7089C135.903 52.2929 135.178 52.7322 134.383 52.9931C133.39 53.3051 132.353 53.4519 131.313 53.4279C130.791 53.4279 130.264 53.406 129.724 53.3663C129.183 53.3266 128.665 53.3068 128.144 53.3068C127.964 53.3068 127.872 53.408 127.872 53.6085V56.052C127.866 56.093 127.87 56.1349 127.883 56.1742C127.896 56.2135 127.918 56.2493 127.947 56.2786C127.977 56.3079 128.012 56.33 128.052 56.343C128.091 56.356 128.133 56.3597 128.174 56.3537H144.018C143.865 57.2199 143.633 58.0704 143.325 58.8945C143.043 59.6676 142.631 60.3872 142.107 61.0224C141.593 61.6374 140.952 62.1338 140.228 62.4773C139.377 62.857 138.451 63.0401 137.52 63.0133L120.46 62.9855V42.7924C120.446 41.9665 120.631 41.1495 121 40.4104C121.35 39.7182 121.837 39.1038 122.431 38.6041C123.033 38.0993 123.721 37.7049 124.461 37.4389C125.225 37.1595 126.032 37.0177 126.845 37.0201H144.018C143.863 37.8918 143.631 38.748 143.325 39.5787C143.047 40.3532 142.635 41.0727 142.107 41.7046C141.59 42.3132 140.949 42.8051 140.228 43.1477C139.378 43.5291 138.453 43.7143 137.522 43.6896L128.184 43.6598C127.985 43.6598 127.89 43.7511 127.89 43.9298ZM155.005 43.9576C155.01 43.9168 155.006 43.8755 154.993 43.8366C154.979 43.7978 154.957 43.7626 154.928 43.7338C154.899 43.7049 154.863 43.6832 154.824 43.6704C154.785 43.6576 154.744 43.654 154.703 43.6598H144.173C144.344 42.7815 144.586 41.9185 144.896 41.0793C145.174 40.3131 145.579 39.5991 146.094 38.9673C146.605 38.3564 147.248 37.8686 147.974 37.5401C148.834 37.1728 149.763 36.9954 150.698 37.0201H173.324C173.17 37.8888 172.933 38.7409 172.617 39.5648C172.327 40.3317 171.91 41.0443 171.383 41.6729C170.863 42.2847 170.217 42.7769 169.488 43.1159C168.641 43.4926 167.721 43.6757 166.794 43.6519H162.793C162.752 43.6459 162.711 43.6495 162.672 43.6623C162.633 43.6752 162.597 43.6969 162.568 43.7258C162.539 43.7547 162.517 43.7899 162.504 43.8288C162.491 43.8677 162.487 43.909 162.493 43.9496V57.2489C162.493 58.3049 162.266 59.1843 161.813 59.8929C161.365 60.5925 160.766 61.1837 160.061 61.6238C159.319 62.0808 158.508 62.4159 157.659 62.6163C156.786 62.8362 155.899 62.9994 155.005 63.1046V43.9576Z" fill="#095860"/>
<path fill-rule="evenodd" clip-rule="evenodd" d="M57.9633 61.4571C60.7228 60.2046 63.0016 59.0096 64.7638 57.8842C66.5165 56.7755 68.0578 55.364 69.3154 53.7157C70.569 52.0664 71.304 50.0822 71.4273 48.0149C71.5902 45.6786 71.1333 43.5824 70.0644 41.7443C68.9874 39.9111 67.4437 38.3955 65.5903 37.3516C63.6314 36.2368 61.4778 35.5051 59.2447 35.1959C58.1816 35.0315 57.1051 34.9703 56.0302 35.0133C55.6944 35.0292 55.3627 35.0609 55.0368 35.1006L49.4184 35.5929L45.9337 40.4005L45.9694 41.5339C45.7688 41.9676 45.5911 42.4116 45.437 42.8639L46.0191 43.1358L46.1462 47.1058L52.6885 46.2066C53.815 43.0306 55.6984 41.7285 57.854 42.1175C58.9725 42.316 59.7851 42.844 60.2798 43.6916C60.7903 44.5961 61.0095 45.6357 60.9076 46.6691C60.8063 48.0585 60.0454 49.5731 58.6368 51.167C57.1307 52.8449 55.4467 54.3544 53.6143 55.6689C51.6938 57.0677 49.7124 58.3718 47.6701 59.5813L43.3509 62.1479L42.9039 68.0849L68.8764 76.4992L69.4565 68.2536L53.4157 63.6525V63.5413C53.7673 63.3666 55.2713 62.6798 57.9633 61.4571Z" fill="#C6211C"/>
<path d="M62.2546 77.6544L62.8506 69.2938L46.6329 64.6291V64.5159C46.9806 64.3393 48.4945 63.6425 51.2203 62.4019C54.0017 61.1335 56.3143 59.9207 58.0964 58.7754C59.869 57.6475 61.4269 56.2139 62.6976 54.5414C63.9656 52.8681 64.7082 50.8564 64.8313 48.7612C64.9982 46.3911 64.5353 44.2672 63.4565 42.4093C62.3693 40.551 60.8084 39.014 58.9328 37.955C56.9514 36.8245 54.7719 36.0834 52.5117 35.7715C50.2296 35.4328 48.1462 35.534 46.2614 36.0752C44.4674 36.5706 42.8275 37.51 41.4933 38.8066C40.1468 40.1293 39.1401 41.7576 38.5589 43.5526L46.1541 47.0621C47.2906 43.8305 48.9356 42.4014 51.109 42.7964C52.2415 42.9949 53.062 43.5328 53.5626 44.3843C54.079 45.3041 54.3002 46.36 54.1964 47.4094C54.0931 48.8307 53.3242 50.3551 51.9017 51.9749C50.379 53.6754 48.6764 55.2062 46.8237 56.5403C44.8807 57.9589 42.8774 59.2822 40.8138 60.5102L36.453 63.1026L36 69.123L62.2546 77.6544Z" fill="#E84043"/>
<path fill-rule="evenodd" clip-rule="evenodd" d="M86.1806 63.3269L77.6079 60.7564V60.7266L77.5662 60.7444L77.5265 60.7325L81.637 47.332L79.69 42.1433L77.9198 42.4093C77.8594 41.449 77.6385 40.5057 77.2662 39.6184L80.445 37.1272L72.2438 35.9899C70.8641 35.808 69.4636 35.8603 68.1014 36.1447C66.0426 36.5429 64.0839 37.3473 62.3399 38.5108C60.4428 39.7744 58.801 41.3839 57.5003 43.2549C56.1043 45.2409 55.0934 47.4708 54.5202 49.8291H54.5381L61.73 51.7843L70.1358 45.212C70.1978 45.5606 70.2277 45.9141 70.2252 46.268C70.2252 47.59 69.6888 49.3011 68.6001 51.429C67.3409 53.8462 65.9233 56.1777 64.3565 58.4081C62.5803 60.9727 60.6466 63.6035 58.5552 66.3004L53.7315 72.4875V79.3258L60.8698 82.996L86.1806 63.3269Z" fill="#075962"/>
<path d="M86.1767 70.6395V63.317L72.518 69.1488V69.0297C72.8478 68.6069 74.2583 66.8661 76.6901 63.8926C79.0285 61.0263 80.8443 58.6384 82.1814 56.6792C83.4426 54.8464 84.5081 52.8864 85.3602 50.8315C86.1339 48.9976 86.5389 47.0295 86.5522 45.0394C86.5522 42.9551 86.131 41.2818 85.2827 40.0035C84.4417 38.7157 83.1562 37.7817 81.6708 37.3794C80.0814 36.9228 78.2278 36.8871 76.108 37.292C73.9251 37.7115 71.848 38.5625 69.9988 39.7951C67.9901 41.1322 66.2512 42.8352 64.8731 44.8151C63.3941 46.9137 62.3208 49.2699 61.7082 51.7625L70.7319 51.4727C71.6557 47.5464 73.1875 45.3371 75.2894 44.817C76.3384 44.555 77.1073 44.7436 77.602 45.3748C78.0967 46.006 78.3411 46.8774 78.3411 48.0129C78.3411 49.4023 77.7709 51.2225 76.6186 53.4755C75.2858 56.0342 73.7845 58.5016 72.1246 60.8616C70.2425 63.5757 68.1949 66.3599 65.9816 69.2143L60.8956 75.7647V83L86.1767 70.6395Z" fill="#008C9B"/>
<path d="M93.9409 78.8375C93.9627 78.4881 93.9826 77.9701 93.9826 77.5135V71.3224H94.8826V74.546H94.9044C95.0729 74.2455 95.3218 73.998 95.6232 73.8311C95.9247 73.6642 96.2668 73.5845 96.611 73.6011C97.8527 73.6011 98.7329 74.6611 98.7229 76.2193C98.7229 78.0534 97.5945 78.9645 96.4759 78.9645C96.1333 78.9814 95.793 78.8994 95.4957 78.7284C95.1983 78.5573 94.9566 78.3044 94.7991 77.9998H94.7693L94.7276 78.8474L93.9409 78.8375ZM94.8826 76.7811C94.886 76.8952 94.8999 77.0089 94.9243 77.1205C94.9961 77.4291 95.1698 77.7047 95.4174 77.9027C95.665 78.1007 95.972 78.2098 96.2892 78.2122C97.2428 78.2122 97.811 77.4182 97.811 76.2411C97.811 75.2129 97.2945 74.3336 96.321 74.3336C95.9944 74.3419 95.6801 74.4592 95.428 74.6667C95.176 74.8743 95.0007 75.1602 94.9303 75.4789C94.9004 75.6039 94.883 75.7316 94.8786 75.86L94.8826 76.7811ZM100.37 76.4436C100.39 77.7041 101.177 78.2301 102.086 78.2301C102.564 78.2457 103.039 78.1549 103.477 77.9641L103.632 78.633C103.106 78.8569 102.539 78.9652 101.967 78.9506C100.426 78.9506 99.5037 77.9105 99.5037 76.3702C99.5037 74.8298 100.394 73.6031 101.852 73.6031C103.487 73.6031 103.922 75.078 103.922 76.0208C103.921 76.1662 103.911 76.3113 103.892 76.4555L100.37 76.4436ZM103.038 75.7747C103.05 75.1792 102.802 74.2601 101.777 74.2601C100.855 74.2601 100.451 75.1296 100.386 75.7747H103.038ZM106.151 72.2355V73.7044H107.455V74.415H106.151V77.18C106.151 77.8172 106.326 78.1725 106.835 78.1725C107.012 78.175 107.189 78.1536 107.361 78.109L107.403 78.8097C107.144 78.9023 106.871 78.9454 106.596 78.9367C106.413 78.947 106.23 78.9167 106.06 78.848C105.89 78.7794 105.737 78.6741 105.613 78.5397C105.355 78.2638 105.261 77.8093 105.261 77.2039V74.4189H104.484V73.7044H105.261V72.4757L106.151 72.2355ZM112.449 78.8375V78.4226L112.97 77.9065C114.217 76.6878 114.782 76.0407 114.79 75.2864C114.79 74.7762 114.549 74.3058 113.82 74.3058C113.434 74.3209 113.067 74.4713 112.781 74.7306L112.57 74.2522C112.958 73.9213 113.451 73.7409 113.961 73.7441C115.014 73.7441 115.459 74.4844 115.459 75.201C115.459 76.126 114.803 76.8724 113.772 77.8907L113.375 78.2599V78.2698H115.572V78.8315L112.449 78.8375ZM121.113 75.3836C121.113 74.7266 121.093 74.1927 121.072 73.7083H121.89L121.932 74.5877H121.952C122.129 74.2739 122.39 74.0151 122.706 73.84C123.021 73.6649 123.379 73.5802 123.74 73.5952C124.95 73.5952 125.862 74.6452 125.862 76.2034C125.862 78.0475 124.765 78.9586 123.585 78.9586C123.28 78.971 122.977 78.9031 122.706 78.7617C122.435 78.6202 122.207 78.4102 122.043 78.1527H122.021V80.9316H121.121L121.113 75.3836ZM122.013 76.7493C122.016 76.878 122.03 77.0061 122.055 77.1324C122.128 77.441 122.302 77.7164 122.55 77.9144C122.797 78.1123 123.105 78.2214 123.422 78.2241C124.383 78.2241 124.942 77.4182 124.942 76.2392C124.942 75.2109 124.415 74.3316 123.452 74.3316C123.126 74.3436 122.815 74.4637 122.565 74.673C122.316 74.8823 122.144 75.1688 122.077 75.4869C122.04 75.6107 122.018 75.7387 122.013 75.868V76.7493ZM127.002 71.3224H127.912V78.8474H127.002V71.3224ZM132.217 78.8375L132.144 78.1924H132.114C131.939 78.4332 131.708 78.6282 131.441 78.7609C131.175 78.8936 130.88 78.96 130.582 78.9546C130.383 78.967 130.183 78.9379 129.995 78.8691C129.807 78.8002 129.636 78.6931 129.492 78.5547C129.348 78.4162 129.234 78.2493 129.158 78.0646C129.082 77.8799 129.045 77.6814 129.05 77.4818C129.05 76.2411 130.127 75.5623 132.062 75.5742V75.467C132.062 75.0442 131.947 74.276 130.924 74.276C130.461 74.278 130.009 74.4109 129.618 74.6591L129.42 74.0438C129.914 73.7384 130.484 73.5801 131.065 73.5872C132.597 73.5872 132.97 74.6591 132.97 75.6873V77.6048C132.963 78.016 132.991 78.4271 133.054 78.8335L132.217 78.8375ZM132.082 76.2213C131.089 76.1995 129.96 76.3801 129.96 77.3766C129.949 77.4935 129.964 77.6113 130.003 77.7221C130.042 77.8329 130.105 77.9339 130.186 78.0183C130.268 78.1028 130.367 78.1686 130.476 78.2113C130.586 78.254 130.703 78.2726 130.82 78.2658C131.087 78.2707 131.349 78.1901 131.567 78.0358C131.784 77.8815 131.947 77.6616 132.03 77.4083C132.063 77.3123 132.08 77.2119 132.082 77.1106V76.2213ZM134.679 73.7044L135.775 76.7354C135.891 77.0748 136.014 77.4778 136.097 77.7855H136.117C136.21 77.4778 136.316 77.0848 136.439 76.7136L137.432 73.7044H138.394L137.029 77.3607C136.377 79.1194 135.932 80.0205 135.31 80.5724C134.997 80.8656 134.612 81.071 134.194 81.1678L133.965 80.3838C134.257 80.285 134.527 80.1306 134.76 79.9292C135.092 79.6462 135.354 79.2902 135.525 78.8891C135.562 78.8198 135.587 78.7446 135.599 78.6668C135.59 78.5829 135.569 78.5007 135.537 78.4226L133.685 73.7044H134.679Z" fill="#02898F"/>
<path fill-rule="evenodd" clip-rule="evenodd" d="M107.866 75.9176C107.866 79.3695 110.607 82.1782 113.979 82.1782C117.35 82.1782 120.094 79.3695 120.094 75.9176C120.094 72.4657 117.35 69.655 113.979 69.655C110.607 69.655 107.866 72.4638 107.866 75.9176ZM108.355 75.9176C108.355 72.7417 110.878 70.1612 113.979 70.1612C117.08 70.1612 119.603 72.7417 119.603 75.9176C119.603 79.0936 117.08 81.674 113.979 81.674C110.878 81.674 108.355 79.0936 108.355 75.9176Z" fill="#457075"/>
<path d="M150.145 78.8375C150.165 78.4881 150.187 77.9701 150.187 77.5135V71.3224H151.087V74.546H151.107C151.276 74.2454 151.525 73.9977 151.827 73.8308C152.128 73.6639 152.471 73.5844 152.815 73.6011C154.057 73.6011 154.937 74.6611 154.925 76.2193C154.925 78.0534 153.799 78.9645 152.68 78.9645C152.337 78.9829 151.997 78.9016 151.699 78.7303C151.401 78.5591 151.16 78.3054 151.004 77.9998H150.974L150.932 78.8474L150.145 78.8375ZM151.087 76.7811C151.089 76.8953 151.103 77.009 151.129 77.1205C151.2 77.4293 151.374 77.705 151.621 77.9031C151.869 78.1012 152.176 78.2101 152.494 78.2122C153.445 78.2122 154.015 77.4182 154.015 76.2411C154.015 75.2129 153.499 74.3336 152.525 74.3336C152.199 74.3415 151.884 74.4587 151.632 74.6663C151.38 74.874 151.205 75.1601 151.135 75.4789C151.105 75.6039 151.087 75.7316 151.083 75.86L151.087 76.7811ZM156.58 76.4436C156.602 77.7041 157.389 78.2301 158.299 78.2301C158.776 78.2457 159.251 78.1549 159.689 77.9641L159.844 78.633C159.319 78.8569 158.751 78.9652 158.18 78.9506C156.636 78.9506 155.716 77.9105 155.716 76.3702C155.716 74.8298 156.606 73.6031 158.064 73.6031C159.699 73.6031 160.135 75.078 160.135 76.0208C160.134 76.1663 160.123 76.3115 160.103 76.4555L156.58 76.4436ZM159.25 75.7747C159.25 75.1792 159.012 74.2601 157.989 74.2601C157.067 74.2601 156.664 75.1296 156.598 75.7747H159.25ZM162.356 72.2355V73.7044H163.659V74.415H162.356V77.18C162.356 77.8172 162.531 78.1725 163.037 78.1725C163.215 78.1751 163.393 78.1538 163.566 78.109L163.607 78.8097C163.349 78.902 163.075 78.9451 162.801 78.9367C162.616 78.9484 162.431 78.9189 162.259 78.8502C162.087 78.7815 161.933 78.6755 161.807 78.5397C161.549 78.2638 161.456 77.8093 161.456 77.2039V74.4189H160.679V73.7044H161.456V72.4757L162.356 72.2355ZM168.654 78.8375V78.4226L169.172 77.9065C170.422 76.6878 170.986 76.0407 170.994 75.2864C170.994 74.7762 170.754 74.3058 170.022 74.3058C169.638 74.3214 169.27 74.4718 168.985 74.7306L168.775 74.2522C169.162 73.921 169.656 73.7405 170.165 73.7441C171.218 73.7441 171.661 74.4844 171.661 75.201C171.661 76.126 171.008 76.8724 169.977 77.8907L169.579 78.2599V78.2698H171.777V78.8315L168.654 78.8375ZM177.679 73.7044L178.343 76.3126C178.488 76.8843 178.621 77.4143 178.714 77.9443H178.746C178.859 77.4242 179.024 76.8744 179.191 76.3225L180.008 73.7044H180.775L181.549 76.2689C181.736 76.8843 181.881 77.4242 181.994 77.9443H182.024C182.121 77.3832 182.249 76.8279 182.408 76.2808L183.121 73.7004H184.021L182.408 78.8296H181.579L180.814 76.3821C180.637 75.8284 180.489 75.2659 180.369 74.6968H180.347C180.229 75.2703 180.077 75.8363 179.892 76.392L179.086 78.8296H178.257L176.749 73.7044H177.679ZM185.948 72.2672C185.948 72.4167 185.889 72.5601 185.783 72.6659C185.677 72.7716 185.533 72.831 185.384 72.831C185.234 72.831 185.091 72.7716 184.985 72.6659C184.879 72.5601 184.82 72.4167 184.82 72.2672C184.817 72.191 184.829 72.1149 184.857 72.0437C184.884 71.9724 184.926 71.9075 184.979 71.8529C185.032 71.7983 185.096 71.7552 185.167 71.726C185.238 71.6969 185.313 71.6825 185.39 71.6837C185.466 71.6821 185.541 71.6964 185.611 71.7255C185.681 71.7546 185.745 71.798 185.797 71.8529C185.85 71.9077 185.89 71.9729 185.916 72.0442C185.942 72.1156 185.953 72.1915 185.948 72.2672ZM184.933 78.8375V73.7044H185.845V78.8335L184.933 78.8375ZM187.355 75.0938C187.355 74.5638 187.345 74.1291 187.313 73.7044H188.12L188.173 74.5519H188.193C188.353 74.2546 188.593 74.0073 188.885 73.837C189.177 73.6668 189.51 73.5804 189.848 73.5872C190.541 73.5872 191.618 74.012 191.618 75.7707V78.8335H190.708V75.8878C190.708 75.0601 190.408 74.3713 189.548 74.3713C189.269 74.3781 188.999 74.4747 188.78 74.6467C188.56 74.8187 188.402 75.057 188.328 75.3261C188.283 75.4666 188.262 75.6134 188.265 75.7608V78.8434H187.355V75.0938Z" fill="#02898F"/>
<path fill-rule="evenodd" clip-rule="evenodd" d="M164.255 75.9276C164.255 79.3814 166.997 82.1902 170.368 82.1902C173.74 82.1902 176.483 79.3814 176.483 75.9276C176.483 72.4737 173.74 69.667 170.368 69.667C166.997 69.667 164.255 72.4757 164.255 75.9276ZM164.744 75.9276C164.744 72.7516 167.267 70.1712 170.368 70.1712C173.469 70.1712 175.995 72.7516 175.995 75.9276C175.995 79.1035 173.471 81.684 170.368 81.684C167.265 81.684 164.74 79.1055 164.74 75.9276H164.744Z" fill="#457075"/>
<path d="M175.228 63.1841C174.977 63.1906 174.729 63.1433 174.498 63.0454C174.268 62.9474 174.061 62.8011 173.893 62.6164C173.541 62.2483 173.349 61.7557 173.36 61.2468C173.356 61.0074 173.401 60.7697 173.493 60.5484C173.584 60.3272 173.72 60.1271 173.893 59.9605C174.063 59.7868 174.267 59.6499 174.493 59.5584C174.718 59.4669 174.96 59.4227 175.204 59.4286C175.451 59.4211 175.697 59.4644 175.927 59.5559C176.156 59.6475 176.365 59.7852 176.539 59.9605C176.711 60.1271 176.847 60.3272 176.939 60.5484C177.03 60.7697 177.075 61.0074 177.071 61.2468C177.08 61.7452 176.903 62.2289 176.575 62.6045C176.409 62.7969 176.201 62.949 175.968 63.0495C175.735 63.1499 175.481 63.1959 175.228 63.1841ZM189.552 50.6788C189.078 50.27 188.522 49.9681 187.921 49.7935C187.368 49.6327 186.796 49.5492 186.22 49.5454C185.852 49.5464 185.486 49.5979 185.131 49.6982C184.776 49.7977 184.446 49.9708 184.162 50.2064C183.866 50.4597 183.628 50.7739 183.465 51.1274C183.273 51.5581 183.181 52.0261 183.194 52.497V57.2451C183.18 57.7123 183.273 58.1765 183.465 58.6028C183.631 58.9543 183.873 59.2647 184.174 59.5119C184.461 59.7451 184.79 59.9216 185.143 60.032C185.492 60.1405 185.855 60.1961 186.22 60.1967C186.783 60.1947 187.344 60.1152 187.885 59.9605C188.502 59.7738 189.076 59.4691 189.576 59.0633L191.112 61.5664C190.463 62.1014 189.717 62.5059 188.914 62.7573C188.029 63.0439 187.103 63.1873 186.173 63.1821C185.404 63.1825 184.64 63.0708 183.904 62.8506C183.189 62.644 182.516 62.3127 181.917 61.8721C181.333 61.4366 180.849 60.8809 180.498 60.2424C180.123 59.5339 179.937 58.7411 179.956 57.9398V51.842C179.939 51.05 180.121 50.2663 180.487 49.5632C180.829 48.9242 181.303 48.3648 181.877 47.9217C182.469 47.4726 183.138 47.1362 183.852 46.9292C184.588 46.7096 185.353 46.5986 186.121 46.5997C187.044 46.5962 187.963 46.7232 188.851 46.9768C189.683 47.206 190.454 47.6176 191.108 48.1817L189.552 50.6788ZM205.666 54.2736L204.158 57.2749L202.319 60.7684H199.99L198.176 57.3443L196.597 54.2736H196.502V63.0075H193.263V46.7307H196.243L199.15 52.4792L201.111 56.4948H201.252L203.239 52.3859L206.02 46.7406H209V63.0174H205.762V54.2835L205.666 54.2736Z" fill="#345961"/>
</svg>
