<svg width="244" height="117" viewBox="0 0 244 117" fill="none" xmlns="http://www.w3.org/2000/svg">
<rect x="1" y="1" width="242" height="115" rx="7" fill="#EDF1F2"/>
<rect x="1" y="1" width="242" height="115" rx="7" stroke="#08616A" stroke-width="2"/>
<g clip-path="url(#clip0_4812_1940)">
<path d="M71.6792 63.0165V37.0323H88.775C89.5912 37.0316 90.4013 37.1734 91.1688 37.4511C91.9176 37.716 92.6113 38.1163 93.2152 38.6321C93.8069 39.1395 94.2926 39.7587 94.6443 40.4542C95.0105 41.1801 95.1963 41.9835 95.1862 42.7964V47.6058C95.1932 48.4589 94.9887 49.3005 94.5908 50.0551C94.9887 50.8098 95.1932 51.6514 95.1862 52.5045V57.2523C95.1956 58.0715 95.0099 58.8812 94.6443 59.6144C94.2968 60.3125 93.8105 60.9325 93.2152 61.4365C92.6064 61.939 91.9136 62.33 91.1688 62.5917C90.4016 62.8704 89.5913 63.0121 88.775 63.0105L71.6792 63.0165ZM87.2506 43.7234H79.2952V46.7404H87.2606C87.3014 46.746 87.343 46.7421 87.3821 46.7289C87.4212 46.7157 87.4567 46.6936 87.4858 46.6644C87.5148 46.6351 87.5367 46.5995 87.5496 46.5603C87.5626 46.5211 87.5662 46.4795 87.5603 46.4387V44.0251C87.5666 43.9833 87.5629 43.9406 87.5495 43.9005C87.536 43.8605 87.5132 43.8242 87.4829 43.7947C87.4527 43.7652 87.4158 43.7434 87.3754 43.7309C87.335 43.7185 87.2922 43.7159 87.2506 43.7234ZM87.4313 53.3699H79.2952V56.385H87.4333C87.4699 56.3903 87.5074 56.387 87.5425 56.3753C87.5777 56.3636 87.6097 56.3439 87.6359 56.3177C87.6621 56.2914 87.6819 56.2595 87.6935 56.2243C87.7052 56.1891 87.7085 56.1517 87.7032 56.115V53.6399C87.7085 53.6032 87.7052 53.5657 87.6935 53.5306C87.6819 53.4954 87.6621 53.4634 87.6359 53.4372C87.6097 53.411 87.5777 53.3913 87.5425 53.3796C87.5074 53.3679 87.4699 53.3646 87.4333 53.3699H87.4313ZM104.805 43.9337V46.3771C104.799 46.4175 104.803 46.4586 104.816 46.4973C104.828 46.5361 104.849 46.5714 104.878 46.6007C104.906 46.63 104.941 46.6524 104.979 46.6663C105.017 46.6802 105.058 46.6852 105.099 46.6808H115.589C115.416 47.6759 115.145 48.6513 114.779 49.5927C114.473 50.3856 114.006 51.1072 113.409 51.7125C112.811 52.2966 112.086 52.7358 111.292 52.9967C110.3 53.3086 109.264 53.4555 108.225 53.4314C107.703 53.4314 107.177 53.4096 106.637 53.3699C106.097 53.3302 105.579 53.3104 105.059 53.3104C104.878 53.3104 104.787 53.4116 104.787 53.6121V56.0555C104.781 56.0965 104.785 56.1383 104.798 56.1777C104.811 56.217 104.833 56.2528 104.862 56.2821C104.892 56.3114 104.927 56.3334 104.967 56.3465C105.006 56.3595 105.048 56.3632 105.089 56.3572H120.918C120.765 57.2233 120.533 58.0737 120.226 58.8978C119.944 59.671 119.532 60.3905 119.009 61.0256C118.496 61.6407 117.855 62.137 117.131 62.4805C116.281 62.8601 115.356 63.0433 114.426 63.0165L97.3815 62.9887V42.7964C97.3675 41.9706 97.5526 41.1536 97.9214 40.4145C98.2712 39.7223 98.7573 39.1079 99.3505 38.6083C99.9529 38.1035 100.64 37.7091 101.379 37.4432C102.142 37.1637 102.948 37.0219 103.761 37.0244H120.918C120.764 37.896 120.532 38.7522 120.226 39.5829C119.948 40.3573 119.536 41.0768 119.009 41.7087C118.492 42.3173 117.852 42.8091 117.131 43.1517C116.282 43.5331 115.358 43.7183 114.428 43.6936L105.099 43.6638C104.9 43.6638 104.805 43.7551 104.805 43.9337ZM131.895 43.9615C131.9 43.9208 131.896 43.8794 131.883 43.8406C131.869 43.8018 131.847 43.7666 131.818 43.7377C131.789 43.7089 131.753 43.6872 131.714 43.6744C131.675 43.6616 131.634 43.6579 131.593 43.6638H121.073C121.243 42.7855 121.485 41.9225 121.796 41.0834C122.073 40.3173 122.478 39.6033 122.993 38.9715C123.503 38.3606 124.145 37.8728 124.87 37.5444C125.729 37.1771 126.658 36.9997 127.592 37.0244H150.197C150.043 37.893 149.806 38.7451 149.491 39.569C149.201 40.3358 148.784 41.0484 148.258 41.6769C147.738 42.2887 147.092 42.7809 146.365 43.1199C145.518 43.4966 144.599 43.6797 143.673 43.6559H139.676C139.635 43.6499 139.594 43.6535 139.555 43.6663C139.516 43.6792 139.48 43.7009 139.451 43.7298C139.422 43.7587 139.4 43.7939 139.387 43.8328C139.374 43.8716 139.37 43.913 139.376 43.9536V57.2523C139.376 58.3083 139.15 59.1876 138.697 59.8962C138.249 60.5958 137.651 61.187 136.946 61.627C136.205 62.084 135.394 62.4191 134.547 62.6195C133.674 62.8394 132.788 63.0025 131.895 63.1078V43.9615Z" fill="#095860"/>
<path fill-rule="evenodd" clip-rule="evenodd" d="M34.9429 61.4603C37.6999 60.2078 39.9766 59.0129 41.7372 57.8875C43.4883 56.7788 45.0281 55.3674 46.2846 53.7192C47.537 52.0699 48.2713 50.0858 48.3945 48.0186C48.5573 45.6824 48.1007 43.5863 47.0329 41.7483C45.9568 39.9152 44.4146 38.3996 42.5629 37.3558C40.6058 36.241 38.4542 35.5094 36.2232 35.2002C35.1611 35.0358 34.0855 34.9746 33.0116 35.0176C32.6762 35.0335 32.3447 35.0652 32.0192 35.1049L26.4059 35.5972L22.9244 40.4046L22.9601 41.5379C22.7597 41.9716 22.5821 42.4155 22.4282 42.8678L23.0098 43.1397L23.1368 47.1095L29.673 46.2104C30.7985 43.0345 32.6801 41.7325 34.8337 42.1215C35.9512 42.32 36.7631 42.848 37.2573 43.6955C37.7673 44.5999 37.9863 45.6395 37.8845 46.6728C37.7833 48.0623 37.0231 49.5767 35.6158 51.1706C34.1111 52.8484 32.4286 54.3578 30.598 55.6723C28.6793 57.071 26.6997 58.3751 24.6592 59.5845L20.3441 62.151L19.8975 68.0878L45.8459 76.5017L46.4255 68.2565L30.3995 63.6555V63.5444C30.7508 63.3697 32.2534 62.6829 34.9429 61.4603Z" fill="#C6211C"/>
<path d="M39.2303 77.6569L39.8258 69.2966L23.6231 64.6321V64.519C23.9705 64.3423 25.483 63.6456 28.2062 62.4051C30.9851 61.1367 33.2955 59.924 35.0759 58.7787C36.8469 57.6508 38.4034 56.2173 39.6729 54.5449C40.9398 52.8716 41.6817 50.8601 41.8047 48.7649C41.9714 46.395 41.5089 44.2711 40.4312 42.4133C39.345 40.5551 37.7854 39.0181 35.9116 37.9592C33.9321 36.8288 31.7545 36.0876 29.4964 35.7758C27.2164 35.4371 25.1349 35.5383 23.2519 36.0795C21.4596 36.5748 19.8212 37.5142 18.4882 38.8107C17.143 40.1334 16.1372 41.7616 15.5565 43.5566L23.1448 47.0659C24.2801 43.8345 25.9236 42.4053 28.0951 42.8003C29.2265 42.9988 30.0462 43.5367 30.5464 44.3882C31.0622 45.3079 31.2833 46.3638 31.1796 47.4132C31.0764 48.8344 30.3082 50.3588 28.887 51.9785C27.3657 53.6789 25.6647 55.2096 23.8137 56.5437C21.8724 57.9622 19.871 59.2855 17.8094 60.5135L13.4526 63.1057L13 69.1259L39.2303 77.6569Z" fill="#E84043"/>
<path fill-rule="evenodd" clip-rule="evenodd" d="M54.5695 60.7596V60.7298L54.5278 60.7477L54.4881 60.7358L58.5948 47.3358L56.6496 42.1473L54.8811 42.4133C54.8208 41.4531 54.6 40.5098 54.2281 39.6225L57.4039 37.1315L49.2103 35.9941C47.8319 35.8122 46.4327 35.8646 45.0718 36.149C43.0149 36.5472 41.058 37.3515 39.3156 38.5149C37.4203 39.7785 35.7799 41.3879 34.4804 43.2588C33.0857 45.2447 32.0758 47.4746 31.5031 49.8328H31.521L38.7062 51.7879L47.1043 45.2159C47.1662 45.5644 47.1961 45.9179 47.1936 46.2719C47.1936 47.5938 46.6577 49.3048 45.57 51.4326C44.312 53.8497 42.8957 56.1811 41.3303 58.4115C39.5558 60.9759 37.6238 63.6066 35.5344 66.3034L30.7151 72.4903V79.3282L37.8468 82.9983L63.1343 63.33L54.5695 60.7596Z" fill="#075962"/>
<path d="M63.1303 70.6424V63.3201L49.4842 69.1517V69.0327C49.8136 68.6099 51.2229 66.8691 53.6524 63.8958C55.9886 61.0296 57.8028 58.6418 59.1386 56.6827C60.3987 54.8499 61.4632 52.89 62.3145 50.8352C63.0875 49.0014 63.4922 47.0334 63.5054 45.0433C63.5054 42.9592 63.0846 41.2859 62.2371 40.0076C61.3969 38.7199 60.1126 37.7859 58.6285 37.3836C57.0406 36.9271 55.1887 36.8914 53.0708 37.2963C50.8899 37.7158 48.8148 38.5667 46.9673 39.7992C44.9604 41.1363 43.2232 42.8392 41.8463 44.819C40.3688 46.9175 39.2964 49.2737 38.6844 51.7661L47.6997 51.4763C48.6227 47.5502 50.1531 45.341 52.2531 44.821C53.3011 44.559 54.0692 44.7475 54.5635 45.3787C55.0577 46.0099 55.3019 46.8813 55.3019 48.0167C55.3019 49.4061 54.7322 51.2262 53.581 53.4791C52.2494 56.0376 50.7495 58.505 49.0911 60.8648C47.2108 63.5788 45.165 66.363 42.9539 69.2173L37.8726 75.7674V83.0023L63.1303 70.6424Z" fill="#008C9B"/>
<path d="M70.8872 78.84C70.909 78.4906 70.9289 77.9726 70.9289 77.5161V71.3252H71.828V74.5487H71.8499C72.0181 74.2482 72.2668 74.0007 72.568 73.8338C72.8692 73.6669 73.211 73.5872 73.5549 73.6038C74.7954 73.6038 75.6748 74.6638 75.6648 76.2219C75.6648 78.0559 74.5374 78.967 73.4199 78.967C73.0776 78.9839 72.7376 78.9019 72.4405 78.7309C72.1435 78.5598 71.9019 78.3069 71.7447 78.0024H71.7149L71.6732 78.8499L70.8872 78.84ZM71.828 76.7836C71.8314 76.8978 71.8454 77.0114 71.8697 77.1231C71.9415 77.4317 72.115 77.7072 72.3623 77.9052C72.6097 78.1033 72.9165 78.2123 73.2333 78.2147C74.1861 78.2147 74.7538 77.4208 74.7538 76.2437C74.7538 75.2156 74.2377 74.3363 73.2651 74.3363C72.9389 74.3445 72.6248 74.4618 72.373 74.6694C72.1211 74.877 71.9461 75.1629 71.8757 75.4816C71.8458 75.6065 71.8285 75.7342 71.8241 75.8626L71.828 76.7836ZM77.3103 76.4462C77.3302 77.7066 78.1162 78.2326 79.0252 78.2326C79.5024 78.2483 79.977 78.1574 80.4147 77.9666L80.5695 78.6355C80.0442 78.8594 79.477 78.9677 78.9062 78.9531C77.3659 78.9531 76.4449 77.913 76.4449 76.3728C76.4449 74.8325 77.3341 73.6058 78.791 73.6058C80.4246 73.6058 80.8593 75.0786 80.8593 76.0234C80.8578 76.1688 80.8478 76.3139 80.8295 76.4581L77.3103 76.4462ZM79.976 75.7773C79.9879 75.1818 79.7398 74.2628 78.7156 74.2628C77.7946 74.2628 77.3917 75.1322 77.3262 75.7773H79.976ZM83.0863 72.2382V73.7071H84.3884V74.4177H83.0863V77.1826C83.0863 77.8197 83.261 78.175 83.7691 78.175C83.9465 78.1775 84.1234 78.1561 84.2951 78.1115L84.3368 78.8122C84.0785 78.9048 83.8052 78.9479 83.5309 78.9392C83.348 78.9494 83.1652 78.9192 82.9953 78.8505C82.8255 78.7819 82.6729 78.6766 82.5484 78.5422C82.2904 78.2663 82.1971 77.8118 82.1971 77.2064V74.4216H81.421V73.7071H82.1971V72.4784L83.0863 72.2382ZM89.3784 78.84V78.4251L89.8985 77.9091C91.145 76.6903 91.7087 76.0433 91.7166 75.289C91.7166 74.7789 91.4764 74.3085 90.748 74.3085C90.3628 74.3236 89.9952 74.474 89.7099 74.7332L89.4995 74.2549C89.8865 73.924 90.3798 73.7436 90.8889 73.7468C91.9409 73.7468 92.3855 74.4871 92.3855 75.2037C92.3855 76.1286 91.7305 76.8749 90.7004 77.8932L90.3034 78.2624V78.2723H92.4987V78.834L89.3784 78.84ZM98.0345 75.3863C98.0345 74.7293 98.0147 74.1953 97.9928 73.711H98.8106L98.8523 74.5903H98.8721C99.0497 74.2765 99.3105 74.0178 99.6257 73.8427C99.9409 73.6676 100.298 73.5829 100.659 73.5979C101.867 73.5979 102.778 74.6479 102.778 76.206C102.778 78.05 101.683 78.9611 100.504 78.9611C100.199 78.9735 99.8961 78.9056 99.6258 78.7642C99.3555 78.6227 99.127 78.4127 98.9634 78.1552H98.9416V80.934H98.0425L98.0345 75.3863ZM98.9337 76.7519C98.9365 76.8805 98.9505 77.0087 98.9754 77.135C99.0478 77.4436 99.2218 77.7189 99.4694 77.9169C99.717 78.1148 100.024 78.2239 100.341 78.2267C101.302 78.2267 101.859 77.4208 101.859 76.2418C101.859 75.2136 101.333 74.3343 100.371 74.3343C100.046 74.3462 99.7341 74.4664 99.4853 74.6757C99.2365 74.885 99.0647 75.1714 98.9972 75.4895C98.9599 75.6133 98.9385 75.7414 98.9337 75.8706V76.7519ZM103.918 71.3252H104.827V78.8499H103.918V71.3252ZM109.128 78.84L109.055 78.1949H109.025C108.85 78.4357 108.619 78.6307 108.353 78.7634C108.087 78.8961 107.792 78.9625 107.494 78.9571C107.295 78.9695 107.095 78.9404 106.908 78.8715C106.721 78.8027 106.549 78.6956 106.406 78.5572C106.262 78.4187 106.148 78.2518 106.072 78.0671C105.996 77.8824 105.959 77.684 105.964 77.4843C105.964 76.2437 107.04 75.5649 108.973 75.5768V75.4696C108.973 75.0469 108.858 74.2787 107.836 74.2787C107.374 74.2807 106.922 74.4135 106.532 74.6618L106.333 74.0465C106.827 73.7411 107.397 73.5828 107.977 73.59C109.507 73.59 109.88 74.6618 109.88 75.69V77.6074C109.873 78.0185 109.901 78.4296 109.964 78.836L109.128 78.84ZM108.993 76.2219C108.001 76.2021 106.873 76.3827 106.873 77.3791C106.862 77.496 106.877 77.6139 106.916 77.7246C106.955 77.8354 107.017 77.9364 107.099 78.0209C107.181 78.1053 107.279 78.1711 107.389 78.2138C107.498 78.2565 107.615 78.2751 107.733 78.2683C107.999 78.2733 108.261 78.1927 108.478 78.0384C108.696 77.8841 108.858 77.6642 108.941 77.4109C108.974 77.3148 108.991 77.2144 108.993 77.1131V76.2219ZM111.587 73.7071L112.683 76.738C112.798 77.0774 112.921 77.4803 113.005 77.788H113.024C113.118 77.4803 113.223 77.0873 113.346 76.7162L114.338 73.7071H115.299L113.935 77.3632C113.284 79.1218 112.84 80.023 112.219 80.5748C111.906 80.868 111.521 81.0734 111.103 81.1702L110.875 80.3862C111.166 80.2874 111.436 80.1331 111.669 79.9317C112 79.6487 112.262 79.2927 112.433 78.8916C112.47 78.8223 112.495 78.7471 112.506 78.6693C112.497 78.5854 112.477 78.5032 112.445 78.4251L110.595 73.7071H111.587Z" fill="#02898F"/>
<path fill-rule="evenodd" clip-rule="evenodd" d="M84.7993 75.9202C84.7993 79.3719 87.5385 82.1805 90.9068 82.1805C94.2752 82.1805 97.0163 79.3719 97.0163 75.9202C97.0163 72.4684 94.2752 69.6578 90.9068 69.6578C87.5385 69.6578 84.7993 72.4665 84.7993 75.9202ZM85.2876 75.9202C85.2876 72.7443 87.8084 70.164 90.9068 70.164C94.0052 70.164 96.526 72.7443 96.526 75.9202C96.526 79.096 94.0052 81.6763 90.9068 81.6763C87.8084 81.6763 85.2876 79.096 85.2876 75.9202Z" fill="#457075"/>
<path d="M127.04 78.84C127.06 78.4906 127.081 77.9726 127.081 77.5161V71.3252H127.981V74.5487H128C128.169 74.2481 128.418 74.0004 128.72 73.8335C129.021 73.6666 129.363 73.5871 129.707 73.6038C130.948 73.6038 131.827 74.6638 131.815 76.2219C131.815 78.0559 130.69 78.967 129.573 78.967C129.23 78.9854 128.889 78.904 128.592 78.7328C128.295 78.5616 128.053 78.3079 127.897 78.0024H127.868L127.826 78.8499L127.04 78.84ZM127.981 76.7836C127.983 76.8979 127.997 77.0116 128.022 77.1231C128.094 77.4319 128.267 77.7076 128.515 77.9056C128.762 78.1037 129.069 78.2126 129.386 78.2147C130.337 78.2147 130.906 77.4208 130.906 76.2437C130.906 75.2156 130.39 74.3363 129.418 74.3363C129.091 74.3442 128.777 74.4614 128.525 74.669C128.273 74.8766 128.098 75.1627 128.028 75.4816C127.998 75.6065 127.981 75.7342 127.977 75.8626L127.981 76.7836ZM133.469 76.4462C133.491 77.7066 134.277 78.2326 135.186 78.2326C135.663 78.2483 136.138 78.1574 136.575 77.9666L136.73 78.6355C136.205 78.8594 135.637 78.9677 135.067 78.9531C133.524 78.9531 132.605 77.913 132.605 76.3728C132.605 74.8325 133.495 73.6058 134.952 73.6058C136.585 73.6058 137.02 75.0786 137.02 76.0234C137.019 76.1689 137.008 76.3141 136.988 76.4581L133.469 76.4462ZM136.137 75.7773C136.137 75.1818 135.898 74.2628 134.876 74.2628C133.955 74.2628 133.552 75.1322 133.487 75.7773H136.137ZM139.239 72.2382V73.7071H140.541V74.4177H139.239V77.1826C139.239 77.8197 139.414 78.175 139.92 78.175C140.098 78.1776 140.275 78.1563 140.448 78.1115L140.489 78.8122C140.231 78.9045 139.958 78.9476 139.684 78.9392C139.499 78.9509 139.314 78.9214 139.143 78.8527C138.971 78.784 138.817 78.678 138.691 78.5422C138.433 78.2663 138.34 77.8118 138.34 77.2064V74.4216H137.564V73.7071H138.34V72.4784L139.239 72.2382ZM145.531 78.84V78.4251L146.049 77.9091C147.298 76.6903 147.861 76.0433 147.869 75.289C147.869 74.7789 147.629 74.3085 146.899 74.3085C146.514 74.3241 146.147 74.4744 145.862 74.7332L145.652 74.2549C146.039 73.9237 146.532 73.7433 147.042 73.7468C148.094 73.7468 148.536 74.4871 148.536 75.2037C148.536 76.1286 147.883 76.8749 146.853 77.8932L146.456 78.2624V78.2723H148.651V78.834L145.531 78.84ZM154.548 73.7071L155.211 76.3152C155.356 76.8869 155.489 77.4168 155.582 77.9468H155.614C155.727 77.4267 155.892 76.8769 156.059 76.3251L156.875 73.7071H157.641L158.415 76.2715C158.601 76.8869 158.746 77.4267 158.86 77.9468H158.889C158.986 77.3857 159.114 76.8304 159.272 76.2834L159.985 73.7031H160.884L159.272 78.832H158.445L157.681 76.3847C157.503 75.831 157.355 75.2685 157.236 74.6995H157.214C157.096 75.273 156.944 75.839 156.76 76.3946L155.954 78.832H155.126L153.619 73.7071H154.548ZM162.809 72.27C162.809 72.4195 162.75 72.5629 162.644 72.6686C162.539 72.7743 162.395 72.8337 162.246 72.8337C162.096 72.8337 161.953 72.7743 161.847 72.6686C161.741 72.5629 161.682 72.4195 161.682 72.27C161.679 72.1937 161.692 72.1177 161.719 72.0465C161.746 71.9752 161.788 71.9103 161.841 71.8557C161.895 71.8011 161.959 71.7579 162.029 71.7288C162.1 71.6997 162.175 71.6853 162.252 71.6864C162.328 71.6849 162.403 71.6992 162.473 71.7283C162.543 71.7574 162.606 71.8008 162.659 71.8556C162.711 71.9105 162.752 71.9757 162.778 72.047C162.804 72.1183 162.814 72.1943 162.809 72.27ZM161.795 78.84V73.7071H162.706V78.836L161.795 78.84ZM164.215 75.0965C164.215 74.5665 164.205 74.1318 164.173 73.7071H164.979L165.033 74.5546H165.052C165.213 74.2573 165.452 74.0099 165.743 73.8398C166.035 73.6696 166.368 73.5831 166.706 73.59C167.399 73.59 168.474 74.0147 168.474 75.7733V78.836H167.565V75.8904C167.565 75.0627 167.266 74.374 166.406 74.374C166.127 74.3808 165.858 74.4774 165.639 74.6494C165.419 74.8214 165.261 75.0596 165.187 75.3287C165.143 75.4692 165.121 75.616 165.124 75.7634V78.8459H164.215V75.0965Z" fill="#02898F"/>
<path fill-rule="evenodd" clip-rule="evenodd" d="M141.136 75.9301C141.136 79.3838 143.876 82.1925 147.244 82.1925C150.612 82.1925 153.353 79.3838 153.353 75.9301C153.353 72.4764 150.612 69.6698 147.244 69.6698C143.876 69.6698 141.136 72.4784 141.136 75.9301ZM141.625 75.9301C141.625 72.7543 144.146 70.174 147.244 70.174C150.342 70.174 152.865 72.7543 152.865 75.9301C152.865 79.106 150.344 81.6863 147.244 81.6863C144.144 81.6863 141.621 79.1079 141.621 75.9301H141.625Z" fill="#457075"/>
<path d="M159.61 50.6824C159.136 50.274 158.58 49.9721 157.98 49.7971C157.427 49.6364 156.855 49.5529 156.279 49.549C155.912 49.5499 155.547 49.6014 155.193 49.7018C154.838 49.8008 154.508 49.974 154.225 50.21C153.928 50.4647 153.691 50.7811 153.53 51.1369C153.338 51.5674 153.245 52.0354 153.258 52.5065V57.2543C153.243 57.725 153.336 58.1928 153.53 58.6219C153.696 58.9734 153.938 59.2838 154.239 59.531C154.525 59.7649 154.854 59.9415 155.207 60.051C155.555 60.1597 155.917 60.2152 156.281 60.2158C156.844 60.2136 157.405 60.1342 157.946 59.9796C158.562 59.7927 159.135 59.4879 159.634 59.0824L161.17 61.5854C160.521 62.1204 159.775 62.5248 158.973 62.7763C158.088 63.0628 157.163 63.2062 156.233 63.2011C155.466 63.2013 154.702 63.0896 153.967 62.8696C153.252 62.6631 152.58 62.3318 151.982 61.891C151.397 61.4567 150.914 60.9007 150.565 60.2614C150.188 59.5535 150.001 58.7604 150.021 57.959V51.8455C150.003 51.0532 150.186 50.2694 150.553 49.5669C150.894 48.927 151.367 48.3674 151.942 47.9254C152.532 47.476 153.201 47.1395 153.913 46.9329C154.649 46.7137 155.412 46.6027 156.18 46.6034C157.103 46.6001 158.022 46.7271 158.909 46.9805C159.741 47.2098 160.511 47.6213 161.164 48.1854L159.61 50.6824ZM175.667 57.828C175.682 58.6254 175.51 59.4151 175.165 60.1344C174.844 60.784 174.385 61.3563 173.821 61.8116C173.234 62.2805 172.559 62.6292 171.837 62.8378C170.259 63.2957 168.583 63.2957 167.005 62.8378C166.283 62.6292 165.608 62.2805 165.02 61.8116C164.457 61.3563 163.998 60.784 163.677 60.1344C163.332 59.4151 163.16 58.6254 163.175 57.828V51.8455C163.154 51.0836 163.317 50.328 163.649 49.642C163.982 48.9561 164.474 48.3599 165.084 47.9035C165.685 47.4527 166.364 47.1163 167.087 46.9111C167.845 46.6905 168.631 46.5795 169.421 46.5816C170.213 46.5797 171 46.6988 171.755 46.9349C172.479 47.1556 173.157 47.5038 173.758 47.9631C174.366 48.4277 174.856 49.0294 175.188 49.7192C175.52 50.4091 175.684 51.1675 175.667 51.9328V57.828ZM172.432 52.5144C172.445 52.0483 172.357 51.5849 172.172 51.1568C172.014 50.8065 171.78 50.496 171.487 50.2477C171.206 50.0129 170.881 49.8362 170.531 49.7276C170.175 49.6179 169.805 49.5624 169.433 49.5629C169.057 49.5629 168.683 49.6185 168.323 49.7276C167.969 49.8341 167.639 50.011 167.355 50.2477C167.062 50.496 166.828 50.8065 166.67 51.1568C166.485 51.5849 166.397 52.0483 166.41 52.5144V57.2623C166.398 57.7321 166.486 58.1992 166.67 58.6318C166.826 58.9866 167.06 59.3015 167.355 59.5528C167.638 59.7888 167.968 59.962 168.323 60.061C168.684 60.1624 169.058 60.2138 169.433 60.2138C169.804 60.2144 170.174 60.163 170.531 60.061C170.881 59.9601 171.207 59.787 171.487 59.5528C171.782 59.3015 172.016 58.9866 172.172 58.6318C172.356 58.1992 172.444 57.7321 172.432 57.2623V52.5144ZM190.782 54.277L189.274 57.2781L187.438 60.7716H185.106L183.291 57.3476L181.703 54.277H181.608V63.0105H178.373V46.7344H181.35L184.256 52.4727L186.215 56.4882H186.358L188.343 52.3794L191.122 46.7344H194.099V63.0105H190.864V54.277H190.782ZM198.952 63.1872C198.702 63.1937 198.454 63.1463 198.223 63.0484C197.993 62.9505 197.787 62.8042 197.618 62.6195C197.267 62.2513 197.075 61.7588 197.086 61.2499C197.082 61.0105 197.127 60.7728 197.219 60.5516C197.31 60.3304 197.446 60.1303 197.618 59.9637C197.789 59.79 197.993 59.6531 198.218 59.5616C198.443 59.4701 198.685 59.4259 198.928 59.4318C199.176 59.4245 199.422 59.4679 199.651 59.5594C199.881 59.6509 200.09 59.7885 200.264 59.9637C200.436 60.1306 200.571 60.3309 200.662 60.552C200.753 60.7732 200.798 61.0107 200.794 61.2499C200.802 61.7483 200.626 62.232 200.298 62.6076C200.132 62.7999 199.925 62.9521 199.692 63.0525C199.459 63.1529 199.206 63.199 198.952 63.1872ZM215.657 58.3162C215.672 59.041 215.51 59.7584 215.185 60.4063C214.874 61.0065 214.425 61.5242 213.875 61.9168C213.277 62.3373 212.609 62.646 211.902 62.8279C211.1 63.0368 210.275 63.1396 209.446 63.1336C208.317 63.1416 207.193 62.9742 206.116 62.6373C204.995 62.2608 203.96 61.6672 203.069 60.8906L204.887 58.5286C205.556 59.0577 206.301 59.4839 207.096 59.793C207.822 60.0772 208.595 60.2253 209.375 60.2297C209.82 60.2388 210.265 60.1867 210.697 60.0749C211.015 59.9957 211.313 59.851 211.572 59.6501C211.771 59.4943 211.931 59.2954 212.041 59.0684C212.152 58.8415 212.209 58.5924 212.209 58.3401C212.221 58.019 212.126 57.7031 211.937 57.4429C211.727 57.187 211.46 56.9832 211.157 56.8474C210.77 56.6645 210.367 56.5144 209.954 56.3988L208.406 55.9622C207.792 55.81 207.188 55.6171 206.6 55.3846C206.052 55.1709 205.539 54.8765 205.078 54.5112C204.638 54.158 204.279 53.7147 204.026 53.2111C203.748 52.6332 203.612 51.9979 203.629 51.3572C203.621 50.6835 203.756 50.0157 204.026 49.3981C204.284 48.8098 204.664 48.2824 205.139 47.8499C205.646 47.3998 206.237 47.055 206.878 46.8357C207.609 46.5831 208.379 46.4589 209.152 46.4684C210.152 46.4535 211.151 46.5487 212.13 46.7523C213.161 46.9726 214.139 47.3898 215.012 47.9809L213.595 50.5772C212.927 50.1607 212.203 49.8431 211.445 49.6343C210.79 49.4631 210.116 49.3757 209.438 49.3743C209.126 49.3751 208.814 49.4144 208.511 49.4914C208.22 49.5635 207.941 49.6793 207.684 49.8348C207.44 49.9817 207.235 50.1862 207.088 50.4303C206.936 50.6865 206.859 50.98 206.864 51.2778C206.857 51.5782 206.947 51.8728 207.122 52.1174C207.313 52.3692 207.561 52.573 207.844 52.7129C208.211 52.898 208.596 53.0444 208.994 53.1496C209.442 53.2766 209.952 53.4017 210.52 53.5287C212.24 53.9058 213.527 54.4801 214.381 55.2516C215.234 56.023 215.66 57.0446 215.657 58.3162ZM221.103 52.7665V63.0165H217.868V46.7404H220.798L224.569 52.3139L227.664 57.038H227.759V46.7443H230.994V63.0204H228.049L223.926 56.8792L221.24 52.7705L221.103 52.7665Z" fill="#345961"/>
</g>
<defs>
<clipPath id="clip0_4812_1940">
<rect width="218" height="48" fill="white" transform="translate(13 35)"/>
</clipPath>
</defs>
</svg>
