<svg width="244" height="117" viewBox="0 0 244 117" fill="none" xmlns="http://www.w3.org/2000/svg">
<rect x="1" y="1" width="242" height="115" rx="7" fill="#EDF1F2"/>
<rect x="1" y="1" width="242" height="115" rx="7" stroke="#08616A" stroke-width="2"/>
<path d="M77.6681 63.0133V37.028H94.7607C95.5767 37.0274 96.3867 37.1691 97.154 37.4469C97.9026 37.7117 98.5962 38.1121 99.2 38.6279C99.7916 39.1353 100.277 39.7545 100.629 40.4501C100.995 41.176 101.181 41.9794 101.171 42.7924V47.602C101.178 48.4551 100.973 49.2967 100.575 50.0514C100.973 50.8061 101.178 51.6477 101.171 52.5009V57.2489C101.18 58.0681 100.994 58.8778 100.629 59.611C100.281 60.3093 99.7952 60.9293 99.2 61.4332C98.5913 61.9357 97.8987 62.3268 97.154 62.5885C96.3869 62.8672 95.5768 63.009 94.7607 63.0073L77.6681 63.0133ZM93.2366 43.7194H85.2827V46.7365H93.2465C93.2874 46.7422 93.329 46.7383 93.368 46.7251C93.4071 46.7119 93.4426 46.6898 93.4717 46.6605C93.5007 46.6312 93.5226 46.5956 93.5355 46.5564C93.5485 46.5173 93.5521 46.4756 93.5462 46.4348V44.0211C93.5525 43.9793 93.5488 43.9366 93.5353 43.8965C93.5219 43.8565 93.4991 43.8202 93.4688 43.7907C93.4386 43.7612 93.4017 43.7394 93.3613 43.727C93.3209 43.7145 93.2782 43.7119 93.2366 43.7194ZM93.4172 53.3663H85.2827V56.3815H93.4192C93.4558 56.3868 93.4932 56.3835 93.5284 56.3718C93.5636 56.3601 93.5956 56.3404 93.6218 56.3142C93.648 56.288 93.6677 56.256 93.6794 56.2208C93.6911 56.1856 93.6944 56.1482 93.689 56.1115V53.6363C93.6944 53.5996 93.6911 53.5622 93.6794 53.527C93.6677 53.4918 93.648 53.4598 93.6218 53.4336C93.5956 53.4074 93.5636 53.3877 93.5284 53.376C93.4932 53.3643 93.4558 53.361 93.4192 53.3663H93.4172ZM110.788 43.9298V46.3733C110.782 46.4136 110.786 46.4547 110.798 46.4934C110.811 46.5322 110.832 46.5675 110.86 46.5968C110.889 46.6261 110.923 46.6485 110.962 46.6624C111 46.6763 111.041 46.6813 111.081 46.677H121.569C121.397 47.6721 121.125 48.6475 120.76 49.5889C120.453 50.3819 119.987 51.1035 119.39 51.7089C118.792 52.2929 118.068 52.7322 117.273 52.9931C116.281 53.3041 115.246 53.4509 114.207 53.4279C113.685 53.4279 113.159 53.406 112.619 53.3663C112.08 53.3266 111.562 53.3068 111.042 53.3068C110.861 53.3068 110.77 53.408 110.77 53.6085V56.052C110.764 56.093 110.767 56.1348 110.78 56.1742C110.793 56.2135 110.816 56.2493 110.845 56.2786C110.874 56.3079 110.91 56.33 110.949 56.343C110.989 56.356 111.03 56.3597 111.071 56.3537H126.898C126.745 57.2199 126.513 58.0704 126.205 58.8945C125.923 59.6676 125.512 60.3872 124.989 61.0224C124.476 61.6374 123.835 62.1338 123.111 62.4773C122.261 62.857 121.337 63.0401 120.407 63.0133L103.366 62.9855V42.7924C103.351 41.9665 103.537 41.1495 103.905 40.4104C104.255 39.7182 104.741 39.1038 105.334 38.6041C105.936 38.0993 106.623 37.7049 107.362 37.4389C108.125 37.1595 108.931 37.0177 109.744 37.0201H126.898C126.743 37.8918 126.511 38.748 126.205 39.5787C125.927 40.3532 125.516 41.0727 124.989 41.7046C124.472 42.3132 123.832 42.8051 123.111 43.1477C122.263 43.5291 121.339 43.7143 120.409 43.6896L111.081 43.6598C110.883 43.6598 110.788 43.7511 110.788 43.9298ZM137.872 43.9576C137.878 43.9168 137.873 43.8755 137.86 43.8366C137.847 43.7978 137.825 43.7626 137.795 43.7338C137.766 43.7049 137.731 43.6832 137.692 43.6704C137.653 43.6576 137.611 43.6539 137.571 43.6598H127.053C127.223 42.7815 127.465 41.9185 127.775 41.0793C128.052 40.3131 128.457 39.5991 128.972 38.9673C129.482 38.3564 130.124 37.8686 130.849 37.5401C131.708 37.1728 132.636 36.9954 133.57 37.0201H156.171C156.017 37.8888 155.78 38.7409 155.465 39.5648C155.175 40.3317 154.759 41.0443 154.233 41.6729C153.713 42.2847 153.067 42.7769 152.339 43.1159C151.493 43.4926 150.574 43.6757 149.648 43.6519H145.651C145.611 43.6459 145.57 43.6495 145.531 43.6623C145.492 43.6752 145.456 43.6969 145.427 43.7258C145.398 43.7547 145.376 43.7899 145.363 43.8288C145.35 43.8677 145.346 43.909 145.352 43.9496V57.2489C145.352 58.3049 145.126 59.1843 144.673 59.8929C144.225 60.5925 143.627 61.1837 142.923 61.6238C142.181 62.0808 141.371 62.4159 140.524 62.6163C139.651 62.8362 138.766 62.9993 137.872 63.1046V43.9576Z" fill="#095860"/>
<path fill-rule="evenodd" clip-rule="evenodd" d="M40.9388 61.4571C43.6953 60.2046 45.9716 59.0096 47.7318 57.8842C49.4826 56.7755 51.0221 55.364 52.2783 53.7157C53.5305 52.0664 54.2647 50.0822 54.3879 48.0149C54.5506 45.6786 54.0942 43.5824 53.0265 41.7443C51.9506 39.9111 50.4087 38.3955 48.5574 37.3516C46.6007 36.2368 44.4494 35.5051 42.2188 35.1959C41.1569 35.0315 40.0816 34.9703 39.0079 35.0133C38.6725 35.0292 38.3411 35.0609 38.0156 35.1006L32.4035 35.5929L28.9226 40.4005L28.9583 41.5339C28.7571 41.9673 28.5795 42.4112 28.4265 42.8639L29.008 43.1358L29.135 47.1058L35.67 46.2066C36.7952 43.0306 38.6765 41.7285 40.8297 42.1175C41.947 42.316 42.7586 42.844 43.2528 43.6916C43.7627 44.5961 43.9816 45.6357 43.8799 46.6691C43.7787 48.0585 43.0186 49.5731 41.6116 51.167C40.1072 52.8449 38.425 54.3544 36.5947 55.6689C34.6764 57.0663 32.6972 58.3705 30.6571 59.5813L26.3428 62.1479L25.8962 68.0849L51.8398 76.4992L52.4192 68.2536L36.3963 63.6525V63.5413C36.7475 63.3666 38.2498 62.6798 40.9388 61.4571Z" fill="#C6211C"/>
<path d="M45.2253 77.6544L45.8207 69.2938L29.6211 64.6291V64.5159C29.9684 64.3393 31.4806 63.6425 34.2033 62.4019C36.9817 61.1335 39.2916 59.9207 41.0717 58.7754C42.8424 57.6475 44.3986 56.2139 45.6679 54.5414C46.9345 52.8681 47.6762 50.8564 47.7992 48.7612C47.9659 46.3911 47.5035 44.2672 46.4259 42.4093C45.34 40.551 43.7807 39.014 41.9072 37.955C39.9281 36.8245 37.7509 36.0834 35.4933 35.7715C33.2137 35.4328 31.1326 35.534 29.25 36.0752C27.458 36.5706 25.8199 37.51 24.4872 38.8066C23.1422 40.1293 22.1366 41.7576 21.5561 43.5526L29.1428 47.0621C30.278 43.8305 31.9212 42.4014 34.0922 42.7964C35.2234 42.9949 36.043 43.5328 36.5431 44.3843C37.0588 45.3041 37.2798 46.36 37.1761 47.4094C37.0729 48.8307 36.3049 50.3551 34.884 51.9749C33.363 53.6754 31.6623 55.2062 29.8116 56.5403C27.8708 57.9589 25.8697 59.2822 23.8085 60.5102L19.4525 63.1026L19 69.123L45.2253 77.6544Z" fill="#E84043"/>
<path fill-rule="evenodd" clip-rule="evenodd" d="M60.5615 60.7564V60.7266L60.5198 60.7444L60.4802 60.7325L64.5861 47.332L62.6413 42.1433L60.8731 42.4093C60.8128 41.449 60.5921 40.5057 60.2202 39.6184L63.3954 37.1272L55.2033 35.9899C53.8252 35.808 52.4263 35.8603 51.0656 36.1447C49.0091 36.5429 47.0526 37.3473 45.3106 38.5108C43.4156 39.7744 41.7755 41.3839 40.4763 43.2549C39.0818 45.2408 38.0721 47.4708 37.4995 49.8291H37.5174L44.6993 51.7843L53.0978 45.212C53.1597 45.5606 53.1896 45.9141 53.1871 46.268C53.1871 47.59 52.6513 49.3011 51.5638 51.429C50.3065 53.8471 48.8904 56.1793 47.3248 58.4101C45.5507 60.9747 43.6191 63.6054 41.5301 66.3024L36.7117 72.4875V79.3258L43.842 82.996L69.1247 63.3269L60.5615 60.7564Z" fill="#075962"/>
<path d="M69.1208 70.6395V63.317L55.4773 69.1488V69.0297C55.8067 68.6069 57.2157 66.8661 59.6448 63.8926C61.9806 61.0263 63.7944 58.6384 65.13 56.6792C66.3898 54.8464 67.454 52.8864 68.3052 50.8315C69.0781 48.9976 69.4827 47.0295 69.4959 45.0394C69.4959 42.9551 69.0752 41.2818 68.2278 40.0035C67.3878 38.7157 66.1037 37.7817 64.62 37.3794C63.0323 36.9228 61.1808 36.8871 59.0633 37.292C56.8828 37.7115 54.8081 38.5625 52.961 39.7951C50.9544 41.1322 49.2175 42.8352 47.8409 44.8151C46.3636 46.9137 45.2915 49.2699 44.6796 51.7625L53.6932 51.4727C54.616 47.5464 56.1461 45.3371 58.2457 44.817C59.2935 44.555 60.0615 44.7436 60.5557 45.3748C61.0498 46.006 61.2939 46.8774 61.2939 48.0129C61.2939 49.4023 60.7244 51.2225 59.5733 53.4755C58.2421 56.0342 56.7424 58.5016 55.0844 60.8616C53.2044 63.5757 51.159 66.3599 48.9483 69.2143L43.8679 75.7647V83L69.1208 70.6395Z" fill="#008C9B"/>
<path d="M76.8762 78.8375C76.8981 78.4881 76.9179 77.9701 76.9179 77.5135V71.3224H77.8169V74.546H77.8387C78.0069 74.2455 78.2556 73.998 78.5567 73.8311C78.8578 73.6642 79.1995 73.5845 79.5434 73.6011C80.7837 73.6011 81.6629 74.6611 81.6529 76.2193C81.6529 78.0534 80.5257 78.9645 79.4085 78.9645C79.0662 78.9814 78.7262 78.8994 78.4293 78.7284C78.1323 78.5573 77.8908 78.3044 77.7335 77.9998H77.7038L77.6621 78.8474L76.8762 78.8375ZM77.8169 76.7811C77.8202 76.8952 77.8342 77.0089 77.8586 77.1205C77.9303 77.4291 78.1038 77.7047 78.3511 77.9027C78.5984 78.1007 78.9051 78.2098 79.2219 78.2122C80.1745 78.2122 80.742 77.4182 80.742 76.2411C80.742 75.2129 80.2261 74.3336 79.2537 74.3336C78.9275 74.3419 78.6135 74.4592 78.3617 74.6667C78.1099 74.8743 77.9349 75.1602 77.8645 75.4789C77.8346 75.6039 77.8173 75.7316 77.8129 75.86L77.8169 76.7811ZM83.2981 76.4436C83.3179 77.7041 84.1038 78.2301 85.0127 78.2301C85.4898 78.2457 85.9643 78.1549 86.4019 77.9641L86.5567 78.633C86.0315 78.8569 85.4643 78.9652 84.8936 78.9506C83.3537 78.9506 82.4329 77.9105 82.4329 76.3702C82.4329 74.8298 83.3219 73.6031 84.7785 73.6031C86.4118 73.6031 86.8464 75.076 86.8464 76.0208C86.8449 76.1662 86.835 76.3113 86.8166 76.4555L83.2981 76.4436ZM85.9633 75.7747C85.9752 75.1792 85.7271 74.2601 84.7031 74.2601C83.7823 74.2601 83.3795 75.1296 83.314 75.7747H85.9633ZM89.073 72.2355V73.7044H90.3749V74.415H89.073V77.18C89.073 77.8172 89.2477 78.1725 89.7557 78.1725C89.933 78.175 90.1099 78.1536 90.2816 78.109L90.3233 78.8097C90.0651 78.9023 89.7917 78.9454 89.5176 78.9367C89.3347 78.947 89.1518 78.9167 88.982 78.848C88.8122 78.7794 88.6597 78.6741 88.5352 78.5397C88.2772 78.2638 88.184 77.8093 88.184 77.2039V74.4189H87.408V73.7044H88.184V72.4757L89.073 72.2355ZM95.3639 78.8375V78.4226L95.8839 77.9065C97.1301 76.6878 97.6937 76.0407 97.7017 75.2864C97.7017 74.7762 97.4616 74.3058 96.7332 74.3058C96.3481 74.3209 95.9806 74.4713 95.6953 74.7306L95.485 74.2522C95.8719 73.9213 96.3651 73.7409 96.8741 73.7441C97.9259 73.7441 98.3705 74.4844 98.3705 75.201C98.3705 76.126 97.7156 76.8724 96.6856 77.8907L96.2887 78.2599V78.2698H98.4836V78.8315L95.3639 78.8375ZM104.018 75.3836C104.018 74.7266 103.999 74.1927 103.977 73.7083H104.794L104.836 74.5877H104.856C105.033 74.2739 105.294 74.0151 105.609 73.84C105.924 73.6649 106.282 73.5802 106.642 73.5952C107.85 73.5952 108.761 74.6452 108.761 76.2034C108.761 78.0475 107.666 78.9586 106.487 78.9586C106.182 78.971 105.88 78.9031 105.609 78.7617C105.339 78.6202 105.111 78.4102 104.947 78.1527H104.925V80.9316H104.026L104.018 75.3836ZM104.917 76.7493C104.92 76.878 104.934 77.0061 104.959 77.1324C105.031 77.441 105.205 77.7164 105.453 77.9144C105.701 78.1123 106.007 78.2214 106.324 78.2241C107.285 78.2241 107.843 77.4182 107.843 76.2392C107.843 75.2109 107.317 74.3316 106.354 74.3316C106.029 74.3436 105.718 74.4637 105.469 74.673C105.22 74.8823 105.048 75.1688 104.981 75.4869C104.944 75.6107 104.922 75.7387 104.917 75.868V76.7493ZM109.9 71.3224H110.809V78.8474H109.9V71.3224ZM115.11 78.8375L115.036 78.1924H115.007C114.832 78.4332 114.601 78.6282 114.335 78.7609C114.069 78.8936 113.774 78.96 113.477 78.9546C113.277 78.967 113.078 78.9379 112.89 78.8691C112.703 78.8002 112.532 78.6931 112.388 78.5547C112.244 78.4162 112.13 78.2493 112.054 78.0646C111.978 77.8799 111.942 77.6814 111.946 77.4818C111.946 76.2411 113.022 75.5623 114.955 75.5742V75.467C114.955 75.0442 114.84 74.276 113.818 74.276C113.356 74.278 112.904 74.4109 112.514 74.6591L112.316 74.0438C112.809 73.7384 113.379 73.5801 113.959 73.5872C115.489 73.5872 115.862 74.6591 115.862 75.6873V77.6048C115.855 78.016 115.883 78.4271 115.945 78.8335L115.11 78.8375ZM114.975 76.2193C113.983 76.1995 112.855 76.3801 112.855 77.3746C112.844 77.4916 112.859 77.6097 112.898 77.7207C112.936 77.8317 112.999 77.933 113.08 78.0177C113.162 78.1023 113.261 78.1683 113.37 78.2112C113.48 78.254 113.597 78.2726 113.715 78.2658C113.981 78.2707 114.242 78.1901 114.46 78.0358C114.677 77.8815 114.84 77.6616 114.923 77.4083C114.956 77.3123 114.973 77.2119 114.975 77.1106V76.2193ZM117.569 73.7044L118.664 76.7354C118.779 77.0748 118.902 77.4778 118.986 77.7855H119.005C119.099 77.4778 119.204 77.0848 119.327 76.7136L120.319 73.7044H121.28L119.916 77.3607C119.265 79.1194 118.821 80.0205 118.2 80.5724C117.887 80.8656 117.502 81.071 117.084 81.1678L116.856 80.3838C117.148 80.285 117.417 80.1306 117.65 79.9292C117.982 79.6462 118.243 79.2902 118.414 78.8891C118.451 78.8198 118.476 78.7446 118.487 78.6668C118.478 78.5829 118.458 78.5007 118.426 78.4226L116.576 73.7044H117.569Z" fill="#02898F"/>
<path fill-rule="evenodd" clip-rule="evenodd" d="M90.7858 75.9176C90.7858 79.3695 93.5244 82.1782 96.8921 82.1782C100.26 82.1782 103 79.3695 103 75.9176C103 72.4657 100.26 69.655 96.8921 69.655C93.5244 69.655 90.7858 72.4638 90.7858 75.9176ZM91.274 75.9176C91.274 72.7417 93.7943 70.1612 96.8921 70.1612C99.9899 70.1612 102.51 72.7417 102.51 75.9176C102.51 79.0936 99.9899 81.674 96.8921 81.674C93.7943 81.674 91.274 79.0936 91.274 75.9176Z" fill="#457075"/>
<path d="M133.018 78.8375C133.038 78.4881 133.06 77.9701 133.06 77.5135V71.3224H133.959V74.546H133.979C134.147 74.2454 134.396 73.9977 134.698 73.8308C134.999 73.6639 135.341 73.5844 135.685 73.6011C136.926 73.6011 137.805 74.6611 137.793 76.2193C137.793 78.0534 136.668 78.9645 135.55 78.9645C135.208 78.9829 134.867 78.9016 134.57 78.7303C134.273 78.5591 134.031 78.3054 133.875 77.9998H133.846L133.804 78.8474L133.018 78.8375ZM133.959 76.7811C133.961 76.8953 133.975 77.009 134 77.1205C134.072 77.4293 134.245 77.705 134.493 77.9031C134.74 78.1012 135.047 78.2101 135.364 78.2122C136.314 78.2122 136.884 77.4182 136.884 76.2411C136.884 75.2129 136.368 74.3336 135.396 74.3336C135.069 74.3415 134.755 74.4587 134.503 74.6663C134.251 74.874 134.076 75.1601 134.006 75.4789C133.976 75.6039 133.959 75.7316 133.955 75.86L133.959 76.7811ZM139.446 76.4436C139.468 77.7041 140.254 78.2301 141.163 78.2301C141.64 78.2457 142.114 78.1549 142.552 77.9641L142.706 78.633C142.181 78.8569 141.614 78.9652 141.043 78.9506C139.501 78.9506 138.583 77.9105 138.583 76.3702C138.583 74.8298 139.472 73.6031 140.928 73.6031C142.562 73.6031 142.996 75.076 142.996 76.0208C142.995 76.1663 142.985 76.3115 142.964 76.4555L139.446 76.4436ZM142.113 75.7747C142.113 75.1792 141.875 74.2601 140.853 74.2601C139.932 74.2601 139.529 75.1296 139.464 75.7747H142.113ZM145.215 72.2355V73.7044H146.517V74.415H145.215V77.18C145.215 77.8172 145.39 78.1725 145.896 78.1725C146.074 78.1751 146.251 78.1538 146.423 78.109L146.465 78.8097C146.207 78.902 145.934 78.9451 145.659 78.9367C145.475 78.9484 145.29 78.9189 145.118 78.8502C144.947 78.7815 144.793 78.6755 144.667 78.5397C144.409 78.2638 144.316 77.8093 144.316 77.2039V74.4189H143.54V73.7044H144.316V72.4757L145.215 72.2355ZM151.506 78.8375V78.4226L152.024 77.9065C153.272 76.6878 153.836 76.0407 153.844 75.2864C153.844 74.7762 153.603 74.3058 152.873 74.3058C152.489 74.3214 152.122 74.4718 151.837 74.7306L151.627 74.2522C152.014 73.921 152.507 73.7405 153.016 73.7441C154.068 73.7441 154.51 74.4844 154.51 75.201C154.51 76.126 153.857 76.8724 152.827 77.8907L152.431 78.2599V78.2698H154.625V78.8315L151.506 78.8375ZM160.521 73.7044L161.184 76.3126C161.329 76.8843 161.462 77.4143 161.555 77.9443H161.587C161.7 77.4242 161.865 76.8744 162.032 76.3225L162.847 73.7044H163.613L164.387 76.2689C164.574 76.8843 164.719 77.4242 164.832 77.9443H164.862C164.959 77.3832 165.086 76.8279 165.245 76.2808L165.957 73.7004H166.856L165.245 78.8296H164.417L163.653 76.3821C163.476 75.8284 163.328 75.2659 163.208 74.6968H163.187C163.068 75.2703 162.917 75.8363 162.732 76.392L161.926 78.8296H161.099L159.593 73.7044H160.521ZM168.781 72.2672C168.781 72.4167 168.722 72.5601 168.616 72.6659C168.51 72.7716 168.367 72.831 168.217 72.831C168.068 72.831 167.925 72.7716 167.819 72.6659C167.713 72.5601 167.654 72.4167 167.654 72.2672C167.651 72.191 167.663 72.1149 167.691 72.0437C167.718 71.9724 167.76 71.9075 167.813 71.8529C167.866 71.7983 167.93 71.7552 168.001 71.726C168.071 71.6969 168.147 71.6825 168.223 71.6837C168.299 71.6821 168.375 71.6964 168.445 71.7255C168.515 71.7546 168.578 71.798 168.63 71.8529C168.683 71.9077 168.723 71.9729 168.749 72.0442C168.775 72.1156 168.786 72.1915 168.781 72.2672ZM167.767 78.8375V73.7044H168.678V78.8335L167.767 78.8375ZM170.186 75.0938C170.186 74.5638 170.176 74.1291 170.144 73.7044H170.95L171.004 74.5519H171.023C171.184 74.2546 171.423 74.0073 171.714 73.837C172.006 73.6668 172.339 73.5804 172.677 73.5872C173.369 73.5872 174.445 74.012 174.445 75.7707V78.8335H173.536V75.8878C173.536 75.0601 173.236 74.3713 172.377 74.3713C172.098 74.3781 171.829 74.4747 171.609 74.6467C171.39 74.8187 171.232 75.057 171.158 75.3261C171.114 75.4666 171.092 75.6134 171.095 75.7608V78.8434H170.186V75.0938Z" fill="#02898F"/>
<path fill-rule="evenodd" clip-rule="evenodd" d="M147.112 75.9276C147.112 79.3814 149.851 82.1902 153.218 82.1902C156.586 82.1902 159.327 79.3814 159.327 75.9276C159.327 72.4737 156.586 69.667 153.218 69.667C149.851 69.667 147.112 72.4757 147.112 75.9276ZM147.6 75.9276C147.6 72.7516 150.121 70.1712 153.218 70.1712C156.316 70.1712 158.839 72.7516 158.839 75.9276C158.839 79.1035 156.318 81.684 153.218 81.684C150.119 81.684 147.596 79.1055 147.596 75.9276H147.6Z" fill="#457075"/>
<path d="M158.073 63.1839C157.823 63.1905 157.574 63.1431 157.344 63.0452C157.114 62.9472 156.908 62.8009 156.739 62.6162C156.387 62.2481 156.196 61.7556 156.207 61.2466C156.203 61.0072 156.248 60.7695 156.34 60.5483C156.431 60.327 156.567 60.1269 156.739 59.9603C156.909 59.7866 157.113 59.6498 157.339 59.5582C157.564 59.4667 157.806 59.4225 158.049 59.4284C158.296 59.4209 158.541 59.4643 158.771 59.5558C159 59.6473 159.208 59.785 159.382 59.9603C159.554 60.1269 159.69 60.327 159.782 60.5483C159.873 60.7695 159.918 61.0072 159.914 61.2466C159.922 61.745 159.746 62.2287 159.418 62.6043C159.252 62.7967 159.045 62.9489 158.812 63.0493C158.579 63.1497 158.326 63.1957 158.073 63.1839ZM172.381 50.6786C171.908 50.2698 171.352 49.9679 170.752 49.7933C170.199 49.6314 169.627 49.5479 169.051 49.5452C168.684 49.5464 168.319 49.5978 167.965 49.698C167.61 49.7975 167.28 49.9706 166.997 50.2062C166.701 50.4596 166.464 50.7737 166.3 51.1272C166.109 51.5579 166.017 52.0259 166.03 52.4969V57.2449C166.016 57.7121 166.109 58.1764 166.3 58.6026C166.467 58.9541 166.709 59.2645 167.009 59.5117C167.296 59.7449 167.624 59.9214 167.977 60.0318C168.325 60.1402 168.687 60.1957 169.051 60.1966C169.614 60.1946 170.174 60.1152 170.716 59.9603C171.332 59.7736 171.905 59.4689 172.405 59.0631L173.939 61.5662C173.291 62.1013 172.546 62.5057 171.744 62.7572C170.859 63.0437 169.935 63.1871 169.005 63.182C168.238 63.1823 167.474 63.0707 166.739 62.8505C166.025 62.6438 165.353 62.3125 164.754 61.8719C164.171 61.4364 163.688 60.8807 163.337 60.2422C162.963 59.5337 162.776 58.7409 162.796 57.9396V51.8418C162.778 51.0498 162.96 50.2661 163.326 49.5631C163.668 48.9241 164.141 48.3646 164.715 47.9215C165.306 47.4724 165.974 47.136 166.687 46.929C167.423 46.7095 168.186 46.5985 168.954 46.5995C169.876 46.5961 170.794 46.723 171.68 46.9766C172.512 47.2059 173.282 47.6174 173.935 48.1815L172.381 50.6786ZM188.438 57.8245C188.455 58.6241 188.285 59.4167 187.941 60.139C187.621 60.7891 187.162 61.3614 186.598 61.8163C186.01 62.2854 185.336 62.6341 184.613 62.8425C183.035 63.3003 181.359 63.3003 179.781 62.8425C179.059 62.6341 178.384 62.2854 177.797 61.8163C177.232 61.3614 176.774 60.7891 176.453 60.139C176.106 59.4176 175.933 58.6249 175.947 57.8245V51.8418C175.928 51.0802 176.09 50.325 176.422 49.6392C176.754 48.9534 177.245 48.357 177.854 47.8997C178.456 47.4488 179.135 47.1123 179.859 46.9072C180.617 46.6866 181.403 46.5756 182.192 46.5777C182.983 46.5759 183.769 46.6951 184.524 46.931C185.248 47.1518 185.927 47.5 186.528 47.9592C187.136 48.4243 187.626 49.0261 187.958 49.7159C188.289 50.4056 188.454 51.1639 188.438 51.9291V57.8245ZM185.203 52.5028C185.216 52.0367 185.127 51.5733 184.943 51.1451C184.784 50.7958 184.55 50.4855 184.258 50.236C183.977 50.0015 183.652 49.8248 183.302 49.7159C182.946 49.6063 182.576 49.5508 182.204 49.5512C181.828 49.5512 181.453 49.6067 181.093 49.7159C180.739 49.8224 180.41 49.9993 180.126 50.236C179.833 50.4843 179.599 50.7949 179.442 51.1451C179.256 51.5731 179.168 52.0366 179.182 52.5028V57.2509C179.169 57.7208 179.257 58.1881 179.442 58.6205C179.597 58.9753 179.832 59.2902 180.126 59.5415C180.409 59.7774 180.738 59.9506 181.093 60.0497C181.455 60.1511 181.829 60.2026 182.204 60.2025C182.575 60.203 182.945 60.1515 183.302 60.0497C183.664 59.9482 183.999 59.7673 184.283 59.5201C184.567 59.2729 184.792 58.9656 184.943 58.6205C185.126 58.1878 185.215 57.7207 185.203 57.2509V52.5028ZM193.183 63.1839C192.933 63.1905 192.684 63.1431 192.454 63.0452C192.224 62.9472 192.018 62.8009 191.849 62.6162C191.497 62.2481 191.306 61.7556 191.317 61.2466C191.313 61.0072 191.358 60.7695 191.45 60.5483C191.541 60.327 191.677 60.1269 191.849 59.9603C192.019 59.7866 192.223 59.6498 192.449 59.5582C192.674 59.4667 192.916 59.4225 193.159 59.4284C193.406 59.4209 193.651 59.4643 193.881 59.5558C194.11 59.6473 194.318 59.785 194.492 59.9603C194.664 60.1269 194.8 60.327 194.892 60.5483C194.983 60.7695 195.028 61.0072 195.024 61.2466C195.032 61.745 194.856 62.2287 194.528 62.6043C194.362 62.7965 194.155 62.9485 193.922 63.0489C193.689 63.1493 193.436 63.1955 193.183 63.1839ZM201.257 53.7553C201.714 53.2511 202.162 52.7311 202.603 52.1951C203.044 51.6592 203.477 51.1299 203.903 50.6072L207.09 46.7345H210.914L205.508 53.3067L211.299 63.0132H207.491L203.383 55.8673C203.005 56.308 202.627 56.7447 202.25 57.1774C201.873 57.6101 201.503 58.0468 201.14 58.4875V63.0232H197.904V46.7464H201.14V53.7553H201.257ZM212.78 46.7404H224V49.6444H216.014V53.3762H222.839V56.2822H216.014V60.1072H224V63.0132H212.78V46.7404Z" fill="#345961"/>
</svg>
