<svg width="244" height="117" viewBox="0 0 244 117" fill="none" xmlns="http://www.w3.org/2000/svg">
<rect x="1" y="1" width="242" height="115" rx="7" fill="#EDF1F2"/>
<rect x="1" y="1" width="242" height="115" rx="7" stroke="#08616A" stroke-width="2"/>
<path d="M94.8911 63.0133V37.028H112.049C112.868 37.0274 113.681 37.1691 114.451 37.4469C115.203 37.7117 115.899 38.1121 116.505 38.6279C117.099 39.1353 117.586 39.7545 117.939 40.4501C118.307 41.176 118.493 41.9794 118.483 42.7924V47.602C118.49 48.4551 118.285 49.2967 117.885 50.0514C118.285 50.8061 118.49 51.6477 118.483 52.5009V57.2489C118.492 58.0681 118.306 58.8778 117.939 59.611C117.59 60.3093 117.102 60.9293 116.505 61.4332C115.894 61.9357 115.199 62.3268 114.451 62.5885C113.681 62.8672 112.868 63.009 112.049 63.0073L94.8911 63.0133ZM110.519 43.7194H102.535V46.7365H110.529C110.57 46.7422 110.612 46.7383 110.651 46.7251C110.69 46.7119 110.726 46.6898 110.755 46.6605C110.784 46.6312 110.806 46.5956 110.819 46.5564C110.832 46.5173 110.836 46.4756 110.83 46.4348V44.0211C110.836 43.9793 110.832 43.9366 110.819 43.8965C110.805 43.8565 110.782 43.8202 110.752 43.7907C110.722 43.7612 110.685 43.7394 110.644 43.727C110.603 43.7145 110.561 43.7119 110.519 43.7194ZM110.7 53.3663H102.535V56.3815H110.702C110.739 56.3868 110.776 56.3835 110.812 56.3718C110.847 56.3601 110.879 56.3404 110.905 56.3142C110.932 56.288 110.952 56.256 110.963 56.2208C110.975 56.1856 110.978 56.1482 110.973 56.1115V53.6363C110.978 53.5996 110.975 53.5622 110.963 53.527C110.952 53.4918 110.932 53.4598 110.905 53.4336C110.879 53.4074 110.847 53.3877 110.812 53.376C110.776 53.3643 110.739 53.361 110.702 53.3663H110.7ZM128.137 43.9298V46.3733C128.131 46.4136 128.134 46.4547 128.147 46.4934C128.16 46.5322 128.181 46.5675 128.21 46.5968C128.238 46.6261 128.273 46.6485 128.311 46.6624C128.35 46.6763 128.391 46.6813 128.431 46.677H138.959C138.786 47.6721 138.514 48.6475 138.147 49.5889C137.839 50.3819 137.371 51.1035 136.772 51.7089C136.171 52.2929 135.444 52.7322 134.647 52.9931C133.651 53.3051 132.612 53.4519 131.569 53.4279C131.045 53.4279 130.517 53.406 129.975 53.3663C129.433 53.3266 128.913 53.3068 128.392 53.3068C128.21 53.3068 128.119 53.408 128.119 53.6085V56.052C128.113 56.093 128.116 56.1348 128.129 56.1742C128.142 56.2135 128.165 56.2493 128.194 56.2786C128.223 56.3079 128.259 56.33 128.299 56.343C128.338 56.356 128.38 56.3597 128.421 56.3537H144.308C144.154 57.2199 143.922 58.0704 143.613 58.8945C143.33 59.6676 142.917 60.3872 142.392 61.0224C141.876 61.6374 141.234 62.1338 140.507 62.4773C139.654 62.857 138.726 63.0401 137.792 63.0133L120.686 62.9855V42.7924C120.672 41.9665 120.858 41.1495 121.228 40.4104C121.579 39.7182 122.067 39.1038 122.662 38.6041C123.267 38.0993 123.956 37.7049 124.698 37.4389C125.464 37.1595 126.273 37.0177 127.089 37.0201H144.308C144.153 37.8918 143.92 38.748 143.613 39.5787C143.334 40.3532 142.921 41.0727 142.392 41.7046C141.873 42.3132 141.231 42.8051 140.507 43.1477C139.655 43.5291 138.728 43.7143 137.794 43.6896L128.431 43.6598C128.232 43.6598 128.137 43.7511 128.137 43.9298ZM155.324 43.9576C155.329 43.9168 155.325 43.8755 155.312 43.8366C155.298 43.7978 155.276 43.7626 155.247 43.7338C155.218 43.7049 155.182 43.6832 155.143 43.6704C155.104 43.6576 155.062 43.6539 155.021 43.6598H144.463C144.634 42.7815 144.877 41.9185 145.189 41.0793C145.467 40.3131 145.873 39.5991 146.39 38.9673C146.902 38.3564 147.546 37.8686 148.274 37.5401C149.136 37.1728 150.068 36.9954 151.005 37.0201H173.693C173.538 37.8888 173.3 38.7409 172.984 39.5648C172.693 40.3317 172.275 41.0443 171.747 41.6729C171.225 42.2847 170.577 42.7769 169.846 43.1159C168.997 43.4926 168.074 43.6757 167.145 43.6519H163.133C163.092 43.6459 163.051 43.6495 163.012 43.6623C162.973 43.6752 162.937 43.6969 162.908 43.7258C162.879 43.7547 162.857 43.7899 162.843 43.8288C162.83 43.8677 162.826 43.909 162.832 43.9496V57.2489C162.832 58.3049 162.605 59.1843 162.151 59.8929C161.701 60.5925 161.101 61.1837 160.394 61.6238C159.649 62.0808 158.836 62.4159 157.985 62.6163C157.11 62.8362 156.221 62.9993 155.324 63.1046V43.9576Z" fill="#095860"/>
<path fill-rule="evenodd" clip-rule="evenodd" d="M58.0221 61.4571C60.7891 60.2046 63.074 59.0096 64.8409 57.8842C66.5983 56.7755 68.1437 55.364 69.4047 53.7157C70.6617 52.0664 71.3987 50.0822 71.5223 48.0149C71.6856 45.6786 71.2275 43.5824 70.1557 41.7443C69.0758 39.9111 67.528 38.3955 65.6696 37.3516C63.7055 36.2368 61.5461 35.5051 59.307 35.1959C58.2411 35.0315 57.1616 34.9703 56.0839 35.0133C55.7472 35.0292 55.4145 35.0609 55.0878 35.1006L49.4543 35.5929L45.9602 40.4005L45.9961 41.5339C45.7941 41.9673 45.6158 42.4112 45.4622 42.8639L46.0459 43.1358L46.1734 47.1058L52.7332 46.2066C53.8627 43.0306 55.7512 41.7285 57.9126 42.1175C59.0341 42.316 59.8489 42.844 60.3449 43.6916C60.8567 44.5961 61.0765 45.6357 60.9744 46.6691C60.8728 48.0585 60.1098 49.5731 58.6974 51.167C57.1878 52.8448 55.4992 54.3537 53.6615 55.6669C51.7359 57.0683 49.7491 58.3731 47.7013 59.5813L43.3706 62.1479L42.9224 68.0849L68.9645 76.4992L69.5462 68.2536L53.4623 63.6525V63.5413C53.8149 63.3666 55.3229 62.6798 58.0221 61.4571Z" fill="#C6211C"/>
<path d="M62.325 77.6545L62.9226 69.2938L46.6615 64.6291V64.5159C47.0101 64.3393 48.528 63.6425 51.2611 62.4019C54.05 61.1335 56.3688 59.9207 58.1556 58.7754C59.933 57.6475 61.4951 56.2139 62.7692 54.5414C64.0407 52.8681 64.7852 50.8564 64.9087 48.7612C65.076 46.3911 64.6119 44.2672 63.5302 42.4093C62.4401 40.551 60.8749 39.014 58.9943 37.955C57.0077 36.8245 54.8222 36.0834 52.556 35.7715C50.2678 35.4328 48.1788 35.534 46.289 36.0752C44.4902 36.5706 42.8458 37.51 41.508 38.8066C40.1579 40.1293 39.1485 41.7576 38.5658 43.5526L46.1814 47.0621C47.3208 43.8305 48.9703 42.4014 51.1496 42.7964C52.2851 42.9949 53.1078 43.5328 53.6098 44.3843C54.1275 45.3041 54.3493 46.36 54.2452 47.4094C54.1416 48.8307 53.3707 50.3551 51.9444 51.9749C50.4176 53.6754 48.7104 55.2062 46.8527 56.5403C44.9045 57.9589 42.8958 59.2822 40.8267 60.5103L36.4542 63.1026L36 69.123L62.325 77.6545Z" fill="#E84043"/>
<path fill-rule="evenodd" clip-rule="evenodd" d="M77.7196 60.7564V60.7266L77.6777 60.7444L77.6379 60.7325L81.7595 47.332L79.8072 42.1433L78.0323 42.4093C77.9718 41.449 77.7502 40.5057 77.3769 39.6184L80.5642 37.1272L72.341 35.9899C70.9577 35.808 69.5534 35.8603 68.1876 36.1447C66.1232 36.5429 64.1593 37.3473 62.4106 38.5108C60.5084 39.7744 58.8622 41.3839 57.558 43.2549C56.1582 45.2408 55.1447 47.4708 54.5699 49.8291H54.5878L61.7971 51.7843L70.2275 45.212C70.2896 45.5606 70.3196 45.9141 70.3171 46.268C70.3171 47.59 69.7792 49.3011 68.6876 51.429C67.425 53.8462 66.0036 56.1777 64.4326 58.4081C62.6517 60.9727 60.7127 63.6035 58.6158 66.3004L53.7791 72.4875V79.3258L60.9365 82.996L86.3153 63.3269L77.7196 60.7564Z" fill="#075962"/>
<path d="M86.3113 70.6395V63.317L72.6159 69.1488V69.0297C72.9466 68.6069 74.361 66.8661 76.7992 63.8926C79.1439 61.0263 80.9646 58.6384 82.3053 56.6792C83.5699 54.8464 84.6382 52.8864 85.4926 50.8315C86.2684 48.9976 86.6745 47.0295 86.6878 45.0394C86.6878 42.9551 86.2655 41.2818 85.4149 40.0035C84.5717 38.7157 83.2827 37.7817 81.7933 37.3794C80.1997 36.9228 78.3411 36.8871 76.2156 37.292C74.0268 37.7115 71.9442 38.5625 70.09 39.7951C68.0759 41.1322 66.3323 42.8352 64.9505 44.8151C63.4676 46.9137 62.3914 49.2699 61.7772 51.7625L70.8251 51.4727C71.7514 47.5464 73.2872 45.3371 75.3948 44.817C76.4466 44.555 77.2176 44.7436 77.7136 45.3748C78.2096 46.006 78.4546 46.8774 78.4546 48.0129C78.4546 49.4023 77.8829 51.2225 76.7275 53.4755C75.3912 56.0342 73.8859 58.5016 72.2215 60.8616C70.3344 63.5757 68.2812 66.3599 66.0621 69.2143L60.9624 75.7647V83L86.3113 70.6395Z" fill="#008C9B"/>
<path d="M94.0963 78.8375C94.1182 78.4881 94.1381 77.9701 94.1381 77.5135V71.3224H95.0405V74.546H95.0625C95.2313 74.2455 95.4809 73.998 95.7832 73.8311C96.0855 73.6642 96.4285 73.5845 96.7736 73.6011C98.0187 73.6011 98.9011 74.6611 98.8912 76.2193C98.8912 78.0534 97.7597 78.9645 96.6382 78.9645C96.2946 78.9814 95.9534 78.8994 95.6553 78.7284C95.3571 78.5573 95.1147 78.3044 94.9569 77.9998H94.927L94.8852 78.8474L94.0963 78.8375ZM95.0405 76.7811C95.0439 76.8952 95.0579 77.0089 95.0824 77.1205C95.1544 77.4291 95.3285 77.7047 95.5768 77.9027C95.825 78.1007 96.1329 78.2098 96.4509 78.2122C97.4071 78.2122 97.9768 77.4182 97.9768 76.2411C97.9768 75.2129 97.4589 74.3336 96.4828 74.3336C96.1554 74.3419 95.8402 74.4592 95.5874 74.6667C95.3347 74.8743 95.159 75.1602 95.0884 75.4789C95.0584 75.6039 95.041 75.7316 95.0366 75.86L95.0405 76.7811ZM100.543 76.4436C100.563 77.7041 101.351 78.2301 102.264 78.2301C102.743 78.2457 103.219 78.1549 103.658 77.9641L103.814 78.633C103.286 78.8569 102.717 78.9652 102.144 78.9506C100.598 78.9506 99.6741 77.9105 99.6741 76.3702C99.6741 74.8298 100.567 73.6031 102.029 73.6031C103.668 73.6031 104.104 75.078 104.104 76.0208C104.103 76.1662 104.093 76.3113 104.075 76.4555L100.543 76.4436ZM103.218 75.7747C103.23 75.1792 102.981 74.2601 101.953 74.2601C101.029 74.2601 100.624 75.1296 100.559 75.7747H103.218ZM106.339 72.2355V73.7044H107.646V74.415H106.339V77.18C106.339 77.8172 106.515 78.1725 107.025 78.1725C107.203 78.175 107.38 78.1536 107.553 78.109L107.594 78.8097C107.335 78.9023 107.061 78.9454 106.786 78.9367C106.602 78.947 106.419 78.9167 106.248 78.848C106.078 78.7794 105.925 78.6741 105.8 78.5397C105.541 78.2638 105.447 77.8093 105.447 77.2039V74.4189H104.668V73.7044H105.447V72.4757L106.339 72.2355ZM112.654 78.8375V78.4226L113.176 77.9065C114.427 76.6878 114.993 76.0407 115.001 75.2864C115.001 74.7762 114.76 74.3058 114.029 74.3058C113.642 74.3209 113.273 74.4713 112.987 74.7306L112.776 74.2522C113.164 73.9213 113.659 73.7409 114.17 73.7441C115.226 73.7441 115.672 74.4844 115.672 75.201C115.672 76.126 115.015 76.8724 113.981 77.8907L113.583 78.2599V78.2698H115.786V78.8315L112.654 78.8375ZM121.342 75.3836C121.342 74.7266 121.322 74.1927 121.3 73.7083H122.121L122.162 74.5877H122.182C122.361 74.2739 122.622 74.0151 122.939 73.84C123.255 73.6649 123.614 73.5802 123.975 73.5952C125.188 73.5952 126.103 74.6452 126.103 76.2034C126.103 78.0475 125.003 78.9586 123.82 78.9586C123.514 78.971 123.21 78.9031 122.939 78.7617C122.667 78.6202 122.438 78.4102 122.274 78.1527H122.252V80.9316H121.35L121.342 75.3836ZM122.244 76.7493C122.247 76.878 122.261 77.0061 122.286 77.1324C122.359 77.441 122.533 77.7164 122.782 77.9144C123.03 78.1123 123.338 78.2214 123.656 78.2241C124.621 78.2241 125.18 77.4182 125.18 76.2392C125.18 75.2109 124.652 74.3316 123.686 74.3316C123.36 74.3436 123.047 74.4637 122.798 74.673C122.548 74.8823 122.376 75.1688 122.308 75.4869C122.27 75.6107 122.249 75.7387 122.244 75.868V76.7493ZM127.246 71.3224H128.158V78.8474H127.246V71.3224ZM132.475 78.8375L132.402 78.1924H132.372C132.196 78.4332 131.965 78.6282 131.697 78.7609C131.43 78.8936 131.134 78.96 130.836 78.9546C130.636 78.967 130.435 78.9379 130.247 78.8691C130.059 78.8002 129.887 78.6931 129.743 78.5547C129.598 78.4162 129.485 78.2493 129.408 78.0646C129.332 77.8799 129.295 77.6814 129.3 77.4818C129.3 76.2411 130.38 75.5623 132.32 75.5742V75.467C132.32 75.0442 132.204 74.276 131.178 74.276C130.715 74.278 130.261 74.4109 129.87 74.6591L129.67 74.0438C130.165 73.7384 130.738 73.5801 131.32 73.5872C132.856 73.5872 133.23 74.6591 133.23 75.6873V77.6048C133.223 78.016 133.251 78.4271 133.314 78.8335L132.475 78.8375ZM132.34 76.2213C131.344 76.1995 130.212 76.3801 130.212 77.3766C130.201 77.4935 130.216 77.6113 130.255 77.7221C130.294 77.8329 130.357 77.9339 130.439 78.0183C130.521 78.1028 130.62 78.1686 130.73 78.2113C130.839 78.254 130.957 78.2726 131.075 78.2658C131.342 78.2707 131.605 78.1901 131.823 78.0358C132.041 77.8815 132.204 77.6616 132.288 77.4083C132.32 77.3123 132.338 77.2119 132.34 77.1106V76.2213ZM134.943 73.7044L136.043 76.7354C136.159 77.0748 136.282 77.4778 136.366 77.7855H136.386C136.479 77.4778 136.585 77.0848 136.708 76.7136L137.704 73.7044H138.669L137.3 77.3607C136.647 79.1194 136.2 80.0205 135.577 80.5724C135.263 80.8656 134.877 81.071 134.457 81.1678L134.228 80.3838C134.521 80.285 134.791 80.1306 135.025 79.9292C135.358 79.6462 135.62 79.2902 135.792 78.8891C135.829 78.8198 135.854 78.7446 135.866 78.6668C135.857 78.5829 135.836 78.5007 135.804 78.4226L133.947 73.7044H134.943Z" fill="#02898F"/>
<path fill-rule="evenodd" clip-rule="evenodd" d="M108.059 75.9176C108.059 79.3695 110.808 82.1782 114.188 82.1782C117.569 82.1782 120.32 79.3695 120.32 75.9176C120.32 72.4657 117.569 69.655 114.188 69.655C110.808 69.655 108.059 72.4638 108.059 75.9176ZM108.549 75.9176C108.549 72.7417 111.079 70.1612 114.188 70.1612C117.298 70.1612 119.828 72.7417 119.828 75.9176C119.828 79.0936 117.298 81.674 114.188 81.674C111.079 81.674 108.549 79.0936 108.549 75.9176Z" fill="#457075"/>
<path d="M150.452 78.8375C150.471 78.4881 150.493 77.9701 150.493 77.5135V71.3224H151.396V74.546H151.416C151.585 74.2454 151.835 73.9977 152.137 73.8308C152.44 73.6639 152.783 73.5844 153.129 73.6011C154.374 73.6011 155.256 74.6611 155.244 76.2193C155.244 78.0534 154.115 78.9645 152.993 78.9645C152.65 78.9829 152.308 78.9016 152.009 78.7303C151.711 78.5591 151.469 78.3054 151.312 77.9998H151.282L151.24 78.8474L150.452 78.8375ZM151.396 76.7811C151.398 76.8953 151.412 77.009 151.438 77.1205C151.509 77.4293 151.683 77.705 151.932 77.9031C152.18 78.1012 152.488 78.2101 152.806 78.2122C153.76 78.2122 154.332 77.4182 154.332 76.2411C154.332 75.2129 153.814 74.3336 152.838 74.3336C152.511 74.3415 152.195 74.4587 151.942 74.6663C151.69 74.874 151.514 75.1601 151.444 75.4789C151.414 75.6039 151.396 75.7316 151.392 75.86L151.396 76.7811ZM156.904 76.4436C156.926 77.7041 157.715 78.2301 158.627 78.2301C159.106 78.2457 159.582 78.1549 160.021 77.9641L160.177 78.633C159.65 78.8569 159.08 78.9652 158.507 78.9506C156.96 78.9506 156.037 77.9105 156.037 76.3702C156.037 74.8298 156.93 73.6031 158.392 73.6031C160.031 73.6031 160.468 75.078 160.468 76.0208C160.467 76.1663 160.456 76.3115 160.436 76.4555L156.904 76.4436ZM159.581 75.7747C159.581 75.1792 159.342 74.2601 158.316 74.2601C157.392 74.2601 156.987 75.1296 156.922 75.7747H159.581ZM162.695 72.2355V73.7044H164.002V74.415H162.695V77.18C162.695 77.8172 162.87 78.1725 163.378 78.1725C163.557 78.1751 163.735 78.1538 163.908 78.109L163.95 78.8097C163.69 78.902 163.416 78.9451 163.141 78.9367C162.956 78.9484 162.77 78.9189 162.598 78.8502C162.426 78.7815 162.271 78.6755 162.145 78.5397C161.886 78.2638 161.792 77.8093 161.792 77.2039V74.4189H161.013V73.7044H161.792V72.4757L162.695 72.2355ZM169.01 78.8375V78.4226L169.529 77.9065C170.782 76.6878 171.348 76.0407 171.356 75.2864C171.356 74.7762 171.115 74.3058 170.382 74.3058C169.996 74.3214 169.628 74.4718 169.342 74.7306L169.131 74.2522C169.519 73.921 170.014 73.7405 170.525 73.7441C171.581 73.7441 172.026 74.4844 172.026 75.201C172.026 76.126 171.37 76.8724 170.336 77.8907L169.938 78.2599V78.2698H172.141V78.8315L169.01 78.8375ZM178.059 73.7044L178.725 76.3126C178.87 76.8843 179.004 77.4143 179.097 77.9443H179.129C179.243 77.4242 179.408 76.8744 179.575 76.3225L180.394 73.7044H181.163L181.94 76.2689C182.127 76.8843 182.273 77.4242 182.386 77.9443H182.416C182.513 77.3832 182.642 76.8279 182.801 76.2808L183.516 73.7004H184.418L182.801 78.8296H181.97L181.203 76.3821C181.025 75.8284 180.876 75.2659 180.757 74.6968H180.735C180.616 75.2703 180.464 75.8363 180.279 76.392L179.47 78.8296H178.639L177.127 73.7044H178.059ZM186.35 72.2672C186.35 72.4167 186.291 72.5601 186.185 72.6659C186.079 72.7716 185.935 72.831 185.785 72.831C185.635 72.831 185.491 72.7716 185.385 72.6659C185.278 72.5601 185.219 72.4167 185.219 72.2672C185.216 72.191 185.229 72.1149 185.256 72.0437C185.284 71.9724 185.325 71.9075 185.379 71.8529C185.432 71.7983 185.496 71.7552 185.567 71.726C185.638 71.6969 185.714 71.6825 185.791 71.6837C185.867 71.6821 185.942 71.6964 186.013 71.7255C186.083 71.7546 186.147 71.798 186.199 71.8529C186.252 71.9077 186.292 71.9729 186.318 72.0442C186.344 72.1156 186.355 72.1915 186.35 72.2672ZM185.332 78.8375V73.7044H186.247V78.8335L185.332 78.8375ZM187.761 75.0938C187.761 74.5638 187.751 74.1291 187.719 73.7044H188.528L188.581 74.5519H188.601C188.762 74.2546 189.002 74.0073 189.295 73.837C189.588 73.6668 189.922 73.5804 190.261 73.5872C190.956 73.5872 192.036 74.012 192.036 75.7707V78.8335H191.123V75.8878C191.123 75.0601 190.823 74.3713 189.96 74.3713C189.68 74.3781 189.41 74.4747 189.19 74.6467C188.969 74.8187 188.81 75.057 188.737 75.3261C188.692 75.4666 188.67 75.6134 188.673 75.7608V78.8434H187.761V75.0938Z" fill="#02898F"/>
<path fill-rule="evenodd" clip-rule="evenodd" d="M164.599 75.9276C164.599 79.3814 167.348 82.1902 170.729 82.1902C174.109 82.1902 176.86 79.3814 176.86 75.9276C176.86 72.4737 174.109 69.667 170.729 69.667C167.348 69.667 164.599 72.4757 164.599 75.9276ZM165.089 75.9276C165.089 72.7516 167.619 70.1712 170.729 70.1712C173.838 70.1712 176.37 72.7516 176.37 75.9276C176.37 79.1035 173.84 81.684 170.729 81.684C167.617 81.684 165.085 79.1055 165.085 75.9276H165.089Z" fill="#457075"/>
<path d="M175.601 63.184C175.35 63.1905 175.101 63.1432 174.87 63.0452C174.639 62.9473 174.432 62.801 174.263 62.6163C173.91 62.2481 173.718 61.7556 173.729 61.2466C173.725 61.0072 173.77 60.7695 173.862 60.5483C173.954 60.327 174.09 60.1269 174.263 59.9604C174.433 59.7866 174.638 59.6498 174.864 59.5583C175.091 59.4668 175.333 59.4225 175.577 59.4284C175.825 59.4209 176.072 59.4643 176.302 59.5558C176.532 59.6473 176.741 59.785 176.916 59.9604C177.089 60.1269 177.225 60.327 177.317 60.5483C177.409 60.7695 177.454 61.0072 177.45 61.2466C177.458 61.745 177.281 62.2287 176.952 62.6044C176.786 62.7967 176.578 62.9489 176.344 63.0493C176.11 63.1497 175.856 63.1958 175.601 63.184ZM183.635 52.7629V63.0133H180.388V46.7365H183.328L187.113 52.3103L190.225 57.0306H190.321V46.7405H193.572V63.0172H190.611L186.474 56.8718L183.779 52.7629H183.635ZM206.793 61.9612C206.361 62.2467 205.9 62.4843 205.416 62.6699C204.954 62.8502 204.474 62.9833 203.984 63.0669C203.533 63.142 203.077 63.1812 202.619 63.184C201.853 63.1823 201.091 63.0707 200.357 62.8525C199.636 62.643 198.958 62.3098 198.353 61.8679C197.759 61.4345 197.265 60.8787 196.906 60.2383C196.523 59.5322 196.331 58.7384 196.35 57.9357V51.9133C196.335 51.1138 196.518 50.3229 196.882 49.6107C197.228 48.9547 197.713 48.3822 198.305 47.9334C198.914 47.4767 199.6 47.1325 200.331 46.9171C201.092 46.6889 201.882 46.5739 202.677 46.5757C203.616 46.5765 204.549 46.7102 205.45 46.9727C206.298 47.2034 207.083 47.619 207.749 48.1895L206.155 50.6925C205.668 50.2769 205.093 49.9745 204.474 49.8072C203.902 49.6485 203.312 49.565 202.719 49.5591C202.339 49.5596 201.96 49.611 201.594 49.712C201.23 49.8107 200.891 49.9838 200.598 50.2201C200.293 50.4722 200.047 50.7863 199.874 51.1411C199.675 51.5696 199.578 52.0385 199.592 52.5108V57.2588C199.578 57.7248 199.666 58.1881 199.851 58.6165C200.01 58.9658 200.245 59.2761 200.538 59.5257C200.824 59.7618 201.154 59.9386 201.51 60.0457C201.871 60.1548 202.246 60.2103 202.623 60.2105C202.971 60.2066 203.318 60.1627 203.655 60.0795C204.063 59.9754 204.44 59.7776 204.757 59.5018V56.7785H202.384V54.0154H208V60.8635C207.656 61.2883 207.249 61.6584 206.793 61.9612Z" fill="#345961"/>
</svg>
