<svg width="244" height="117" viewBox="0 0 244 117" fill="none" xmlns="http://www.w3.org/2000/svg">
<rect x="1" y="1" width="242" height="115" rx="7" fill="#EDF1F2"/>
<rect x="1" y="1" width="242" height="115" rx="7" stroke="#08616A" stroke-width="2"/>
<path d="M87.707 63.0133V37.028H104.811C105.627 37.0274 106.438 37.1691 107.206 37.4469C107.955 37.7117 108.649 38.1121 109.253 38.6279C109.845 39.1353 110.331 39.7545 110.683 40.4501C111.049 41.176 111.235 41.9794 111.225 42.7924V47.602C111.232 48.4551 111.027 49.2967 110.629 50.0514C111.027 50.8061 111.232 51.6477 111.225 52.5009V57.2489C111.235 58.0682 111.049 58.8778 110.683 59.611C110.335 60.3093 109.849 60.9293 109.253 61.4332C108.644 61.9357 107.951 62.3268 107.206 62.5885C106.438 62.8672 105.628 63.009 104.811 63.0073L87.707 63.0133ZM103.286 43.7194H95.3266V46.7365H103.296C103.337 46.7422 103.378 46.7383 103.417 46.7251C103.456 46.7119 103.492 46.6898 103.521 46.6605C103.55 46.6312 103.572 46.5956 103.585 46.5564C103.598 46.5173 103.601 46.4756 103.596 46.4348V44.0211C103.602 43.9793 103.598 43.9366 103.585 43.8965C103.571 43.8565 103.548 43.8202 103.518 43.7907C103.488 43.7612 103.451 43.7394 103.411 43.727C103.37 43.7146 103.327 43.7119 103.286 43.7194ZM103.466 53.3663H95.3266V56.3815H103.468C103.505 56.3868 103.543 56.3835 103.578 56.3718C103.613 56.3601 103.645 56.3404 103.671 56.3142C103.697 56.288 103.717 56.256 103.729 56.2208C103.741 56.1856 103.744 56.1482 103.739 56.1115V53.6363C103.744 53.5996 103.741 53.5622 103.729 53.527C103.717 53.4918 103.697 53.4598 103.671 53.4336C103.645 53.4074 103.613 53.3877 103.578 53.376C103.543 53.3643 103.505 53.361 103.468 53.3663H103.466ZM120.848 43.9298V46.3733C120.843 46.4136 120.846 46.4547 120.859 46.4934C120.872 46.5322 120.893 46.5675 120.921 46.5968C120.95 46.6261 120.984 46.6485 121.022 46.6624C121.061 46.6763 121.102 46.6813 121.142 46.677H131.637C131.465 47.6721 131.193 48.6475 130.827 49.5889C130.521 50.3819 130.054 51.1035 129.457 51.7089C128.858 52.2929 128.133 52.7322 127.338 52.9931C126.346 53.3051 125.31 53.4519 124.27 53.4279C123.748 53.4279 123.221 53.406 122.681 53.3663C122.141 53.3266 121.623 53.3068 121.103 53.3068C120.922 53.3068 120.831 53.408 120.831 53.6085V56.052C120.825 56.093 120.828 56.1349 120.841 56.1742C120.854 56.2135 120.876 56.2493 120.906 56.2786C120.935 56.3079 120.971 56.33 121.01 56.343C121.049 56.356 121.091 56.3597 121.132 56.3537H136.969C136.816 57.2199 136.584 58.0704 136.276 58.8945C135.994 59.6676 135.583 60.3872 135.059 61.0224C134.545 61.6374 133.904 62.1338 133.18 62.4773C132.33 62.857 131.405 63.0401 130.474 63.0133L113.421 62.9855V42.7924C113.407 41.9665 113.593 41.1495 113.962 40.4104C114.312 39.7182 114.798 39.1038 115.391 38.6041C115.994 38.0993 116.681 37.7049 117.421 37.4389C118.184 37.1595 118.991 37.0177 119.804 37.0201H136.969C136.814 37.8918 136.583 38.748 136.276 39.5787C135.998 40.3532 135.586 41.0727 135.059 41.7046C134.542 42.3132 133.902 42.8051 133.18 43.1477C132.331 43.5291 131.407 43.7143 130.476 43.6896L121.142 43.6598C120.944 43.6598 120.848 43.7511 120.848 43.9298ZM147.951 43.9576C147.956 43.9168 147.952 43.8755 147.939 43.8366C147.925 43.7978 147.903 43.7626 147.874 43.7338C147.845 43.7049 147.809 43.6832 147.77 43.6704C147.731 43.6576 147.69 43.654 147.649 43.6598H137.124C137.295 42.7815 137.536 41.9185 137.847 41.0793C138.125 40.3131 138.53 39.5991 139.045 38.9673C139.555 38.3564 140.197 37.8686 140.923 37.5401C141.783 37.1728 142.711 36.9954 143.646 37.0201H166.262C166.108 37.8888 165.871 38.7409 165.555 39.5648C165.265 40.3317 164.849 41.0443 164.322 41.6729C163.802 42.2847 163.156 42.7769 162.428 43.1159C161.581 43.4926 160.661 43.6757 159.735 43.6519H155.735C155.695 43.6459 155.653 43.6495 155.614 43.6623C155.575 43.6752 155.54 43.6969 155.511 43.7258C155.482 43.7547 155.46 43.7899 155.447 43.8288C155.434 43.8677 155.43 43.909 155.436 43.9496V57.2489C155.436 58.3049 155.209 59.1843 154.756 59.8929C154.308 60.5925 153.71 61.1837 153.005 61.6238C152.263 62.0808 151.452 62.4159 150.604 62.6163C149.731 62.8362 148.845 62.9994 147.951 63.1046V43.9576Z" fill="#095860"/>
<path fill-rule="evenodd" clip-rule="evenodd" d="M50.9533 61.4571C53.7117 60.2046 55.9894 59.0096 57.7508 57.8842C59.5027 56.7755 61.0433 55.364 62.3003 53.7157C63.5533 52.0664 64.288 50.0822 64.4113 48.0149C64.5741 45.6786 64.1174 43.5824 63.049 41.7443C61.9724 39.9111 60.4295 38.3955 58.5769 37.3516C56.6189 36.2368 54.4663 35.5051 52.2342 35.1959C51.1716 35.0315 50.0955 34.9703 49.0211 35.0133C48.6855 35.0292 48.3539 35.0609 48.0282 35.1006L42.4123 35.5929L38.9292 40.4005L38.9649 41.5339C38.7635 41.9673 38.5858 42.4112 38.4327 42.8639L39.0146 43.1358L39.1417 47.1058L45.681 46.2066C46.8069 43.0306 48.6895 41.7285 50.8441 42.1175C51.9621 42.316 52.7743 42.844 53.2688 43.6916C53.779 44.5961 53.9981 45.6357 53.8963 46.6691C53.7951 48.0585 53.0345 49.5731 51.6265 51.167C50.1212 52.8449 48.4379 54.3544 46.6064 55.6689C44.6867 57.0677 42.7062 58.3718 40.6648 59.5813L36.3476 62.1479L35.9008 68.0849L61.8615 76.4992L62.4413 68.2536L46.4078 63.6525V63.5413C46.7593 63.3666 48.2626 62.6798 50.9533 61.4571Z" fill="#C6211C"/>
<path d="M55.2427 77.6545L55.8384 69.2938L39.6281 64.6291V64.5159C39.9757 64.3393 41.4889 63.6425 44.2134 62.4019C46.9936 61.1335 49.3051 59.9207 51.0863 58.7754C52.8581 57.6475 54.4154 56.2139 55.6855 54.5414C56.953 52.8681 57.6952 50.8565 57.8183 48.7612C57.9851 46.3911 57.5224 44.2672 56.4441 42.4093C55.3574 40.551 53.7971 39.014 51.9224 37.955C49.9419 36.8245 47.7634 36.0834 45.5042 35.7715C43.2231 35.4328 41.1407 35.534 39.2568 36.0752C37.4636 36.5706 35.8244 37.51 34.4908 38.8066C33.1449 40.1293 32.1387 41.7576 31.5577 43.5526L39.1496 47.0621C40.2854 43.8305 41.9297 42.4014 44.1022 42.7964C45.2341 42.9949 46.0543 43.5328 46.5547 44.3843C47.0708 45.3041 47.2919 46.36 47.1882 47.4094C47.0849 48.8307 46.3164 50.3551 44.8945 51.9749C43.3725 53.6754 41.6707 55.2062 39.8188 56.5403C37.8766 57.9589 35.8743 59.2822 33.8117 60.5103L29.4528 63.1026L29 69.1231L55.2427 77.6545Z" fill="#E84043"/>
<path fill-rule="evenodd" clip-rule="evenodd" d="M70.5892 60.7564V60.7266L70.5475 60.7444L70.5078 60.7325L74.6165 47.332L72.6703 42.1433L70.901 42.4093C70.8406 41.449 70.6198 40.5057 70.2476 39.6184L73.425 37.1273L65.2275 35.9899C63.8484 35.808 62.4486 35.8603 61.087 36.1447C59.0291 36.5429 57.0713 37.3473 55.3281 38.5108C53.4319 39.7744 51.7908 41.3839 50.4907 43.2549C49.0953 45.2409 48.0849 47.4708 47.5119 49.8291H47.5298L54.7165 51.7843L63.1205 45.212C63.1824 45.5606 63.2124 45.9141 63.2099 46.268C63.2099 47.59 62.6737 49.3011 61.5855 51.429C60.3269 53.8462 58.9099 56.1777 57.3437 58.4081C55.5684 60.9727 53.6356 63.6035 51.5451 66.3004L46.7236 72.4875V79.3258L53.8586 82.996L79.158 63.3269L70.5892 60.7564Z" fill="#075962"/>
<path d="M79.154 70.6395V63.317L65.5014 69.1488V69.0297C65.8311 68.6069 67.241 66.8661 69.6717 63.8926C72.009 61.0263 73.824 58.6384 75.1605 56.6792C76.4211 54.8464 77.4861 52.8864 78.3378 50.8315C79.1112 48.9976 79.516 47.0295 79.5293 45.0394C79.5293 42.9551 79.1083 41.2818 78.2603 40.0035C77.4198 38.7157 76.1349 37.7817 74.6501 37.3794C73.0615 36.9228 71.2087 36.8871 69.0898 37.292C66.9079 37.7115 64.8318 38.5625 62.9834 39.7951C60.9756 41.1322 59.2375 42.8352 57.86 44.8151C56.3817 46.9137 55.3088 49.2699 54.6965 51.7625L63.7162 51.4727C64.6396 47.5464 66.1706 45.3371 68.2716 44.817C69.3202 44.555 70.0887 44.7436 70.5831 45.3748C71.0776 46.006 71.3219 46.8774 71.3219 48.0129C71.3219 49.4023 70.7519 51.2225 69.6002 53.4755C68.268 56.0342 66.7674 58.5016 65.1082 60.8616C63.227 63.5757 61.1803 66.3599 58.9681 69.2143L53.8843 75.7647V83L79.154 70.6395Z" fill="#008C9B"/>
<path d="M86.9146 78.8376C86.9365 78.4883 86.9563 77.9702 86.9563 77.5136V71.3225H87.8559V74.5461H87.8778C88.0461 74.2457 88.2949 73.9981 88.5962 73.8312C88.8976 73.6643 89.2395 73.5847 89.5836 73.6013C90.8247 73.6013 91.7045 74.6612 91.6945 76.2194C91.6945 78.0535 90.5666 78.9647 89.4486 78.9647C89.106 78.9815 88.7659 78.8995 88.4687 78.7285C88.1715 78.5574 87.9299 78.3045 87.7725 78H87.7427L87.701 78.8475L86.9146 78.8376ZM87.8559 76.7812C87.8593 76.8954 87.8732 77.009 87.8976 77.1206C87.9694 77.4293 88.143 77.7048 88.3905 77.9028C88.6379 78.1009 88.9449 78.2099 89.2619 78.2123C90.2151 78.2123 90.783 77.4184 90.783 76.2413C90.783 75.2131 90.2667 74.3337 89.2937 74.3337C88.9673 74.342 88.653 74.4593 88.4011 74.6669C88.1492 74.8744 87.974 75.1604 87.9036 75.479C87.8737 75.604 87.8564 75.7317 87.8519 75.8602L87.8559 76.7812ZM93.3408 76.4437C93.3606 77.7042 94.147 78.2302 95.0565 78.2302C95.5339 78.2459 96.0088 78.155 96.4466 77.9642L96.6015 78.6332C96.076 78.857 95.5084 78.9653 94.9374 78.9508C93.3964 78.9508 92.475 77.9106 92.475 76.3703C92.475 74.83 93.3646 73.6032 94.8222 73.6032C96.4565 73.6032 96.8914 75.0761 96.8914 76.0209C96.8899 76.1663 96.88 76.3114 96.8616 76.4556L93.3408 76.4437ZM96.0077 75.7748C96.0196 75.1793 95.7714 74.2603 94.7467 74.2603C93.8253 74.2603 93.4222 75.1297 93.3567 75.7748H96.0077ZM99.1195 72.2356V73.7045H100.422V74.4151H99.1195V77.1802C99.1195 77.8173 99.2943 78.1726 99.8026 78.1726C99.9801 78.1751 100.157 78.1537 100.329 78.1091L100.371 78.8098C100.112 78.9024 99.8387 78.9455 99.5643 78.9369C99.3814 78.9471 99.1984 78.9168 99.0285 78.8482C98.8586 78.7795 98.7059 78.6743 98.5814 78.5399C98.3232 78.264 98.2299 77.8094 98.2299 77.204V74.4191H97.4534V73.7045H98.2299V72.4758L99.1195 72.2356ZM105.415 78.8376V78.4228L105.935 77.9067C107.182 76.6879 107.746 76.0408 107.754 75.2865C107.754 74.7764 107.514 74.3059 106.785 74.3059C106.399 74.3211 106.032 74.4715 105.746 74.7307L105.536 74.2523C105.923 73.9214 106.416 73.741 106.926 73.7442C107.978 73.7442 108.423 74.4846 108.423 75.2011C108.423 76.1261 107.768 76.8725 106.737 77.8908L106.34 78.26V78.2699H108.536V78.8317L105.415 78.8376ZM114.075 75.3838C114.075 74.7267 114.055 74.1928 114.033 73.7084H114.851L114.893 74.5878H114.913C115.09 74.274 115.351 74.0153 115.667 73.8402C115.982 73.665 116.34 73.5803 116.7 73.5953C117.909 73.5953 118.821 74.6454 118.821 76.2036C118.821 78.0476 117.725 78.9587 116.545 78.9587C116.24 78.9711 115.937 78.9032 115.667 78.7618C115.396 78.6203 115.168 78.4103 115.004 78.1528H114.982V80.9318H114.083L114.075 75.3838ZM114.974 76.7494C114.977 76.8781 114.991 77.0063 115.016 77.1325C115.089 77.4412 115.263 77.7165 115.51 77.9145C115.758 78.1124 116.065 78.2215 116.382 78.2243C117.343 78.2243 117.901 77.4184 117.901 76.2393C117.901 75.2111 117.375 74.3317 116.412 74.3317C116.087 74.3437 115.775 74.4638 115.526 74.6731C115.277 74.8824 115.105 75.1689 115.038 75.487C115.001 75.6108 114.979 75.7389 114.974 75.8681V76.7494ZM119.961 71.3225H120.87V78.8475H119.961V71.3225ZM125.174 78.8376L125.1 78.1925H125.07C124.895 78.4333 124.665 78.6283 124.398 78.761C124.132 78.8937 123.837 78.9602 123.539 78.9547C123.34 78.9672 123.14 78.938 122.952 78.8692C122.765 78.8003 122.594 78.6933 122.45 78.5548C122.306 78.4163 122.192 78.2494 122.116 78.0647C122.04 77.88 122.003 77.6815 122.008 77.4819C122.008 76.2413 123.084 75.5624 125.019 75.5743V75.4671C125.019 75.0443 124.903 74.2761 123.881 74.2761C123.418 74.2782 122.966 74.411 122.576 74.6592L122.378 74.0439C122.871 73.7386 123.441 73.5802 124.022 73.5874C125.553 73.5874 125.926 74.6592 125.926 75.6875V77.6049C125.919 78.0161 125.947 78.4272 126.01 78.8336L125.174 78.8376ZM125.039 76.2194C124.046 76.1996 122.918 76.3802 122.918 77.3767C122.907 77.4936 122.921 77.6115 122.96 77.7222C122.999 77.833 123.062 77.934 123.144 78.0184C123.225 78.1029 123.324 78.1687 123.433 78.2114C123.543 78.2541 123.66 78.2727 123.778 78.2659C124.044 78.2709 124.306 78.1903 124.523 78.036C124.741 77.8816 124.903 77.6617 124.987 77.4084C125.019 77.3124 125.037 77.212 125.039 77.1107V76.2194ZM127.634 73.7045L128.73 76.7355C128.845 77.075 128.968 77.4779 129.052 77.7856H129.072C129.165 77.4779 129.27 77.0849 129.393 76.7137L130.386 73.7045H131.347L129.983 77.3608C129.332 79.1195 128.887 80.0207 128.265 80.5725C127.952 80.8657 127.567 81.0712 127.149 81.168L126.921 80.3839C127.213 80.2851 127.482 80.1307 127.715 79.9293C128.047 79.6464 128.309 79.2903 128.48 78.8892C128.517 78.82 128.542 78.7447 128.553 78.6669C128.544 78.583 128.524 78.5008 128.492 78.4228L126.641 73.7045H127.634Z" fill="#02898F"/>
<path fill-rule="evenodd" clip-rule="evenodd" d="M100.833 75.9176C100.833 79.3695 103.574 82.1782 106.944 82.1782C110.314 82.1782 113.056 79.3695 113.056 75.9176C113.056 72.4657 110.314 69.655 106.944 69.655C103.574 69.655 100.833 72.4638 100.833 75.9176ZM101.322 75.9176C101.322 72.7417 103.844 70.1612 106.944 70.1612C110.044 70.1612 112.566 72.7417 112.566 75.9176C112.566 79.0936 110.044 81.674 106.944 81.674C103.844 81.674 101.322 79.0936 101.322 75.9176Z" fill="#457075"/>
<path d="M143.094 78.8376C143.113 78.4883 143.135 77.9702 143.135 77.5136V71.3225H144.035V74.5461H144.055C144.223 74.2455 144.473 73.9979 144.774 73.831C145.076 73.6641 145.418 73.5845 145.763 73.6013C147.004 73.6013 147.883 74.6612 147.871 76.2194C147.871 78.0535 146.745 78.9647 145.627 78.9647C145.285 78.983 144.944 78.9017 144.646 78.7305C144.349 78.5592 144.108 78.3055 143.951 78H143.922L143.88 78.8475L143.094 78.8376ZM144.035 76.7812C144.037 76.8954 144.051 77.0092 144.077 77.1206C144.148 77.4294 144.322 77.7051 144.569 77.9032C144.817 78.1013 145.124 78.2102 145.441 78.2123C146.392 78.2123 146.962 77.4184 146.962 76.2413C146.962 75.2131 146.446 74.3337 145.473 74.3337C145.146 74.3416 144.832 74.4588 144.58 74.6664C144.328 74.8741 144.153 75.1602 144.083 75.479C144.053 75.604 144.035 75.7317 144.031 75.8602L144.035 76.7812ZM149.526 76.4437C149.547 77.7042 150.334 78.2302 151.243 78.2302C151.721 78.2459 152.196 78.155 152.633 77.9642L152.788 78.6332C152.263 78.857 151.695 78.9653 151.124 78.9508C149.581 78.9508 148.662 77.9106 148.662 76.3703C148.662 74.83 149.551 73.6032 151.009 73.6032C152.643 73.6032 153.078 75.0761 153.078 76.0209C153.077 76.1664 153.067 76.3116 153.047 76.4556L149.526 76.4437ZM152.195 75.7748C152.195 75.1793 151.956 74.2603 150.934 74.2603C150.012 74.2603 149.609 75.1297 149.544 75.7748H152.195ZM155.298 72.2356V73.7045H156.601V74.4151H155.298V77.1802C155.298 77.8173 155.473 78.1726 155.98 78.1726C156.158 78.1753 156.335 78.1539 156.508 78.1091L156.55 78.8098C156.291 78.9022 156.018 78.9452 155.743 78.9369C155.559 78.9486 155.374 78.919 155.202 78.8503C155.03 78.7817 154.876 78.6756 154.75 78.5399C154.492 78.264 154.399 77.8094 154.399 77.204V74.4191H153.622V73.7045H154.399V72.4758L155.298 72.2356ZM161.594 78.8376V78.4228L162.112 77.9067C163.361 76.6879 163.925 76.0408 163.933 75.2865C163.933 74.7764 163.693 74.3059 162.962 74.3059C162.577 74.3215 162.21 74.4719 161.925 74.7307L161.715 74.2523C162.102 73.9211 162.595 73.7407 163.105 73.7442C164.157 73.7442 164.6 74.4846 164.6 75.2011C164.6 76.1261 163.947 76.8725 162.916 77.8908L162.519 78.26V78.2699H164.715V78.8317L161.594 78.8376ZM170.615 73.7045L171.278 76.3127C171.423 76.8844 171.556 77.4144 171.65 77.9444H171.681C171.795 77.4243 171.96 76.8745 172.126 76.3227L172.942 73.7045H173.709L174.483 76.2691C174.67 76.8844 174.815 77.4243 174.928 77.9444H174.958C175.055 77.3833 175.183 76.828 175.341 76.281L176.054 73.7005H176.954L175.341 78.8297H174.513L173.749 76.3822C173.572 75.8285 173.423 75.266 173.304 74.697H173.282C173.164 75.2704 173.012 75.8365 172.827 76.3921L172.021 78.8297H171.193L169.686 73.7045H170.615ZM178.88 72.2674C178.88 72.4169 178.821 72.5603 178.715 72.666C178.609 72.7717 178.466 72.8311 178.316 72.8311C178.167 72.8311 178.023 72.7717 177.917 72.666C177.812 72.5603 177.752 72.4169 177.752 72.2674C177.749 72.1911 177.762 72.115 177.789 72.0438C177.817 71.9726 177.858 71.9077 177.912 71.8531C177.965 71.7984 178.029 71.7553 178.099 71.7262C178.17 71.6971 178.246 71.6826 178.322 71.6838C178.398 71.6822 178.473 71.6965 178.544 71.7256C178.614 71.7547 178.677 71.7981 178.729 71.853C178.782 71.9078 178.822 71.973 178.848 72.0443C178.874 72.1157 178.885 72.1916 178.88 72.2674ZM177.865 78.8376V73.7045H178.777V78.8336L177.865 78.8376ZM180.286 75.094C180.286 74.564 180.276 74.1293 180.244 73.7045H181.051L181.104 74.5521H181.124C181.284 74.2547 181.524 74.0074 181.815 73.8372C182.107 73.667 182.44 73.5805 182.778 73.5874C183.471 73.5874 184.548 74.0121 184.548 75.7708V78.8336H183.638V75.8879C183.638 75.0602 183.338 74.3714 182.478 74.3714C182.199 74.3783 181.93 74.4749 181.711 74.6469C181.491 74.8189 181.333 75.0571 181.259 75.3262C181.214 75.4667 181.193 75.6135 181.196 75.7609V78.8436H180.286V75.094Z" fill="#02898F"/>
<path fill-rule="evenodd" clip-rule="evenodd" d="M157.197 75.9276C157.197 79.3814 159.937 82.1902 163.307 82.1902C166.677 82.1902 169.42 79.3814 169.42 75.9276C169.42 72.4737 166.677 69.667 163.307 69.667C159.937 69.667 157.197 72.4757 157.197 75.9276ZM157.685 75.9276C157.685 72.7516 160.207 70.1712 163.307 70.1712C166.407 70.1712 168.931 72.7516 168.931 75.9276C168.931 79.1035 166.409 81.684 163.307 81.684C160.205 81.684 157.681 79.1055 157.681 75.9276H157.685Z" fill="#457075"/>
<path d="M168.165 63.1841C167.914 63.1906 167.666 63.1432 167.436 63.0453C167.205 62.9474 166.999 62.8011 166.83 62.6164C166.478 62.2482 166.287 61.7557 166.298 61.2467C166.294 61.0073 166.339 60.7696 166.43 60.5484C166.522 60.3271 166.658 60.127 166.83 59.9605C167 59.7867 167.205 59.6499 167.43 59.5584C167.656 59.4668 167.898 59.4226 168.141 59.4285C168.388 59.421 168.634 59.4644 168.863 59.5559C169.093 59.6474 169.301 59.7851 169.475 59.9605C169.647 60.127 169.783 60.3271 169.875 60.5484C169.966 60.7696 170.012 61.0073 170.007 61.2467C170.016 61.7451 169.839 62.2288 169.511 62.6044C169.345 62.7968 169.138 62.949 168.905 63.0494C168.671 63.1498 168.418 63.1959 168.165 63.1841ZM182.482 50.6787C182.009 50.27 181.453 49.968 180.852 49.7934C180.299 49.6326 179.726 49.5491 179.15 49.5453C178.783 49.5465 178.417 49.598 178.064 49.6982C177.709 49.7976 177.379 49.9708 177.095 50.2063C176.799 50.4597 176.561 50.7738 176.398 51.1273C176.207 51.558 176.114 52.026 176.128 52.497V57.245C176.114 57.7122 176.206 58.1765 176.398 58.6027C176.564 58.9542 176.806 59.2646 177.107 59.5119C177.394 59.745 177.723 59.9215 178.076 60.0319C178.424 60.1403 178.786 60.1958 179.15 60.1967C179.714 60.1948 180.274 60.1153 180.816 59.9605C181.432 59.7738 182.006 59.469 182.506 59.0633L184.041 61.5663C183.393 62.1014 182.647 62.5058 181.845 62.7573C180.96 63.0438 180.035 63.1872 179.105 63.1821C178.336 63.1824 177.572 63.0708 176.837 62.8506C176.122 62.6439 175.45 62.3126 174.851 61.872C174.267 61.4366 173.783 60.8808 173.433 60.2423C173.058 59.5338 172.872 58.741 172.891 57.9398V51.8419C172.873 51.0499 173.056 50.2662 173.421 49.5632C173.764 48.9242 174.237 48.3648 174.811 47.9216C175.403 47.4726 176.072 47.1361 176.785 46.9291C177.521 46.7096 178.285 46.5986 179.053 46.5996C179.976 46.5962 180.894 46.7231 181.781 46.9768C182.614 47.206 183.384 47.6176 184.037 48.1816L182.482 50.6787ZM198.55 57.8246C198.567 58.6243 198.397 59.4169 198.053 60.1391C197.732 60.7892 197.274 61.3616 196.709 61.8164C196.121 62.2855 195.446 62.6342 194.723 62.8426C193.144 63.3005 191.467 63.3005 189.888 62.8426C189.165 62.6342 188.49 62.2855 187.902 61.8164C187.337 61.3616 186.878 60.7892 186.557 60.1391C186.21 59.4177 186.037 58.6251 186.051 57.8246V51.8419C186.031 51.0803 186.194 50.3251 186.526 49.6393C186.858 48.9535 187.35 48.3571 187.959 47.8998C188.561 47.4489 189.241 47.1125 189.965 46.9073C190.724 46.6867 191.51 46.5757 192.3 46.5778C193.092 46.576 193.878 46.6952 194.634 46.9311C195.358 47.152 196.037 47.5001 196.639 47.9593C197.247 48.4248 197.737 49.0267 198.069 49.7164C198.4 50.4061 198.565 51.1641 198.55 51.9293V57.8246ZM195.313 52.5029C195.326 52.0368 195.237 51.5734 195.053 51.1452C194.893 50.7959 194.659 50.4856 194.368 50.2361C194.086 50.0016 193.761 49.8249 193.41 49.716C193.055 49.6064 192.684 49.5509 192.312 49.5513C191.935 49.5513 191.561 49.6069 191.2 49.716C190.846 49.8225 190.517 49.9994 190.233 50.2361C189.94 50.4844 189.706 50.795 189.548 51.1452C189.363 51.5732 189.274 52.0368 189.288 52.5029V57.251C189.275 57.7209 189.363 58.1882 189.548 58.6206C189.704 58.9754 189.938 59.2903 190.233 59.5416C190.516 59.7775 190.845 59.9507 191.2 60.0498C191.562 60.1513 191.936 60.2027 192.312 60.2026C192.684 60.2031 193.053 60.1516 193.41 60.0498C193.773 59.9483 194.109 59.7674 194.393 59.5202C194.677 59.273 194.902 58.9657 195.053 58.6206C195.236 58.1879 195.325 57.7209 195.313 57.251V52.5029ZM213.67 54.2735L212.163 57.2748L210.324 60.7684H207.99L206.175 57.3443L204.587 54.2735H204.493V63.0074H201.256V46.7306H204.235L207.148 52.4791L209.114 56.4947H209.255L211.241 52.3858L214.021 46.7406H217V63.0173H213.763V54.2834L213.67 54.2735Z" fill="#345961"/>
</svg>
