<svg width="244" height="117" viewBox="0 0 244 117" fill="none" xmlns="http://www.w3.org/2000/svg">
<rect x="1" y="1" width="242" height="115" rx="7" fill="#EDF1F2"/>
<rect x="1" y="1" width="242" height="115" rx="7" stroke="#08616A" stroke-width="2"/>
<path d="M113.303 46.7197L109.81 65.7008H119.639L118.434 72.2672H101.867L106.565 46.7197H113.303Z" fill="#4CA421"/>
<path fill-rule="evenodd" clip-rule="evenodd" d="M130.663 52.088L135.355 54.1712L134.47 46.52H141.665L145.71 72.2346H137.909L137.475 68.5866H129.061L127.075 72.2346H118.948L130.663 52.088ZM133.431 60.2807C134.587 58.113 135.489 56.2477 136.139 54.6819C136.157 55.9377 136.242 57.1916 136.392 58.4384L136.898 63.0253H131.95L133.431 60.2807Z" fill="#4CA421"/>
<path d="M152.743 46.7197H164.324C165.283 46.7197 166.114 46.7552 166.816 46.8272C167.541 46.8752 168.302 47.0192 169.097 47.2573C169.916 47.4973 170.583 47.8314 171.097 48.2624C171.636 48.6695 172.08 49.2436 172.431 49.9847C172.782 50.7258 172.958 51.6109 172.958 52.64C172.958 54.1232 172.536 55.4029 171.694 56.48C170.851 57.5552 169.752 58.2138 168.395 58.4528C170.711 59.29 171.869 61.0362 171.869 63.6916C171.869 66.1559 170.993 68.2132 169.238 69.8644C168.466 70.5815 167.541 71.1316 166.465 71.5146C165.412 71.8967 164.489 72.1242 163.693 72.1962C162.617 72.2508 161.541 72.2748 160.464 72.2682H147.409L152.743 46.7197ZM158.955 52.5325L158.113 56.4791H162.114C163.073 56.4791 163.844 56.3351 164.43 56.049C165.015 55.738 165.306 55.1274 165.306 54.2192C165.306 53.8122 165.213 53.4896 165.026 53.2496C164.862 52.9866 164.593 52.8196 164.219 52.7476C163.919 52.6661 163.615 52.6061 163.307 52.568C163.096 52.544 162.768 52.5325 162.324 52.5325H158.955ZM157.095 61.4317L156.113 66.2029H160.394C161.845 66.2029 162.827 66.0244 163.341 65.6653C164.043 65.1632 164.394 64.4576 164.394 63.5485C164.394 63.0464 164.289 62.6394 164.079 62.3284C163.868 62.0173 163.541 61.8023 163.096 61.6823C162.741 61.5755 162.377 61.5035 162.008 61.4672C161.587 61.4387 161.166 61.4265 160.745 61.4308H157.095V61.4317ZM204.06 46.7197L202.618 52.9271H188.041L187.3 56.121H200.825L199.46 62.0413H185.936L185.079 65.7728H200.045L198.564 72.2682H175.179L181.064 46.7197H204.06ZM213.593 46.7197L209.664 65.7008H220.722L219.365 72.2672H200.728L206.012 46.7197H213.593Z" fill="#4CA421"/>
<path d="M28.5334 46.7197H40.5488C41.5434 46.7197 42.4054 46.7552 43.1331 46.8272C43.8858 46.8752 44.6749 47.0192 45.4995 47.2573C46.3491 47.4973 47.0413 47.8314 47.575 48.2624C48.1328 48.6695 48.5946 49.2436 48.9584 49.9847C49.3232 50.7258 49.5046 51.6109 49.5046 52.64C49.5046 54.1232 49.0678 55.4029 48.1942 56.48C47.3206 57.5552 46.1792 58.2138 44.7718 58.4528C47.1747 59.29 48.3757 61.0362 48.3757 63.6916C48.3757 66.1559 47.4656 68.2132 45.6454 69.8644C44.8448 70.5815 43.8858 71.1316 42.7693 71.5146C41.6768 71.8967 40.7187 72.1242 39.8931 72.1962C39.0675 72.2442 37.952 72.2682 36.5437 72.2682H23L28.5334 46.7197ZM34.9779 52.5325L34.1043 56.4791H38.2544C39.249 56.4791 40.0496 56.3351 40.6573 56.049C41.264 55.738 41.5674 55.1274 41.5674 54.2192C41.5674 53.8122 41.4694 53.4896 41.2755 53.2496C41.1056 52.9866 40.8272 52.8196 40.4384 52.7476C40.1274 52.6661 39.8111 52.6062 39.4918 52.568C39.1528 52.5395 38.8125 52.5276 38.4723 52.5325H34.9779ZM33.0483 61.4317L32.0288 66.2029H36.4698C37.975 66.2029 38.9946 66.0244 39.5283 65.6653C40.256 65.1632 40.6208 64.4576 40.6208 63.5485C40.6208 63.0464 40.5114 62.6394 40.2925 62.3284C40.0746 62.0173 39.7347 61.8023 39.273 61.6823C38.9045 61.5755 38.5269 61.5035 38.145 61.4672C37.7088 61.4387 37.2717 61.4265 36.8346 61.4308H33.0483V61.4317ZM77.0701 46.7197L75.7232 52.9271H62.1075L61.4163 56.121H74.049L72.7741 62.0413H60.1424L59.3418 65.7728H73.3213L71.9389 72.2682H50.0931L55.5901 46.7197H77.0691H77.0701ZM101.867 46.7197L100.446 53.2141H93.3114L89.1978 72.2682H81.2605L85.375 53.2141H78.0214L79.4038 46.7197H101.867Z" fill="#23262D"/>
</svg>
