<svg width="244" height="117" viewBox="0 0 244 117" fill="none" xmlns="http://www.w3.org/2000/svg">
<rect x="1" y="1" width="242" height="115" rx="7" fill="#EDF1F2"/>
<rect x="1" y="1" width="242" height="115" rx="7" stroke="#08616A" stroke-width="2"/>
<g clip-path="url(#clip0_4812_1923)">
<path d="M94.8774 63.0136V37.0286H112.033C112.852 37.0273 113.665 37.1691 114.435 37.4474C115.187 37.7153 115.883 38.119 116.488 38.6384C117.082 39.1457 117.569 39.765 117.922 40.4606C118.289 41.1866 118.476 41.9899 118.466 42.8028V47.6024C118.472 48.4555 118.267 49.2968 117.868 50.0518C118.267 50.8069 118.472 51.6482 118.466 52.5013V57.2493C118.475 58.0684 118.288 58.8779 117.922 59.6114C117.572 60.3088 117.085 60.9287 116.488 61.4335C115.877 61.9363 115.182 62.328 114.435 62.5908C113.665 62.8691 112.852 63.0109 112.033 63.0096L94.8774 63.0136ZM110.503 43.7199H102.519V46.737H110.513C110.583 46.7466 110.654 46.7285 110.71 46.6865C110.766 46.6445 110.804 46.582 110.814 46.5127C110.816 46.4882 110.816 46.4637 110.814 46.4392V44.0216C110.824 43.9516 110.807 43.8804 110.764 43.8235C110.722 43.7666 110.659 43.7287 110.589 43.7179C110.561 43.7129 110.532 43.7129 110.503 43.7179V43.7199ZM110.685 53.3667H102.519V56.3818H110.685C110.747 56.3905 110.81 56.3745 110.861 56.3374C110.911 56.3004 110.945 56.2451 110.956 56.1833C110.958 56.1609 110.958 56.1383 110.956 56.1159V53.6367C110.965 53.5746 110.949 53.5114 110.912 53.4609C110.874 53.4103 110.819 53.3765 110.756 53.3667C110.734 53.3629 110.711 53.3629 110.689 53.3667H110.685ZM128.117 43.9323V46.3737C128.112 46.4086 128.114 46.444 128.123 46.4781C128.132 46.5122 128.147 46.5442 128.168 46.5723C128.19 46.6003 128.216 46.6239 128.247 46.6416C128.277 46.6593 128.311 46.6708 128.346 46.6755C128.368 46.6784 128.39 46.6784 128.412 46.6755H138.937C138.764 47.6705 138.492 48.6459 138.125 49.5874C137.816 50.3797 137.349 51.1011 136.751 51.7073C136.149 52.2905 135.423 52.7297 134.626 52.9916C133.631 53.3031 132.591 53.4499 131.549 53.4263C131.025 53.4263 130.497 53.4044 129.955 53.3647C129.414 53.325 128.894 53.3052 128.372 53.3052C128.191 53.3052 128.099 53.4064 128.099 53.6069V56.0504C128.089 56.1201 128.107 56.1911 128.149 56.2476C128.191 56.3042 128.254 56.3418 128.324 56.3521C128.35 56.356 128.376 56.356 128.402 56.3521H144.285C144.131 57.2183 143.899 58.0687 143.59 58.8928C143.306 59.6656 142.893 60.3851 142.369 61.0207C141.854 61.6353 141.211 62.1316 140.485 62.4756C139.632 62.8544 138.704 63.0375 137.77 63.0116L120.669 62.9878V42.7929C120.654 41.967 120.84 41.15 121.21 40.411C121.561 39.7182 122.048 39.1037 122.644 38.6047C123.248 38.099 123.937 37.7045 124.68 37.4395C125.445 37.1589 126.254 37.0171 127.07 37.0207H144.285C144.129 37.8923 143.897 38.7484 143.59 39.5793C143.31 40.3534 142.897 41.0728 142.369 41.7051C141.85 42.3132 141.208 42.8049 140.485 43.1482C139.632 43.5291 138.705 43.7143 137.77 43.6901L128.41 43.6603C128.211 43.6603 128.117 43.7516 128.117 43.9323ZM155.296 43.9581C155.301 43.9233 155.299 43.888 155.29 43.8542C155.281 43.8204 155.265 43.7887 155.243 43.7609C155.222 43.7332 155.195 43.7101 155.165 43.6928C155.134 43.6755 155.1 43.6645 155.065 43.6603C155.042 43.6564 155.017 43.6564 154.994 43.6603H144.438C144.608 42.7818 144.851 41.9188 145.163 41.0799C145.439 40.3138 145.843 39.5998 146.358 38.9679C146.87 38.3562 147.514 37.8682 148.242 37.5407C149.104 37.1729 150.036 36.9954 150.973 37.0207H173.663C173.508 37.8893 173.27 38.7413 172.954 39.5654C172.663 40.332 172.245 41.0446 171.717 41.6734C171.195 42.285 170.547 42.7773 169.817 43.1164C168.968 43.4933 168.046 43.6764 167.117 43.6524H163.105C163.071 43.647 163.036 43.6486 163.002 43.6569C162.968 43.6652 162.936 43.6801 162.908 43.7008C162.88 43.7215 162.857 43.7475 162.839 43.7774C162.821 43.8072 162.81 43.8403 162.805 43.8747C162.801 43.8997 162.801 43.9251 162.805 43.9501V57.2493C162.805 58.3053 162.578 59.1846 162.124 59.8932C161.673 60.5924 161.074 61.1835 160.367 61.6241C159.623 62.0807 158.81 62.4158 157.959 62.6166C157.083 62.8367 156.194 62.9998 155.296 63.1049V43.9581Z" fill="#095860"/>
<path fill-rule="evenodd" clip-rule="evenodd" d="M58.0171 61.4574C60.3695 60.4246 62.6473 59.2308 64.8343 57.8844C66.5908 56.7752 68.1357 55.3638 69.397 53.7161C70.6535 52.0667 71.3904 50.0826 71.5141 48.0153C71.6774 45.679 71.2193 43.5829 70.1479 41.7448C69.0685 39.9113 67.521 38.3957 65.6628 37.3522C63.6994 36.237 61.5403 35.506 59.3016 35.1985C58.2361 35.0329 57.1568 34.9711 56.0792 35.0139C55.7427 35.0298 55.4121 35.0615 55.0834 35.1012L49.4512 35.5955L45.958 40.401L45.9938 41.5344C45.792 41.9678 45.6138 42.4118 45.4601 42.8644L46.0436 43.1383L46.1711 47.1082L52.7294 46.207C53.8586 43.0311 55.7466 41.729 57.9075 42.118C59.0288 42.3165 59.8433 42.8445 60.3393 43.6921C60.851 44.5965 61.0707 45.6362 60.9686 46.6695C60.867 48.059 60.1042 49.5735 58.6922 51.1674C57.1823 52.8451 55.4942 54.3546 53.6575 55.6692C51.7323 57.0693 49.746 58.3734 47.6986 59.5816L43.3689 62.1481L42.9208 68.0851L68.9569 76.4993L69.5384 68.2538L53.4583 63.6527V63.5415C53.8108 63.3669 55.3184 62.6801 58.0171 61.4574Z" fill="#C6211C"/>
<path d="M62.3189 77.6545L62.9164 69.2939L46.659 64.6293V64.5162C47.0075 64.3395 48.5251 63.6428 51.2576 62.4022C54.0458 61.1338 56.364 59.921 58.1505 58.7757C59.9275 57.6478 61.4892 56.2142 62.763 54.5418C64.0338 52.8683 64.7781 50.8568 64.902 48.7617C65.0693 46.3916 64.6053 44.2677 63.5238 42.4098C62.4343 40.5513 60.8694 39.0143 58.989 37.9556C57.0031 36.8245 54.818 36.0833 52.5521 35.7722C50.2645 35.4334 48.1759 35.5346 46.2866 36.0759C44.4882 36.5711 42.8442 37.5105 41.5068 38.8071C40.157 40.1299 39.1478 41.7581 38.5652 43.5531L46.179 47.0625C47.3182 43.831 48.9673 42.4019 51.1461 42.7969C52.2813 42.9954 53.1038 43.5333 53.6057 44.3848C54.1233 45.3046 54.345 46.3605 54.241 47.4099C54.1374 48.8311 53.3667 50.3556 51.9407 51.9753C50.4149 53.6764 48.708 55.2072 46.8502 56.5407C44.9024 57.9606 42.8942 59.2839 40.8256 60.5106L36.4541 63.1029L36 69.1232L62.3189 77.6545Z" fill="#E84043"/>
<path fill-rule="evenodd" clip-rule="evenodd" d="M77.7099 60.7566V60.7269L77.6681 60.7447L77.6282 60.7328L81.7488 47.3324L79.7971 42.1458L78.0226 42.4098C77.9631 41.4494 77.7415 40.5059 77.3673 39.6189L80.5539 37.1278L72.3326 35.9924C70.9496 35.8095 69.5455 35.8618 68.1801 36.1473C66.1162 36.5452 64.1526 37.3496 62.4045 38.5133C60.5023 39.7765 58.8564 41.386 57.553 43.2573C56.1535 45.2433 55.1401 47.4732 54.5656 49.8315H54.5835L61.7911 51.7867L70.2195 45.2145C70.2813 45.5631 70.3113 45.9165 70.3091 46.2705C70.3091 47.5925 69.7714 49.3035 68.68 51.4313C67.4178 53.8486 65.9967 56.18 64.4259 58.4104C62.6455 60.975 60.707 63.6057 58.6105 66.3026L53.7749 72.4877V79.3258L60.9307 82.996L86.3036 63.3271L77.7099 60.7566Z" fill="#075962"/>
<path d="M86.2996 70.6397V63.3172L72.6074 69.1411V69.022C72.938 68.5992 74.352 66.8584 76.7897 63.8849C79.1338 61.0187 80.9541 58.6308 82.2945 56.6716C83.5585 54.8386 84.6265 52.8787 85.481 50.824C86.2577 48.9904 86.6637 47.0221 86.676 45.0319C86.676 42.9477 86.2538 41.2744 85.4034 39.9961C84.5594 38.7112 83.2706 37.7807 81.7826 37.3819C80.1894 36.9254 78.3312 36.8896 76.2062 37.2946C74.0179 37.7141 71.9358 38.5651 70.082 39.7976C68.068 41.1343 66.3248 42.8373 64.9437 44.8175C63.4618 46.9165 62.3859 49.2726 61.7711 51.7648L70.8169 51.475C71.743 47.5488 73.2785 45.3396 75.3856 44.8195C76.4372 44.5575 77.2079 44.7461 77.7039 45.3773C78.1998 46.0085 78.4447 46.8799 78.4447 48.0153C78.4447 49.4047 77.8692 51.2256 76.718 53.4779C75.3822 56.0366 73.8772 58.504 72.213 60.8638C70.3263 63.5779 68.2737 66.3622 66.055 69.2165L60.9565 75.7668V83.002L86.2996 70.6397Z" fill="#008C9B"/>
<path d="M94.0828 78.8376C94.1047 78.4883 94.1246 77.9702 94.1246 77.5136V71.3246H95.0268V74.5481H95.0487C95.2175 74.2477 95.467 74.0001 95.7692 73.8332C96.0715 73.6663 96.4144 73.5867 96.7595 73.6033C98.0042 73.6033 98.8865 74.6633 98.8765 76.2214C98.8765 78.0555 97.7453 78.9666 96.624 78.9666C96.2805 78.9835 95.9394 78.9015 95.6413 78.7305C95.3433 78.5594 95.1009 78.3065 94.9431 78.0019H94.9133L94.8714 78.8495L94.0828 78.8376ZM95.0268 76.7812C95.0306 76.8954 95.0446 77.0089 95.0686 77.1206C95.1412 77.4289 95.3155 77.7041 95.5636 77.902C95.8116 78.0999 96.1191 78.2092 96.4368 78.2124C97.3928 78.2124 97.9624 77.4184 97.9624 76.2413C97.9624 75.2131 97.4446 74.3338 96.4687 74.3338C96.1414 74.3424 95.8265 74.4598 95.5739 74.6673C95.3213 74.8748 95.1455 75.1606 95.0746 75.4791C95.0453 75.6042 95.028 75.7318 95.0228 75.8602L95.0268 76.7812ZM100.528 76.4438C100.547 77.7042 101.336 78.2302 102.248 78.2302C102.727 78.2461 103.203 78.1552 103.642 77.9642L103.8 78.6332C103.272 78.8569 102.702 78.9652 102.129 78.9508C100.583 78.9508 99.6592 77.9106 99.6592 76.3703C99.6592 74.83 100.551 73.6033 102.013 73.6033C103.654 73.6033 104.091 75.0781 104.091 76.021C104.089 76.1663 104.079 76.3114 104.061 76.4557L100.528 76.4438ZM103.202 75.7748C103.214 75.1794 102.965 74.2603 101.938 74.2603C101.014 74.2603 100.609 75.1297 100.543 75.7748H103.202ZM106.325 72.2357V73.7065H107.632V74.4171H106.325V77.1802C106.325 77.8173 106.5 78.1727 107.01 78.1727C107.188 78.1743 107.366 78.1529 107.538 78.1091L107.58 78.8098C107.321 78.9024 107.046 78.9455 106.771 78.9369C106.586 78.9486 106.401 78.919 106.228 78.8503C106.056 78.7817 105.901 78.6756 105.775 78.5399C105.517 78.264 105.423 77.8094 105.423 77.204V74.4251H104.644V73.7065H105.423V72.4759L106.325 72.2357ZM112.638 78.8376V78.4228L113.16 77.9067C114.411 76.6879 114.977 76.0408 114.985 75.2865C114.985 74.7764 114.744 74.306 114.013 74.306C113.626 74.3204 113.257 74.4709 112.971 74.7308L112.76 74.2524C113.148 73.9207 113.643 73.7402 114.154 73.7442C115.21 73.7442 115.656 74.4846 115.656 75.2012C115.656 76.1262 114.998 76.8725 113.965 77.8908L113.567 78.26V78.2719H115.769V78.8336L112.638 78.8376ZM121.324 75.3838C121.324 74.7268 121.304 74.1928 121.282 73.7085H122.102L122.144 74.5878H122.164C122.343 74.2742 122.604 74.0156 122.92 73.8405C123.237 73.6654 123.595 73.5806 123.957 73.5954C125.17 73.5954 126.084 74.6454 126.084 76.2036C126.084 78.0476 124.984 78.9587 123.801 78.9587C123.495 78.9715 123.191 78.9038 122.92 78.7623C122.649 78.6209 122.42 78.4106 122.256 78.1528H122.236V80.9317H121.334L121.324 75.3838ZM122.226 76.7494C122.228 76.8782 122.242 77.0064 122.268 77.1325C122.34 77.4412 122.515 77.7165 122.764 77.9145C123.012 78.1125 123.32 78.2215 123.638 78.2243C124.602 78.2243 125.162 77.4184 125.162 76.2393C125.162 75.2111 124.634 74.3318 123.668 74.3318C123.283 74.3749 122.927 74.5533 122.663 74.8349C122.398 75.1165 122.243 75.4829 122.226 75.8681V76.7494ZM127.227 71.3246H128.139V78.8475H127.227V71.3246ZM132.455 78.8376L132.381 78.1925H132.351C132.176 78.4333 131.944 78.6283 131.677 78.761C131.41 78.8937 131.114 78.9602 130.816 78.9547C130.433 78.9786 130.057 78.8501 129.769 78.5973C129.481 78.3446 129.306 77.9883 129.282 77.6069V77.4819C129.282 76.2413 130.362 75.5624 132.301 75.5744V75.4672C132.301 75.0444 132.186 74.2762 131.16 74.2762C130.697 74.2781 130.243 74.4109 129.852 74.6593L129.653 74.044C130.147 73.7378 130.719 73.5794 131.302 73.5874C132.837 73.5874 133.212 74.6593 133.212 75.6875V77.605C133.204 78.0162 133.232 78.4273 133.295 78.8336L132.455 78.8376ZM132.319 76.2214C131.324 76.1996 130.192 76.3802 130.192 77.3767C130.172 77.592 130.239 77.8064 130.378 77.9727C130.516 78.1391 130.715 78.2438 130.931 78.264C130.972 78.2669 131.014 78.2669 131.055 78.264C131.322 78.2686 131.584 78.1879 131.802 78.0336C132.021 77.8793 132.184 77.6596 132.268 77.4065C132.3 77.3104 132.317 77.21 132.319 77.1087V76.2214ZM134.922 73.7065L136.022 76.7375C136.137 77.077 136.261 77.4799 136.344 77.7876H136.364C136.458 77.4799 136.563 77.0869 136.687 76.7157L137.683 73.7065H138.647L137.278 77.3628C136.625 79.1215 136.179 80.0226 135.556 80.5744C135.242 80.8674 134.855 81.0728 134.436 81.1699L134.207 80.3759C134.5 80.2772 134.77 80.1228 135.004 79.9214C135.337 79.6382 135.599 79.2822 135.771 78.8813C135.808 78.812 135.833 78.7367 135.844 78.659C135.835 78.5752 135.814 78.4931 135.783 78.4148L133.927 73.7065H134.922Z" fill="#02898F"/>
<path fill-rule="evenodd" clip-rule="evenodd" d="M108.044 75.9177C108.044 79.3695 110.792 82.1782 114.172 82.1782C117.552 82.1782 120.302 79.3695 120.302 75.9177C120.302 72.4658 117.552 69.6552 114.172 69.6552C110.792 69.6552 108.044 72.4639 108.044 75.9177ZM108.534 75.9177C108.534 72.7417 111.063 70.1613 114.172 70.1613C117.281 70.1613 119.81 72.7417 119.81 75.9177C119.81 79.0936 117.281 81.674 114.172 81.674C111.063 81.674 108.534 79.0936 108.534 75.9177Z" fill="#457075"/>
<path d="M150.427 78.8376C150.447 78.4883 150.469 77.9702 150.469 77.5136V71.3246H151.371V74.5481H151.391C151.56 74.2475 151.81 73.9999 152.113 73.833C152.415 73.6661 152.758 73.5866 153.104 73.6033C154.348 73.6033 155.231 74.6633 155.219 76.2214C155.219 78.0555 154.09 78.9666 152.968 78.9666C152.624 78.9853 152.283 78.904 151.984 78.7328C151.686 78.5615 151.444 78.3077 151.287 78.0019H151.257L151.216 78.8495L150.427 78.8376ZM151.371 76.7812C151.373 76.8955 151.387 77.0093 151.413 77.1206C151.485 77.4294 151.659 77.7052 151.907 77.9032C152.155 78.1013 152.463 78.2102 152.781 78.2124C153.735 78.2124 154.307 77.4184 154.307 76.2413C154.307 75.2131 153.789 74.3338 152.813 74.3338C152.485 74.3417 152.17 74.4589 151.917 74.6665C151.665 74.8741 151.489 75.1602 151.419 75.4791C151.389 75.604 151.371 75.7317 151.367 75.8602L151.371 76.7812ZM156.878 76.4438C156.9 77.7042 157.688 78.2302 158.601 78.2302C159.079 78.2457 159.555 78.1549 159.995 77.9642L160.15 78.6332C159.623 78.8567 159.054 78.965 158.481 78.9508C156.934 78.9508 156.011 77.9106 156.011 76.3703C156.011 74.83 156.904 73.6033 158.365 73.6033C160.005 73.6033 160.441 75.0781 160.441 76.021C160.439 76.1664 160.428 76.3116 160.409 76.4557L156.878 76.4438ZM159.554 75.7748C159.554 75.1794 159.315 74.2603 158.29 74.2603C157.366 74.2603 156.961 75.1297 156.896 75.7748H159.554ZM162.665 72.2357V73.7065H163.972V74.4171H162.665V77.1802C162.665 77.8173 162.841 78.1727 163.348 78.1727C163.527 78.1754 163.705 78.154 163.878 78.1091L163.92 78.8098C163.661 78.9024 163.387 78.9455 163.111 78.9369C162.926 78.9489 162.741 78.9194 162.568 78.8507C162.396 78.7821 162.241 78.6758 162.116 78.5399C161.857 78.264 161.763 77.8094 161.763 77.204V74.4251H160.984V73.7065H161.763V72.4759L162.665 72.2357ZM168.981 78.8376V78.4228L169.5 77.9067C170.753 76.6879 171.319 76.0408 171.327 75.2865C171.327 74.7764 171.086 74.306 170.353 74.306C169.967 74.3217 169.599 74.4721 169.313 74.7308L169.102 74.2524C169.49 73.9207 169.985 73.7402 170.496 73.7442C171.552 73.7442 171.996 74.4846 171.996 75.2012C171.996 76.1262 171.341 76.8725 170.307 77.8908L169.909 78.26V78.2719H172.111V78.8336L168.981 78.8376ZM178.029 73.7065L178.694 76.3147C178.839 76.8864 178.973 77.4164 179.066 77.9464H179.098C179.212 77.4263 179.377 76.8765 179.544 76.3247L180.363 73.7065H181.131L181.908 76.2711C182.095 76.8864 182.241 77.4263 182.354 77.9464H182.382C182.479 77.3853 182.608 76.8299 182.766 76.283L183.481 73.7026H184.384L182.766 78.8317H181.936L181.169 76.3842C180.992 75.8305 180.843 75.268 180.723 74.699H180.701C180.583 75.2726 180.431 75.8386 180.245 76.3941L179.437 78.8317H178.606L177.096 73.7065H178.029ZM186.318 72.2674C186.318 72.4169 186.258 72.5603 186.152 72.666C186.046 72.7718 185.902 72.8312 185.752 72.8312C185.602 72.8312 185.458 72.7718 185.352 72.666C185.246 72.5603 185.186 72.4169 185.186 72.2674C185.181 72.1186 185.235 71.9736 185.336 71.8643C185.438 71.7549 185.579 71.6901 185.728 71.6839H185.768C185.84 71.6823 185.912 71.6949 185.979 71.721C186.046 71.747 186.108 71.7861 186.16 71.8359C186.212 71.8856 186.254 71.9452 186.283 72.011C186.312 72.0769 186.328 72.1478 186.329 72.2198C186.327 72.2359 186.323 72.2518 186.318 72.2674ZM185.3 78.8376V73.7065H186.214V78.8356L185.3 78.8376ZM187.728 75.096C187.728 74.566 187.718 74.1313 187.686 73.7065H188.494L188.548 74.5541H188.568C188.729 74.2569 188.969 74.0097 189.262 73.8395C189.554 73.6693 189.888 73.5828 190.227 73.5894C190.922 73.5894 192.002 74.0142 192.002 75.7729V78.8356H191.089V75.89C191.089 75.0622 190.789 74.3735 189.926 74.3735C189.647 74.3806 189.377 74.4773 189.156 74.6493C188.936 74.8212 188.777 75.0593 188.703 75.3282C188.659 75.4689 188.638 75.6156 188.64 75.7629V78.8456H187.728V75.096Z" fill="#02898F"/>
<path fill-rule="evenodd" clip-rule="evenodd" d="M164.571 75.9276C164.571 79.3814 167.32 82.1902 170.699 82.1902C174.079 82.1902 176.83 79.3814 176.83 75.9276C176.83 72.4738 174.079 69.6671 170.699 69.6671C167.32 69.6671 164.571 72.4758 164.571 75.9276ZM165.061 75.9276C165.061 72.7517 167.591 70.1713 170.699 70.1713C173.808 70.1713 176.34 72.7517 176.34 75.9276C176.34 79.1036 173.81 81.684 170.699 81.684C167.589 81.684 165.057 79.1036 165.057 75.9276H165.061Z" fill="#457075"/>
<path d="M175.571 63.1862C175.32 63.1927 175.071 63.1454 174.84 63.0474C174.609 62.9495 174.402 62.8032 174.233 62.6185C173.881 62.2499 173.689 61.7577 173.699 61.2489C173.695 61.0095 173.74 60.7719 173.832 60.5507C173.924 60.3295 174.06 60.1293 174.233 59.9626C174.403 59.7887 174.608 59.6517 174.834 59.5602C175.06 59.4687 175.303 59.4246 175.547 59.4307C175.795 59.4228 176.042 59.466 176.272 59.5576C176.502 59.6491 176.711 59.787 176.885 59.9626C177.058 60.1293 177.194 60.3295 177.286 60.5507C177.378 60.7719 177.423 61.0095 177.419 61.2489C177.427 61.7472 177.25 62.2309 176.921 62.6066C176.755 62.7988 176.547 62.9509 176.313 63.0513C176.079 63.1517 175.825 63.1978 175.571 63.1862ZM192.639 46.8143V57.3187C192.639 59.0641 192.091 60.4437 190.996 61.4573C189.9 62.4709 188.404 62.9811 186.507 62.9877C184.639 62.9877 183.155 62.4948 182.056 61.5089C180.956 60.5231 180.396 59.1634 180.375 57.4298V46.8143H183.671V57.3346C183.671 58.3786 183.922 59.1395 184.424 59.6173C184.925 60.095 185.62 60.3338 186.507 60.3338C188.366 60.3338 189.307 59.3632 189.331 57.4219V46.8143H192.639ZM208 60.7467C207.323 61.5084 206.455 62.0764 205.485 62.3922C204.327 62.7984 203.107 62.9999 201.88 62.9877C200.607 63.0154 199.349 62.7036 198.237 62.0845C197.185 61.4724 196.342 60.5578 195.819 59.4604C195.226 58.1963 194.927 56.8147 194.945 55.4191V54.3274C194.945 52.7394 195.215 51.3612 195.754 50.1927C196.241 49.0873 197.053 48.1556 198.084 47.521C199.162 46.8868 200.397 46.5664 201.649 46.596C203.546 46.596 205.03 47.0466 206.1 47.9477C207.17 48.8489 207.804 50.1616 208 51.8859H204.792C204.646 50.9728 204.322 50.3045 203.82 49.8811C203.318 49.4576 202.627 49.2459 201.748 49.2459C200.628 49.2459 199.774 49.6661 199.187 50.5063C198.6 51.3466 198.304 52.5958 198.297 54.2539V55.2722C198.297 56.9435 198.616 58.2066 199.253 59.0615C199.89 59.9163 200.824 60.3431 202.055 60.3418C203.294 60.3418 204.177 60.0771 204.704 59.5478V56.8026H201.701V54.3829H207.996L208 60.7467Z" fill="#345961"/>
</g>
<defs>
<clipPath id="clip0_4812_1923">
<rect width="172" height="48" fill="white" transform="translate(36 35)"/>
</clipPath>
</defs>
</svg>
