<svg width="244" height="117" viewBox="0 0 244 117" fill="none" xmlns="http://www.w3.org/2000/svg">
<rect x="1" y="1" width="242" height="115" rx="7" fill="#EDF1F2"/>
<rect x="1" y="1" width="242" height="115" rx="7" stroke="#08616A" stroke-width="2"/>
<g clip-path="url(#clip0_4812_1843)">
<path d="M70.6578 63.0124V37.0285H87.7494C88.5654 37.0264 89.3755 37.1682 90.1423 37.4473C90.8917 37.7149 91.5853 38.1186 92.188 38.6383C92.7801 39.145 93.2657 39.7644 93.6166 40.4604C93.9823 41.1863 94.1681 41.9896 94.1583 42.8025V47.6019C94.164 48.4549 93.9595 49.2961 93.563 50.0512C93.9599 50.8062 94.1644 51.6476 94.1583 52.5006V57.2484C94.1665 58.0674 93.9808 58.8768 93.6166 59.6103C93.267 60.3072 92.7812 60.9268 92.188 61.4325C91.5787 61.9344 90.8864 62.326 90.1423 62.5896C89.375 62.867 88.5653 63.0088 87.7494 63.0084L70.6578 63.0124ZM86.2256 43.7195H78.2711V46.7365H86.2355C86.3048 46.7456 86.375 46.7273 86.4309 46.6854C86.4869 46.6435 86.5243 46.5813 86.5351 46.5122C86.5371 46.4878 86.5371 46.4632 86.5351 46.4388V44.0212C86.5454 43.9512 86.5275 43.88 86.4855 43.8232C86.4435 43.7663 86.3808 43.7283 86.3109 43.7175C86.2828 43.7113 86.2537 43.7113 86.2256 43.7175V43.7195ZM86.4061 53.366H78.2711V56.381H86.4061C86.468 56.3891 86.5306 56.3729 86.5809 56.3359C86.6312 56.299 86.6653 56.244 86.676 56.1825C86.678 56.16 86.678 56.1374 86.676 56.115V53.6359C86.6851 53.5738 86.6694 53.5107 86.6322 53.4601C86.5951 53.4096 86.5395 53.3757 86.4776 53.366C86.4552 53.3621 86.4324 53.3621 86.4101 53.366H86.4061ZM103.774 43.9319V46.3733C103.768 46.4077 103.77 46.4428 103.779 46.4765C103.787 46.5102 103.802 46.5419 103.823 46.5698C103.844 46.5976 103.87 46.6211 103.9 46.6388C103.93 46.6565 103.963 46.6681 103.998 46.673H114.553C114.38 47.6679 114.109 48.6433 113.744 49.5848C113.436 50.3769 112.97 51.0981 112.375 51.7046C111.775 52.2872 111.051 52.7262 110.258 52.9888C109.267 53.3005 108.231 53.4473 107.192 53.4235C106.67 53.4235 106.145 53.4017 105.605 53.362C105.065 53.3223 104.547 53.3024 104.027 53.3024C103.847 53.3024 103.756 53.4037 103.756 53.6041V56.0475C103.745 56.1173 103.763 56.1882 103.805 56.2448C103.847 56.3013 103.91 56.3389 103.98 56.3492C104.006 56.3532 104.032 56.3532 104.057 56.3492H119.881C119.728 57.2154 119.496 58.0657 119.188 58.8898C118.905 59.6624 118.494 60.3818 117.972 61.0176C117.458 61.6312 116.818 62.1273 116.095 62.4725C115.245 62.8506 114.321 63.0337 113.391 63.0084L96.3527 62.9866V42.7926C96.3385 41.9668 96.5237 41.1497 96.8924 40.4107C97.2413 39.718 97.7274 39.1035 98.321 38.6045C98.9221 38.0982 99.6088 37.7036 100.349 37.4394C101.111 37.1581 101.917 37.0162 102.73 37.0206H119.881C119.726 37.8921 119.494 38.7483 119.188 39.5791C118.91 40.3531 118.498 41.0726 117.972 41.7049C117.455 42.3124 116.815 42.8041 116.095 43.1479C115.246 43.5287 114.321 43.7139 113.391 43.6897L104.065 43.66C103.867 43.66 103.774 43.7513 103.774 43.9319ZM130.851 43.9577C130.856 43.9233 130.854 43.8883 130.845 43.8547C130.836 43.8211 130.821 43.7895 130.8 43.7619C130.779 43.7342 130.753 43.711 130.723 43.6935C130.693 43.676 130.66 43.6646 130.625 43.66C130.602 43.656 130.577 43.656 130.554 43.66H120.038C120.206 42.7813 120.448 41.9182 120.76 41.0796C121.036 40.3139 121.438 39.5999 121.95 38.9677C122.46 38.3555 123.101 37.8675 123.827 37.5406C124.686 37.1719 125.614 36.9944 126.548 37.0206H149.149C148.994 37.8891 148.758 38.7411 148.443 39.5652C148.153 40.3318 147.736 41.0443 147.211 41.6731C146.691 42.2847 146.045 42.7769 145.318 43.1161C144.472 43.492 143.553 43.675 142.627 43.652H138.631C138.597 43.6467 138.563 43.648 138.529 43.6561C138.496 43.6642 138.464 43.6788 138.436 43.6991C138.408 43.7193 138.385 43.7449 138.367 43.7743C138.349 43.8037 138.337 43.8363 138.332 43.8704C138.328 43.8953 138.328 43.9208 138.332 43.9458V57.2444C138.332 58.3003 138.105 59.1796 137.653 59.8882C137.205 60.5873 136.607 61.1784 135.903 61.619C135.161 62.0748 134.351 62.4098 133.504 62.6115C132.632 62.833 131.745 62.9974 130.851 63.1037V43.9577Z" fill="#095860"/>
<path fill-rule="evenodd" clip-rule="evenodd" d="M33.9349 61.4563C36.2782 60.4227 38.5475 59.229 40.7267 57.8835C42.4767 56.7743 44.0159 55.363 45.2724 53.7153C46.5243 52.066 47.2583 50.0819 47.3816 48.0147C47.5443 45.6786 47.0879 43.5825 46.0205 41.7446C44.9457 39.9107 43.4038 38.395 41.5521 37.3521C39.5961 36.2369 37.445 35.5059 35.2147 35.1985C34.1532 35.0319 33.0779 34.9701 32.0043 35.0139C31.669 35.0298 31.3396 35.0615 31.0122 35.1012L25.401 35.5954L21.9208 40.4008L21.9565 41.5342C21.7555 41.9675 21.5779 42.4115 21.4248 42.864L22.0061 43.1379L22.1331 47.1077L28.667 46.2065C29.792 43.0308 31.673 41.7287 33.8258 42.1177C34.9429 42.3162 35.7544 42.8442 36.2484 43.6917C36.7582 44.5961 36.9772 45.6357 36.8754 46.669C36.7743 48.0584 36.0143 49.5729 34.6075 51.1667C33.1028 52.8439 31.421 54.3532 29.5916 55.6684C27.6736 57.0684 25.6947 58.3724 23.655 59.5806L19.3414 62.147L18.895 68.0837L44.8339 76.4976L45.4133 68.2524L29.3932 63.6515V63.5404C29.7444 63.3657 31.2464 62.6789 33.9349 61.4563Z" fill="#C6211C"/>
<path d="M38.2207 77.6528L38.816 69.2926L22.6192 64.6281V64.515C22.9665 64.3383 24.4784 63.6416 27.2007 62.4011C29.9785 61.1328 32.2881 59.92 34.0679 58.7748C35.8373 57.6458 37.3931 56.2124 38.6632 54.541C39.9288 52.8674 40.6704 50.8561 40.7942 48.7611C40.9608 46.3912 40.4985 44.2674 39.4211 42.4095C38.3362 40.5507 36.777 39.0136 34.9032 37.9555C32.9251 36.8236 30.748 36.0823 28.4904 35.7721C26.2112 35.4334 24.1305 35.5346 22.2482 36.0758C20.4562 36.5703 18.8181 37.5097 17.4862 38.807C16.1415 40.1297 15.1361 41.7578 14.5556 43.5528L22.1411 47.0621C23.276 43.8307 24.9189 42.4016 27.0896 42.7966C28.2205 42.9951 29.04 43.533 29.54 44.3845C30.0557 45.3042 30.2766 46.3601 30.1729 47.4094C30.0698 48.8306 29.3019 50.355 27.8812 51.9746C26.3611 53.6757 24.6606 55.2064 22.8097 56.5398C20.8692 57.9596 18.8685 59.2829 16.8076 60.5095L12.4524 63.1018L12 69.1219L38.2207 77.6528Z" fill="#E84043"/>
<path fill-rule="evenodd" clip-rule="evenodd" d="M53.5543 60.7556V60.7258L53.5127 60.7437L53.473 60.7318L57.5782 47.3319L55.6338 42.1455L53.8659 42.4095C53.8068 41.4491 53.5861 40.5056 53.2131 39.6188L56.3877 37.1277L48.1971 35.9924C46.8193 35.8085 45.4203 35.8608 44.0601 36.1472C42.0036 36.5443 40.0473 37.3487 38.3061 38.5132C36.4106 39.7758 34.7707 41.3853 33.4726 43.257C32.0776 45.2424 31.068 47.4724 30.4964 49.8309H30.5142L37.6949 51.786L46.0919 45.2141C46.1535 45.5627 46.1834 45.9161 46.1812 46.27C46.1812 47.592 45.6455 49.3029 44.5582 51.4307C43.3002 53.8476 41.8844 56.1789 40.32 58.4095C38.5461 60.9739 36.6149 63.6045 34.5262 66.3013L29.7087 72.4861V79.324L36.8378 82.994L62.116 63.326L53.5543 60.7556Z" fill="#075962"/>
<path d="M62.112 70.6382V63.316L48.4709 69.1396V69.0205C48.8002 68.5978 50.209 66.857 52.6376 63.8837C54.973 61.0176 56.7865 58.6298 58.1218 56.6707C59.3812 54.8377 60.4452 52.8779 61.2965 50.8233C62.0703 48.9898 62.4748 47.0216 62.487 45.0315C62.487 42.9473 62.0664 41.2741 61.2191 39.9958C60.3786 38.7108 59.0945 37.7802 57.6119 37.3818C56.0246 36.9253 54.1734 36.8895 52.0563 37.2944C49.876 37.7136 47.8016 38.5646 45.955 39.7974C43.948 41.1334 42.2112 42.8365 40.8358 44.8171C39.3595 46.9159 38.2875 49.2719 37.675 51.7641L46.6871 51.4743C47.6098 47.5483 49.1395 45.3391 51.2388 44.8191C52.2864 44.5571 53.0543 44.7456 53.5484 45.3768C54.0424 46.008 54.2865 46.8794 54.2865 48.0147C54.2865 49.4041 53.713 51.2249 52.5662 53.4771C51.2353 56.0357 49.736 58.503 48.078 60.8627C46.1984 63.5754 44.1533 66.3595 41.943 69.2151L36.8635 75.7651V82.9999L62.112 70.6382Z" fill="#008C9B"/>
<path d="M69.8661 78.8357C69.888 78.4864 69.9078 77.9683 69.9078 77.5118V71.323H70.8066V74.5464H70.8285C70.9967 74.246 71.2453 73.9984 71.5463 73.8315C71.8474 73.6646 72.189 73.585 72.5329 73.6016C73.773 73.6016 74.6519 74.6615 74.642 76.2197C74.642 78.0537 73.515 78.9647 72.3979 78.9647C72.0557 78.9816 71.7159 78.8996 71.4189 78.7286C71.122 78.5575 70.8805 78.3046 70.7233 78.0001H70.6935L70.6519 78.8476L69.8661 78.8357ZM70.8066 76.7794C70.8107 76.8935 70.8247 77.0071 70.8483 77.1188C70.9213 77.4268 71.0951 77.7015 71.3421 77.8993C71.5891 78.0971 71.8951 78.2066 72.2114 78.2105C73.1638 78.2105 73.7313 77.4165 73.7313 76.2395C73.7313 75.2114 73.2154 74.3321 72.2432 74.3321C71.9171 74.3403 71.6031 74.4576 71.3514 74.6652C71.0996 74.8728 70.9246 75.1587 70.8543 75.4773C70.8251 75.6024 70.8079 75.73 70.8027 75.8584L70.8066 76.7794ZM76.2869 76.442C76.3067 77.7024 77.0925 78.2283 78.0012 78.2283C78.4782 78.244 78.9527 78.1531 79.3901 77.9624L79.5469 78.6313C79.0208 78.8541 78.4533 78.9623 77.8822 78.9489C76.3425 78.9489 75.4218 77.9088 75.4218 76.3685C75.4218 74.8283 76.3107 73.6016 77.7671 73.6016C79.402 73.6016 79.8366 75.0764 79.8366 76.0192C79.8346 76.1645 79.8246 76.3096 79.8068 76.4539L76.2869 76.442ZM78.9516 75.7731C78.9635 75.1776 78.7155 74.2586 77.6917 74.2586C76.771 74.2586 76.3682 75.128 76.3028 75.7731H78.9516ZM82.0628 72.2341V73.7048H83.3644V74.4154H82.0628V77.1784C82.0628 77.8155 82.2374 78.1708 82.7453 78.1708C82.9226 78.1714 83.0992 78.1501 83.2712 78.1073L83.3128 78.8079C83.0544 78.8995 82.7813 78.9426 82.5072 78.935C82.3228 78.9464 82.1382 78.9167 81.9666 78.848C81.795 78.7794 81.6408 78.6735 81.5152 78.538C81.2572 78.2621 81.164 77.8076 81.164 77.2022V74.4234H80.3882V73.7048H81.164V72.4742L82.0628 72.2341ZM88.3526 78.8357V78.4209L88.8724 77.9048C90.1185 76.6861 90.682 76.039 90.6899 75.2848C90.6899 74.7747 90.4499 74.3043 89.7217 74.3043C89.3364 74.3186 88.9687 74.4691 88.684 74.729L88.4736 74.2507C88.86 73.919 89.3534 73.7385 89.8625 73.7425C90.9142 73.7425 91.3586 74.4829 91.3586 75.1994C91.3586 76.1244 90.7038 76.8707 89.674 77.8889L89.2772 78.2581V78.27H91.4717V78.8317L88.3526 78.8357ZM97.0055 75.382C97.0055 74.7251 96.9857 74.1911 96.9639 73.7068H97.7813L97.823 74.5861H97.8428C98.02 74.272 98.2806 74.0131 98.5958 73.8379C98.9109 73.6628 99.2684 73.5782 99.6286 73.5937C100.837 73.5937 101.748 74.6437 101.748 76.2018C101.748 78.0457 100.652 78.9568 99.4738 78.9568C99.169 78.9696 98.8662 78.9019 98.5959 78.7604C98.3256 78.619 98.0974 78.4087 97.9341 78.1509H97.9143V80.9297H97.0154L97.0055 75.382ZM97.9044 76.7476C97.9064 76.8763 97.9204 77.0046 97.946 77.1307C98.0185 77.4393 98.1924 77.7147 98.4399 77.9126C98.6874 78.1106 98.9942 78.2197 99.3111 78.2224C100.271 78.2224 100.829 77.4165 100.829 76.2375C100.829 75.2094 100.303 74.3301 99.3409 74.3301C98.9577 74.3728 98.6023 74.551 98.3389 74.8327C98.0755 75.1144 97.9214 75.481 97.9044 75.8664V76.7476ZM102.887 71.323H103.795V78.8456H102.887V71.323ZM108.095 78.8357L108.022 78.1906H107.992C107.817 78.431 107.586 78.6258 107.32 78.7584C107.054 78.8911 106.759 78.9578 106.462 78.9528C106.081 78.9767 105.706 78.8482 105.419 78.5954C105.133 78.3427 104.958 77.9865 104.934 77.6051V77.4761C104.934 76.2355 106.01 75.5567 107.942 75.5686V75.4614C107.942 75.0387 107.827 74.2705 106.805 74.2705C106.343 74.2724 105.891 74.4052 105.502 74.6536L105.303 74.0383C105.796 73.7315 106.366 73.573 106.946 73.5818C108.476 73.5818 108.849 74.6536 108.849 75.6818V77.5991C108.841 78.0103 108.869 78.4214 108.932 78.8278L108.095 78.8357ZM107.96 76.2197C106.968 76.1978 105.841 76.3785 105.841 77.3749C105.821 77.5901 105.888 77.8045 106.026 77.9709C106.164 78.1372 106.362 78.242 106.577 78.2621H106.7C106.966 78.2661 107.227 78.1851 107.444 78.0309C107.662 77.8768 107.824 77.6574 107.909 77.4046C107.94 77.3085 107.958 77.2082 107.96 77.1069V76.2197ZM110.553 73.7048L111.649 76.7357C111.764 77.0751 111.887 77.4781 111.97 77.7857H111.99C112.083 77.4781 112.188 77.0851 112.311 76.7139L113.303 73.7048H114.264L112.901 77.361C112.25 79.1195 111.805 80.0207 111.184 80.5725C110.871 80.8647 110.486 81.07 110.069 81.1679L109.841 80.374C110.132 80.2748 110.402 80.1205 110.635 79.9194C110.966 79.6363 111.228 79.2803 111.399 78.8794C111.436 78.8101 111.461 78.7349 111.472 78.6571C111.463 78.5733 111.442 78.4911 111.411 78.4129L109.561 73.7048H110.553Z" fill="#02898F"/>
<path fill-rule="evenodd" clip-rule="evenodd" d="M83.7751 75.9161C83.7751 79.3677 86.5133 82.1763 89.8804 82.1763C93.2475 82.1763 95.9877 79.3677 95.9877 75.9161C95.9877 72.4644 93.2475 69.6538 89.8804 69.6538C86.5133 69.6538 83.7751 72.4624 83.7751 75.9161ZM84.2633 75.9161C84.2633 72.7403 86.7831 70.1599 89.8804 70.1599C92.9777 70.1599 95.4976 72.7403 95.4976 75.9161C95.4976 79.0918 92.9777 81.6722 89.8804 81.6722C86.7831 81.6722 84.2633 79.0918 84.2633 75.9161Z" fill="#457075"/>
<path d="M126 78.8357C126.02 78.4864 126.042 77.9683 126.042 77.5118V71.323H126.941V74.5464H126.96C127.129 74.2455 127.377 73.9976 127.679 73.8307C127.98 73.6638 128.323 73.5844 128.667 73.6016C129.907 73.6016 130.786 74.6615 130.774 76.2197C130.774 78.0537 129.649 78.9647 128.532 78.9647C128.189 78.9831 127.849 78.9018 127.552 78.7306C127.254 78.5593 127.013 78.3056 126.857 78.0001H126.827L126.786 78.8476L126 78.8357ZM126.941 76.7794C126.943 76.8937 126.957 77.0074 126.982 77.1188C127.054 77.4274 127.227 77.7029 127.475 77.901C127.722 78.099 128.029 78.208 128.345 78.2105C129.296 78.2105 129.865 77.4165 129.865 76.2395C129.865 75.2114 129.349 74.3321 128.377 74.3321C128.051 74.34 127.737 74.4571 127.485 74.6648C127.233 74.8724 127.058 75.1585 126.988 75.4773C126.958 75.6023 126.941 75.73 126.937 75.8584L126.941 76.7794ZM132.427 76.442C132.449 77.7024 133.234 78.2283 134.143 78.2283C134.62 78.2431 135.094 78.1522 135.532 77.9624L135.687 78.6313C135.161 78.8541 134.595 78.9624 134.024 78.9489C132.482 78.9489 131.564 77.9088 131.564 76.3685C131.564 74.8283 132.453 73.6016 133.909 73.6016C135.542 73.6016 135.976 75.0764 135.976 76.0192C135.975 76.1646 135.964 76.3098 135.945 76.4539L132.427 76.442ZM135.093 75.7731C135.093 75.1776 134.855 74.2586 133.834 74.2586C132.913 74.2586 132.51 75.128 132.445 75.7731H135.093ZM138.193 72.2341V73.7048H139.494V74.4154H138.193V77.1784C138.193 77.8155 138.367 78.1708 138.873 78.1708C139.051 78.1726 139.229 78.1512 139.401 78.1073L139.443 78.8079C139.184 78.8995 138.911 78.9426 138.637 78.935C138.453 78.9464 138.268 78.9167 138.097 78.848C137.925 78.7794 137.771 78.6735 137.645 78.538C137.387 78.2621 137.294 77.8076 137.294 77.2022V74.4234H136.518V73.7048H137.294V72.4742L138.193 72.2341ZM144.485 78.8357V78.4209L145.002 77.9048C146.25 76.6861 146.814 76.039 146.822 75.2848C146.822 74.7747 146.582 74.3043 145.852 74.3043C145.467 74.3195 145.1 74.4699 144.816 74.729L144.606 74.2507C144.992 73.919 145.485 73.7385 145.994 73.7425C147.046 73.7425 147.489 74.4829 147.489 75.1994C147.489 76.1244 146.836 76.8707 145.806 77.8889L145.409 78.2581V78.27H147.604V78.8317L144.485 78.8357ZM153.499 73.7048L154.161 76.3129C154.306 76.8846 154.439 77.4145 154.532 77.9445H154.564C154.677 77.4245 154.842 76.8747 155.009 76.3229L155.824 73.7048H156.59L157.364 76.2693C157.55 76.8846 157.695 77.4245 157.808 77.9445H157.836C157.933 77.3834 158.06 76.8281 158.219 76.2812L158.931 73.7009H159.83L158.219 78.8298H157.392L156.628 76.3824C156.451 75.8286 156.303 75.2662 156.183 74.6973H156.161C156.044 75.2708 155.892 75.8369 155.707 76.3923L154.901 78.8298H154.066L152.57 73.7048H153.499ZM161.757 72.2658C161.757 72.4153 161.697 72.5587 161.592 72.6644C161.486 72.7701 161.343 72.8295 161.193 72.8295C161.044 72.8295 160.9 72.7701 160.795 72.6644C160.689 72.5587 160.63 72.4153 160.63 72.2658C160.627 72.192 160.638 72.1184 160.664 72.0491C160.689 71.9799 160.728 71.9163 160.779 71.8621C160.829 71.8079 160.889 71.7641 160.956 71.7333C161.023 71.7024 161.096 71.6851 161.169 71.6823H161.209C161.281 71.6804 161.352 71.6928 161.419 71.7186C161.486 71.7445 161.548 71.7833 161.6 71.833C161.652 71.8826 161.693 71.942 161.722 72.0077C161.751 72.0735 161.767 72.1443 161.769 72.2162C161.767 72.2332 161.763 72.2498 161.757 72.2658ZM160.743 78.8357V73.7048H161.653V78.8337L160.743 78.8357ZM163.161 75.0942C163.161 74.5643 163.152 74.1296 163.12 73.7048H163.925L163.979 74.5524H163.999C164.159 74.2549 164.398 74.0074 164.689 73.8372C164.981 73.667 165.314 73.5807 165.652 73.5877C166.344 73.5877 167.419 74.0125 167.419 75.7711V78.8337H166.511V75.8882C166.511 75.0605 166.211 74.3718 165.352 74.3718C165.073 74.3786 164.804 74.4752 164.585 74.6472C164.365 74.8192 164.207 75.0574 164.134 75.3265C164.09 75.4671 164.068 75.6138 164.07 75.7612V78.8437H163.161V75.0942Z" fill="#02898F"/>
<path fill-rule="evenodd" clip-rule="evenodd" d="M140.092 75.9259C140.092 79.3796 142.83 82.1882 146.197 82.1882C149.564 82.1882 152.304 79.3796 152.304 75.9259C152.304 72.4723 149.564 69.6656 146.197 69.6656C142.83 69.6656 140.092 72.4742 140.092 75.9259ZM140.58 75.9259C140.58 72.7501 143.1 70.1698 146.197 70.1698C149.294 70.1698 151.816 72.7501 151.816 75.9259C151.816 79.1017 149.296 81.682 146.197 81.682C143.098 81.682 140.576 79.1017 140.576 75.9259H140.58Z" fill="#457075"/>
<path d="M149.165 61.4245C149.156 61.1649 149.203 60.9065 149.302 60.6667C149.402 60.4269 149.552 60.2114 149.743 60.035C150.148 59.6903 150.662 59.5011 151.194 59.5011C151.726 59.5011 152.24 59.6903 152.645 60.035C152.835 60.2119 152.985 60.4274 153.084 60.6671C153.183 60.9069 153.23 61.1651 153.221 61.4245C153.23 61.6805 153.184 61.9356 153.085 62.1722C152.987 62.4089 152.839 62.6216 152.651 62.796C152.25 63.1546 151.725 63.3432 151.187 63.322C150.654 63.3419 150.133 63.1532 149.737 62.796C149.549 62.6218 149.4 62.4091 149.302 62.1725C149.203 61.9358 149.156 61.6807 149.165 61.4245ZM170.769 57.1689C170.629 59.1127 169.912 60.6431 168.618 61.7599C167.324 62.8767 165.619 63.4351 163.501 63.4351C161.187 63.4351 159.366 62.6551 158.038 61.095C156.71 59.5349 156.048 57.3952 156.05 54.6759V53.5723C156.018 51.9932 156.331 50.4262 156.969 48.9813C157.52 47.728 158.433 46.6678 159.59 45.9366C160.785 45.2127 162.162 44.845 163.558 44.8766C165.642 44.8766 167.32 45.4344 168.594 46.5499C169.868 47.6654 170.604 49.2328 170.802 51.252H167.072C166.984 50.0876 166.66 49.242 166.1 48.7154C165.54 48.1887 164.691 47.9241 163.55 47.9214C162.311 47.9214 161.385 48.366 160.773 49.2552C160.16 50.1445 159.843 51.5253 159.82 53.3977V54.7632C159.82 56.715 160.116 58.1415 160.707 59.0426C161.298 59.9437 162.23 60.3943 163.503 60.3943C164.654 60.3943 165.513 60.1297 166.082 59.6004C166.651 59.0711 166.976 58.2586 167.056 57.1629L170.769 57.1689ZM188.043 54.5648C188.043 56.3432 187.729 57.902 187.1 59.2411C186.527 60.5185 185.589 61.5978 184.404 62.3434C183.186 63.0564 181.801 63.4331 180.391 63.4352C178.98 63.4373 177.594 63.0647 176.374 62.3554C175.183 61.6168 174.234 60.5451 173.646 59.2729C172.977 57.8297 172.642 56.2544 172.666 54.664V53.7708C172.666 51.9924 172.986 50.427 173.628 49.0746C174.208 47.7927 175.152 46.7097 176.342 45.9604C177.56 45.2506 178.945 44.8766 180.354 44.8766C181.764 44.8766 183.148 45.2506 184.366 45.9604C185.558 46.7089 186.503 47.7921 187.083 49.0746C187.724 50.427 188.044 51.9884 188.043 53.7589V54.5648ZM184.273 53.745C184.273 51.8514 183.934 50.4124 183.257 49.4279C182.58 48.4434 181.612 47.9519 180.354 47.9532C179.107 47.9532 178.144 48.4388 177.465 49.4101C176.787 50.3813 176.443 51.8058 176.436 53.6835V54.5648C176.436 56.4094 176.775 57.8398 177.453 58.856C178.132 59.8723 179.108 60.3811 180.38 60.3824C181.627 60.3824 182.586 59.8921 183.257 58.9116C183.928 57.9311 184.266 56.5026 184.273 54.6263V53.745ZM189.186 61.4245C189.176 61.1649 189.223 60.9065 189.323 60.6667C189.422 60.4269 189.573 60.2114 189.763 60.035C190.168 59.6905 190.682 59.5013 191.214 59.5013C191.745 59.5013 192.259 59.6905 192.664 60.035C192.855 60.2114 193.005 60.4269 193.104 60.6667C193.204 60.9065 193.251 61.1649 193.241 61.4245C193.25 61.6805 193.204 61.9356 193.106 62.1722C193.008 62.4089 192.86 62.6216 192.672 62.796C192.27 63.1546 191.745 63.3432 191.208 63.322C190.674 63.3423 190.154 63.1536 189.757 62.796C189.569 62.6218 189.421 62.4091 189.322 62.1725C189.224 61.9358 189.177 61.6807 189.186 61.4245ZM200.557 60.1958H209.658V63.185H195.906V61.0017L204.835 48.1358H195.918V45.1228H209.46V47.2585L200.557 60.1958ZM216.863 45.1228L221.502 58.2229L226.115 45.1228H231V63.185H227.268V58.2487L227.641 49.7257L222.766 63.185H220.212L215.351 49.7376L215.722 58.2467V63.185H212.004V45.1228H216.863Z" fill="#345961"/>
</g>
<defs>
<clipPath id="clip0_4812_1843">
<rect width="219" height="48" fill="white" transform="translate(12 35)"/>
</clipPath>
</defs>
</svg>
