<svg width="244" height="117" viewBox="0 0 244 117" fill="none" xmlns="http://www.w3.org/2000/svg">
<rect x="1" y="1" width="242" height="115" rx="7" fill="#EDF1F2"/>
<rect x="1" y="1" width="242" height="115" rx="7" stroke="#08616A" stroke-width="2"/>
<g clip-path="url(#clip0_4812_1824)">
<path d="M92.6528 63.0124V37.0285H109.743C110.559 37.0264 111.369 37.1682 112.136 37.4473C112.885 37.7149 113.578 38.1186 114.181 38.6383C114.773 39.145 115.259 39.7644 115.61 40.4604C115.975 41.1863 116.161 41.9896 116.151 42.8025V47.6019C116.157 48.4549 115.952 49.2961 115.556 50.0512C115.953 50.8062 116.157 51.6476 116.151 52.5006V57.2484C116.159 58.0674 115.974 58.8768 115.61 59.6103C115.26 60.3072 114.774 60.9268 114.181 61.4325C113.572 61.9344 112.88 62.326 112.136 62.5896C111.368 62.867 110.559 63.0088 109.743 63.0084L92.6528 63.0124ZM108.219 43.7195H100.265V46.7365H108.229C108.298 46.7456 108.369 46.7273 108.425 46.6854C108.48 46.6435 108.518 46.5813 108.529 46.5122C108.531 46.4878 108.531 46.4632 108.529 46.4388V44.0212C108.539 43.9512 108.521 43.88 108.479 43.8232C108.437 43.7663 108.374 43.7283 108.304 43.7175C108.276 43.7113 108.247 43.7113 108.219 43.7175V43.7195ZM108.4 53.366H100.265V56.381H108.4C108.462 56.3891 108.524 56.3729 108.574 56.3359C108.625 56.299 108.659 56.244 108.67 56.1825C108.672 56.16 108.672 56.1374 108.67 56.115V53.6359C108.679 53.5738 108.663 53.5107 108.626 53.4601C108.589 53.4096 108.533 53.3757 108.471 53.366C108.449 53.3621 108.426 53.3621 108.404 53.366H108.4ZM125.766 43.9319V46.3733C125.761 46.4077 125.762 46.4428 125.771 46.4765C125.779 46.5102 125.795 46.5419 125.815 46.5698C125.836 46.5976 125.862 46.6211 125.892 46.6388C125.922 46.6565 125.955 46.6681 125.99 46.673H136.545C136.371 47.6679 136.1 48.6433 135.735 49.5848C135.427 50.3769 134.961 51.0981 134.366 51.7046C133.767 52.2872 133.043 52.7262 132.249 52.9888C131.258 53.3005 130.223 53.4473 129.184 53.4235C128.662 53.4235 128.136 53.4017 127.597 53.362C127.057 53.3223 126.539 53.3024 126.02 53.3024C125.839 53.3024 125.748 53.4037 125.748 53.6041V56.0475C125.738 56.1173 125.755 56.1882 125.797 56.2448C125.839 56.3013 125.902 56.3389 125.972 56.3492C125.998 56.3532 126.024 56.3532 126.049 56.3492H141.872C141.718 57.2154 141.487 58.0657 141.179 58.8898C140.896 59.6624 140.485 60.3818 139.963 61.0176C139.449 61.6312 138.809 62.1273 138.086 62.4725C137.236 62.8506 136.312 63.0337 135.382 63.0084L118.345 62.9866V42.7926C118.331 41.9668 118.516 41.1497 118.885 40.4107C119.234 39.718 119.72 39.1035 120.314 38.6045C120.915 38.0982 121.601 37.7036 122.341 37.4394C123.103 37.1581 123.91 37.0162 124.722 37.0206H141.872C141.717 37.8921 141.485 38.7483 141.179 39.5791C140.901 40.3531 140.489 41.0726 139.963 41.7049C139.446 42.3124 138.806 42.8041 138.086 43.1479C137.237 43.5287 136.313 43.7139 135.382 43.6897L126.057 43.66C125.859 43.66 125.766 43.7513 125.766 43.9319ZM152.841 43.9577C152.846 43.9233 152.844 43.8883 152.835 43.8547C152.826 43.8211 152.811 43.7895 152.79 43.7619C152.769 43.7342 152.743 43.711 152.713 43.6935C152.683 43.676 152.649 43.6646 152.615 43.66C152.591 43.656 152.567 43.656 152.544 43.66H142.028C142.197 42.7813 142.439 41.9182 142.751 41.0796C143.026 40.3139 143.429 39.5999 143.941 38.9677C144.45 38.3555 145.092 37.8675 145.818 37.5406C146.676 37.1719 147.604 36.9944 148.538 37.0206H171.138C170.983 37.8891 170.746 38.7411 170.431 39.5652C170.141 40.3318 169.725 41.0443 169.199 41.6731C168.679 42.2847 168.034 42.7769 167.306 43.1161C166.46 43.492 165.542 43.675 164.616 43.652H160.62C160.586 43.6467 160.552 43.648 160.518 43.6561C160.485 43.6642 160.453 43.6788 160.425 43.6991C160.398 43.7193 160.374 43.7449 160.356 43.7743C160.338 43.8037 160.326 43.8363 160.321 43.8704C160.317 43.8953 160.317 43.9208 160.321 43.9458V57.2444C160.321 58.3003 160.095 59.1796 159.642 59.8882C159.194 60.5873 158.596 61.1784 157.892 61.619C157.15 62.0748 156.341 62.4098 155.494 62.6115C154.621 62.833 153.735 62.9974 152.841 63.1037V43.9577Z" fill="#095860"/>
<path fill-rule="evenodd" clip-rule="evenodd" d="M55.933 61.4563C58.2761 60.4227 60.5452 59.229 62.7242 57.8835C64.4741 56.7743 66.0131 55.363 67.2696 53.7153C68.5213 52.066 69.2553 50.0819 69.3786 48.0147C69.5412 45.6786 69.0849 43.5825 68.0175 41.7446C66.9429 39.9107 65.4011 38.395 63.5496 37.3521C61.5937 36.2369 59.4428 35.5059 57.2127 35.1985C56.1513 35.0319 55.0761 34.9701 54.0026 35.0139C53.6673 35.0298 53.338 35.0615 53.0106 35.1012L47.3999 35.5954L43.92 40.4008L43.9557 41.5342C43.7546 41.9675 43.5771 42.4115 43.424 42.864L44.0053 43.1379L44.1323 47.1077L50.6655 46.2065C51.7905 43.0308 53.6713 41.7287 55.8239 42.1177C56.9409 42.3162 57.7524 42.8442 58.2464 43.6917C58.7561 44.5961 58.975 45.6357 58.8733 46.669C58.7721 48.0584 58.0123 49.5729 56.6056 51.1667C55.101 52.8439 53.4193 54.3532 51.5901 55.6684C49.6722 57.0684 47.6935 58.3724 45.654 59.5806L41.3408 62.147L40.8944 68.0837L66.8311 76.4976L67.4104 68.2524L51.3917 63.6515V63.5404C51.7428 63.3657 53.2447 62.6789 55.933 61.4563Z" fill="#C6211C"/>
<path d="M60.2185 77.6528L60.8137 69.2926L44.6183 64.6281V64.515C44.9655 64.3383 46.4773 63.6416 49.1994 62.4011C51.977 61.1328 54.2863 59.92 56.066 58.7748C57.8353 57.6458 59.3909 56.2124 60.6609 54.541C61.9264 52.8674 62.6679 50.8561 62.7917 48.7611C62.9583 46.3912 62.4961 44.2674 61.4188 42.4095C60.3339 40.5507 58.7749 39.0136 56.9012 37.9555C54.9233 36.8236 52.7464 36.0823 50.489 35.7721C48.21 35.4334 46.1295 35.5346 44.2473 36.0758C42.4554 36.5703 40.8175 37.5097 39.4857 38.807C38.1411 40.1297 37.1358 41.7578 36.5554 43.5528L44.1402 47.0621C45.275 43.8307 46.9178 42.4016 49.0883 42.7966C50.2191 42.9951 51.0385 43.533 51.5385 44.3845C52.0541 45.3042 52.275 46.3601 52.1714 47.4094C52.0682 48.8306 51.3004 50.355 49.8799 51.9746C48.3599 53.6757 46.6595 55.2064 44.8088 56.5398C42.8684 57.9596 40.8679 59.2829 38.8072 60.5095L34.4524 63.1018L34 69.1219L60.2185 77.6528Z" fill="#E84043"/>
<path fill-rule="evenodd" clip-rule="evenodd" d="M75.5507 60.7556V60.7258L75.5091 60.7437L75.4694 60.7318L79.5743 47.3319L77.63 42.1455L75.8622 42.4095C75.8032 41.4491 75.5825 40.5056 75.2095 39.6188L78.3839 37.1277L70.194 35.9924C68.8163 35.8085 67.4174 35.8608 66.0573 36.1472C64.001 36.5443 62.0448 37.3487 60.3038 38.5132C58.4085 39.7758 56.7687 41.3853 55.4708 43.257C54.0758 45.2424 53.0663 47.4724 52.4948 49.8309H52.5126L59.6927 51.786L68.0889 45.2141C68.1505 45.5627 68.1804 45.9161 68.1782 46.27C68.1782 47.592 67.6425 49.3029 66.5553 51.4307C65.2975 53.8476 63.8818 56.1789 62.3175 58.4095C60.5438 60.9739 58.6127 63.6045 56.5243 66.3013L51.7071 72.4861V79.324L58.8356 82.994L84.1117 63.326L75.5507 60.7556Z" fill="#075962"/>
<path d="M84.1077 70.6382V63.316L70.4677 69.1396V69.0205C70.7971 68.5978 72.2057 66.857 74.6341 63.8837C76.9693 61.0176 78.7827 58.6298 80.1179 56.6707C81.3771 54.8377 82.441 52.8779 83.2923 50.8233C84.0659 48.9898 84.4705 47.0216 84.4827 45.0315C84.4827 42.9473 84.0621 41.2741 83.2149 39.9958C82.3744 38.7108 81.0905 37.7802 79.608 37.3818C78.0208 36.9253 76.1697 36.8895 74.0528 37.2944C71.8728 37.7136 69.7985 38.5646 67.952 39.7974C65.9453 41.1334 64.2086 42.8365 62.8333 44.8171C61.3571 46.9159 60.2853 49.2719 59.6728 51.7641L68.6841 51.4743C69.6067 47.5483 71.1363 45.3391 73.2354 44.8191C74.283 44.5571 75.0508 44.7456 75.5448 45.3768C76.0388 46.008 76.2828 46.8794 76.2828 48.0147C76.2828 49.4041 75.7094 51.2249 74.5627 53.4771C73.232 56.0357 71.7327 58.503 70.0749 60.8627C68.1954 63.5754 66.1506 66.3595 63.9404 69.2151L58.8614 75.7651V82.9999L84.1077 70.6382Z" fill="#008C9B"/>
<path d="M91.8611 78.8357C91.883 78.4864 91.9028 77.9683 91.9028 77.5118V71.323H92.8016V74.5464H92.8234C92.9916 74.246 93.2401 73.9984 93.5412 73.8315C93.8422 73.6646 94.1838 73.585 94.5276 73.6016C95.7676 73.6016 96.6465 74.6615 96.6366 76.2197C96.6366 78.0537 95.5097 78.9647 94.3927 78.9647C94.0505 78.9816 93.7107 78.8996 93.4138 78.7286C93.1169 78.5575 92.8754 78.3046 92.7182 78.0001H92.6885L92.6468 78.8476L91.8611 78.8357ZM92.8016 76.7794C92.8057 76.8935 92.8196 77.0071 92.8432 77.1188C92.9162 77.4268 93.09 77.7015 93.337 77.8993C93.5839 78.0971 93.8899 78.2066 94.2062 78.2105C95.1585 78.2105 95.726 77.4165 95.726 76.2395C95.726 75.2114 95.2101 74.3321 94.238 74.3321C93.9119 74.3403 93.5979 74.4576 93.3462 74.6652C93.0945 74.8728 92.9195 75.1587 92.8492 75.4773C92.8201 75.6024 92.8028 75.73 92.7976 75.8584L92.8016 76.7794ZM98.2813 76.442C98.3012 77.7024 99.0868 78.2283 99.9955 78.2283C100.472 78.244 100.947 78.1531 101.384 77.9624L101.541 78.6313C101.015 78.8541 100.448 78.9623 99.8765 78.9489C98.3369 78.9489 97.4163 77.9088 97.4163 76.3685C97.4163 74.8283 98.3051 73.6016 99.7614 73.6016C101.396 73.6016 101.831 75.0764 101.831 76.0192C101.829 76.1645 101.819 76.3096 101.801 76.4539L98.2813 76.442ZM100.946 75.7731C100.958 75.1776 100.71 74.2586 99.686 74.2586C98.7654 74.2586 98.3627 75.128 98.2972 75.7731H100.946ZM104.057 72.2341V73.7048H105.358V74.4154H104.057V77.1784C104.057 77.8155 104.231 78.1708 104.739 78.1708C104.916 78.1714 105.093 78.1501 105.265 78.1073L105.307 78.8079C105.048 78.8995 104.775 78.9426 104.501 78.935C104.317 78.9464 104.132 78.9167 103.961 78.848C103.789 78.7794 103.635 78.6735 103.509 78.538C103.251 78.2621 103.158 77.8076 103.158 77.2022V74.4234H102.382V73.7048H103.158V72.4742L104.057 72.2341ZM110.346 78.8357V78.4209L110.866 77.9048C112.112 76.6861 112.675 76.039 112.683 75.2848C112.683 74.7747 112.443 74.3043 111.715 74.3043C111.33 74.3186 110.962 74.4691 110.677 74.729L110.467 74.2507C110.853 73.919 111.347 73.7385 111.856 73.7425C112.907 73.7425 113.352 74.4829 113.352 75.1994C113.352 76.1244 112.697 76.8707 111.667 77.8889L111.271 78.2581V78.27H113.465V78.8317L110.346 78.8357ZM118.998 75.382C118.998 74.7251 118.978 74.1911 118.957 73.7068H119.774L119.816 74.5861H119.835C120.013 74.272 120.273 74.0131 120.588 73.8379C120.903 73.6628 121.261 73.5782 121.621 73.5937C122.829 73.5937 123.74 74.6437 123.74 76.2018C123.74 78.0457 122.645 78.9568 121.466 78.9568C121.162 78.9696 120.859 78.9019 120.588 78.7604C120.318 78.619 120.09 78.4087 119.927 78.1509H119.907V80.9297H119.008L118.998 75.382ZM119.897 76.7476C119.899 76.8763 119.913 77.0046 119.939 77.1307C120.011 77.4393 120.185 77.7147 120.432 77.9126C120.68 78.1106 120.987 78.2197 121.304 78.2224C122.264 78.2224 122.821 77.4165 122.821 76.2375C122.821 75.2094 122.296 74.3301 121.333 74.3301C120.95 74.3728 120.595 74.551 120.331 74.8327C120.068 75.1144 119.914 75.481 119.897 75.8664V76.7476ZM124.879 71.323H125.787V78.8456H124.879V71.323ZM130.087 78.8357L130.013 78.1906H129.984C129.808 78.431 129.578 78.6258 129.312 78.7584C129.045 78.8911 128.751 78.9578 128.454 78.9528C128.073 78.9767 127.698 78.8482 127.411 78.5954C127.125 78.3427 126.95 77.9865 126.926 77.6051V77.4761C126.926 76.2355 128.002 75.5567 129.934 75.5686V75.4614C129.934 75.0387 129.819 74.2705 128.797 74.2705C128.335 74.2724 127.883 74.4052 127.494 74.6536L127.295 74.0383C127.788 73.7315 128.358 73.573 128.938 73.5818C130.468 73.5818 130.841 74.6536 130.841 75.6818V77.5991C130.833 78.0103 130.861 78.4214 130.924 78.8278L130.087 78.8357ZM129.952 76.2197C128.96 76.1978 127.833 76.3785 127.833 77.3749C127.813 77.5901 127.879 77.8045 128.017 77.9709C128.155 78.1372 128.354 78.242 128.569 78.2621H128.692C128.958 78.2661 129.219 78.1851 129.436 78.0309C129.653 77.8768 129.816 77.6574 129.9 77.4046C129.932 77.3085 129.949 77.2082 129.952 77.1069V76.2197ZM132.545 73.7048L133.64 76.7357C133.755 77.0751 133.878 77.4781 133.961 77.7857H133.981C134.075 77.4781 134.18 77.0851 134.303 76.7139L135.295 73.7048H136.255L134.892 77.361C134.241 79.1195 133.797 80.0207 133.176 80.5725C132.862 80.8647 132.478 81.07 132.061 81.1679L131.833 80.374C132.124 80.2748 132.393 80.1205 132.626 79.9194C132.958 79.6363 133.219 79.2803 133.39 78.8794C133.427 78.8101 133.452 78.7349 133.463 78.6571C133.454 78.5733 133.434 78.4911 133.402 78.4129L131.553 73.7048H132.545Z" fill="#02898F"/>
<path fill-rule="evenodd" clip-rule="evenodd" d="M105.769 75.9161C105.769 79.3677 108.507 82.1763 111.874 82.1763C115.241 82.1763 117.98 79.3677 117.98 75.9161C117.98 72.4644 115.241 69.6538 111.874 69.6538C108.507 69.6538 105.769 72.4624 105.769 75.9161ZM106.257 75.9161C106.257 72.7403 108.777 70.1599 111.874 70.1599C114.971 70.1599 117.49 72.7403 117.49 75.9161C117.49 79.0918 114.971 81.6722 111.874 81.6722C108.777 81.6722 106.257 79.0918 106.257 75.9161Z" fill="#457075"/>
<path d="M147.99 78.8357C148.01 78.4864 148.032 77.9683 148.032 77.5118V71.323H148.931V74.5464H148.95C149.119 74.2455 149.368 73.9976 149.669 73.8307C149.97 73.6638 150.313 73.5844 150.657 73.6016C151.897 73.6016 152.776 74.6615 152.764 76.2197C152.764 78.0537 151.639 78.9647 150.522 78.9647C150.179 78.9831 149.839 78.9018 149.542 78.7306C149.245 78.5593 149.003 78.3056 148.847 78.0001H148.818L148.776 78.8476L147.99 78.8357ZM148.931 76.7794C148.933 76.8937 148.947 77.0074 148.972 77.1188C149.044 77.4274 149.217 77.7029 149.465 77.901C149.712 78.099 150.019 78.208 150.335 78.2105C151.286 78.2105 151.855 77.4165 151.855 76.2395C151.855 75.2114 151.339 74.3321 150.367 74.3321C150.041 74.34 149.727 74.4571 149.475 74.6648C149.223 74.8724 149.048 75.1585 148.978 75.4773C148.948 75.6023 148.931 75.73 148.927 75.8584L148.931 76.7794ZM154.416 76.442C154.438 77.7024 155.224 78.2283 156.133 78.2283C156.609 78.2431 157.084 78.1522 157.521 77.9624L157.676 78.6313C157.151 78.8541 156.584 78.9624 156.013 78.9489C154.472 78.9489 153.553 77.9088 153.553 76.3685C153.553 74.8283 154.442 73.6016 155.898 73.6016C157.531 73.6016 157.966 75.0764 157.966 76.0192C157.964 76.1646 157.953 76.3098 157.934 76.4539L154.416 76.442ZM157.083 75.7731C157.083 75.1776 156.845 74.2586 155.823 74.2586C154.902 74.2586 154.5 75.128 154.434 75.7731H157.083ZM160.182 72.2341V73.7048H161.483V74.4154H160.182V77.1784C160.182 77.8155 160.356 78.1708 160.862 78.1708C161.04 78.1726 161.218 78.1512 161.39 78.1073L161.432 78.8079C161.173 78.8995 160.9 78.9426 160.626 78.935C160.442 78.9464 160.257 78.9167 160.086 78.848C159.914 78.7794 159.76 78.6735 159.634 78.538C159.376 78.2621 159.283 77.8076 159.283 77.2022V74.4234H158.507V73.7048H159.283V72.4742L160.182 72.2341ZM166.473 78.8357V78.4209L166.991 77.9048C168.239 76.6861 168.802 76.039 168.81 75.2848C168.81 74.7747 168.57 74.3043 167.84 74.3043C167.456 74.3195 167.089 74.4699 166.804 74.729L166.594 74.2507C166.98 73.919 167.474 73.7385 167.983 73.7425C169.034 73.7425 169.477 74.4829 169.477 75.1994C169.477 76.1244 168.824 76.8707 167.794 77.8889L167.398 78.2581V78.27H169.592V78.8317L166.473 78.8357ZM175.486 73.7048L176.149 76.3129C176.294 76.8846 176.427 77.4145 176.52 77.9445H176.552C176.665 77.4245 176.83 76.8747 176.996 76.3229L177.812 73.7048H178.577L179.351 76.2693C179.538 76.8846 179.683 77.4245 179.796 77.9445H179.823C179.92 77.3834 180.048 76.8281 180.206 76.2812L180.919 73.7009H181.817L180.206 78.8298H179.379L178.615 76.3824C178.438 75.8286 178.29 75.2662 178.171 74.6973H178.149C178.031 75.2708 177.88 75.8369 177.695 76.3923L176.889 78.8298H176.054L174.558 73.7048H175.486ZM183.744 72.2658C183.744 72.4153 183.684 72.5587 183.579 72.6644C183.473 72.7701 183.33 72.8295 183.18 72.8295C183.031 72.8295 182.888 72.7701 182.782 72.6644C182.676 72.5587 182.617 72.4153 182.617 72.2658C182.614 72.192 182.626 72.1184 182.651 72.0491C182.677 71.9799 182.716 71.9163 182.766 71.8621C182.816 71.8079 182.876 71.7641 182.943 71.7333C183.01 71.7024 183.083 71.6851 183.156 71.6823H183.196C183.268 71.6804 183.339 71.6928 183.407 71.7186C183.474 71.7445 183.535 71.7833 183.587 71.833C183.639 71.8826 183.68 71.942 183.709 72.0077C183.738 72.0735 183.754 72.1443 183.756 72.2162C183.754 72.2332 183.75 72.2498 183.744 72.2658ZM182.73 78.8357V73.7048H183.641V78.8337L182.73 78.8357ZM185.148 75.0942C185.148 74.5643 185.139 74.1296 185.107 73.7048H185.912L185.966 74.5524H185.986C186.146 74.2549 186.385 74.0074 186.676 73.8372C186.968 73.667 187.301 73.5807 187.638 73.5877C188.331 73.5877 189.406 74.0125 189.406 75.7711V78.8337H188.497V75.8882C188.497 75.0605 188.198 74.3718 187.339 74.3718C187.06 74.3786 186.791 74.4752 186.572 74.6472C186.352 74.8192 186.194 75.0574 186.121 75.3265C186.077 75.4671 186.055 75.6138 186.057 75.7612V78.8437H185.148V75.0942Z" fill="#02898F"/>
<path fill-rule="evenodd" clip-rule="evenodd" d="M162.081 75.9259C162.081 79.3796 164.818 82.1882 168.185 82.1882C171.552 82.1882 174.292 79.3796 174.292 75.9259C174.292 72.4723 171.552 69.6656 168.185 69.6656C164.818 69.6656 162.081 72.4742 162.081 75.9259ZM162.569 75.9259C162.569 72.7501 165.088 70.1698 168.185 70.1698C171.282 70.1698 173.804 72.7501 173.804 75.9259C173.804 79.1017 171.284 81.682 168.185 81.682C165.086 81.682 162.565 79.1017 162.565 75.9259H162.569Z" fill="#457075"/>
<path d="M171.153 61.4245C171.144 61.1649 171.191 60.9065 171.29 60.6667C171.39 60.4269 171.54 60.2114 171.731 60.035C172.136 59.6903 172.65 59.5011 173.182 59.5011C173.714 59.5011 174.228 59.6903 174.633 60.035C174.823 60.2119 174.973 60.4274 175.072 60.6671C175.171 60.9069 175.218 61.1651 175.209 61.4245C175.218 61.6806 175.171 61.9356 175.073 62.1722C174.975 62.4089 174.827 62.6216 174.639 62.796C174.238 63.1546 173.713 63.3432 173.175 63.322C172.642 63.3419 172.122 63.1532 171.725 62.796C171.537 62.6218 171.388 62.4091 171.29 62.1725C171.191 61.9358 171.145 61.6807 171.153 61.4245ZM192.755 57.1689C192.615 59.1128 191.898 60.6431 190.604 61.7599C189.311 62.8767 187.605 63.4351 185.488 63.4351C183.174 63.4351 181.354 62.6551 180.026 61.095C178.698 59.5349 178.035 57.3952 178.038 54.6759V53.5723C178.005 51.9932 178.319 50.4262 178.956 48.9813C179.508 47.728 180.42 46.6678 181.577 45.9366C182.772 45.2127 184.149 44.845 185.545 44.8766C187.628 44.8766 189.307 45.4344 190.581 46.5499C191.854 47.6654 192.59 49.2328 192.789 51.252H189.059C188.97 50.0876 188.646 49.242 188.087 48.7154C187.527 48.1887 186.677 47.9241 185.537 47.9214C184.298 47.9214 183.372 48.366 182.76 49.2552C182.147 50.1445 181.83 51.5253 181.807 53.3977V54.7632C181.807 56.715 182.103 58.1415 182.694 59.0426C183.286 59.9437 184.217 60.3943 185.49 60.3943C186.64 60.3943 187.5 60.1297 188.069 59.6004C188.638 59.0711 188.962 58.2586 189.043 57.163L192.755 57.1689ZM195.197 63.185V45.1228H200.753C202.245 45.0971 203.717 45.4676 205.02 46.1966C206.271 46.9107 207.289 47.9707 207.952 49.2493C208.672 50.6369 209.035 52.182 209.008 53.745V54.5767C209.037 56.1319 208.681 57.6702 207.972 59.0545C207.313 60.3292 206.299 61.3854 205.052 62.0953C203.754 62.8243 202.287 63.2007 200.798 63.187L195.197 63.185ZM198.917 48.1358V60.1938H200.717C202.172 60.1938 203.283 59.7188 204.052 58.7687C204.82 57.8186 205.213 56.4577 205.23 54.6858V53.7331C205.23 51.8978 204.85 50.5084 204.09 49.5649C203.329 48.6214 202.217 48.1477 200.753 48.1437L198.917 48.1358Z" fill="#345961"/>
</g>
<defs>
<clipPath id="clip0_4812_1824">
<rect width="175" height="48" fill="white" transform="translate(34 35)"/>
</clipPath>
</defs>
</svg>
