<svg width="244" height="117" viewBox="0 0 244 117" fill="none" xmlns="http://www.w3.org/2000/svg">
<rect x="1" y="1" width="242" height="115" rx="7" fill="#EDF1F2"/>
<rect x="1" y="1" width="242" height="115" rx="7" stroke="#08616A" stroke-width="2"/>
<g clip-path="url(#clip0_4812_1862)">
<path d="M70.6826 63.0124V37.0285H87.7814C88.5978 37.0264 89.4082 37.1682 90.1754 37.4473C90.9251 37.7149 91.6189 38.1186 92.2219 38.6383C92.8142 39.145 93.3 39.7644 93.6511 40.4604C94.017 41.1863 94.2029 41.9896 94.193 42.8025V47.6019C94.1987 48.4549 93.9942 49.2961 93.5975 50.0512C93.9946 50.8062 94.1991 51.6476 94.193 52.5006V57.2484C94.2012 58.0674 94.0155 58.8768 93.6511 59.6103C93.3013 60.3072 92.8154 60.9268 92.2219 61.4325C91.6123 61.9344 90.9197 62.326 90.1754 62.5896C89.4077 62.867 88.5977 63.0088 87.7814 63.0084L70.6826 63.0124ZM86.257 43.7195H78.2991V46.7365H86.2669C86.3362 46.7456 86.4064 46.7273 86.4624 46.6854C86.5184 46.6435 86.5558 46.5813 86.5666 46.5122C86.5686 46.4878 86.5686 46.4632 86.5666 46.4388V44.0212C86.5769 43.9512 86.5591 43.88 86.517 43.8232C86.475 43.7663 86.4122 43.7283 86.3423 43.7175C86.3142 43.7113 86.2851 43.7113 86.257 43.7175V43.7195ZM86.4376 53.366H78.2991V56.381H86.4376C86.4995 56.3891 86.5621 56.3729 86.6124 56.3359C86.6627 56.299 86.6968 56.244 86.7076 56.1825C86.7095 56.16 86.7095 56.1374 86.7076 56.115V53.6359C86.7167 53.5738 86.701 53.5107 86.6638 53.4601C86.6266 53.4096 86.571 53.3757 86.5091 53.366C86.4867 53.3621 86.4639 53.3621 86.4416 53.366H86.4376ZM103.812 43.9319V46.3733C103.807 46.4077 103.809 46.4428 103.818 46.4765C103.826 46.5102 103.841 46.5419 103.862 46.5698C103.883 46.5976 103.909 46.6211 103.939 46.6388C103.969 46.6565 104.002 46.6681 104.037 46.673H114.597C114.424 47.6679 114.152 48.6433 113.787 49.5848C113.479 50.3769 113.013 51.0981 112.417 51.7046C111.817 52.2872 111.093 52.7262 110.299 52.9888C109.308 53.3005 108.272 53.4473 107.232 53.4235C106.71 53.4235 106.184 53.4017 105.644 53.362C105.105 53.3223 104.586 53.3024 104.066 53.3024C103.886 53.3024 103.794 53.4037 103.794 53.6041V56.0475C103.784 56.1173 103.802 56.1882 103.844 56.2448C103.886 56.3013 103.949 56.3389 104.019 56.3492C104.044 56.3532 104.071 56.3532 104.096 56.3492H119.927C119.773 57.2154 119.541 58.0657 119.234 58.8898C118.951 59.6624 118.539 60.3818 118.017 61.0176C117.502 61.6312 116.862 62.1273 116.139 62.4725C115.289 62.8506 114.364 63.0337 113.434 63.0084L96.3884 62.9866V42.7926C96.3742 41.9668 96.5594 41.1497 96.9283 40.4107C97.2774 39.718 97.7636 39.1035 98.3575 38.6045C98.9588 38.0982 99.6459 37.7036 100.386 37.4394C101.149 37.1581 101.956 37.0162 102.768 37.0206H119.927C119.771 37.8921 119.54 38.7483 119.234 39.5791C118.955 40.3531 118.543 41.0726 118.017 41.7049C117.499 42.3124 116.86 42.8041 116.139 43.1479C115.289 43.5287 114.365 43.7139 113.434 43.6897L104.104 43.66C103.906 43.66 103.812 43.7513 103.812 43.9319ZM130.902 43.9577C130.906 43.9233 130.904 43.8883 130.896 43.8547C130.887 43.8211 130.871 43.7895 130.85 43.7619C130.829 43.7342 130.803 43.711 130.773 43.6935C130.743 43.676 130.71 43.6646 130.675 43.66C130.652 43.656 130.628 43.656 130.604 43.66H120.083C120.252 42.7813 120.494 41.9182 120.806 41.0796C121.082 40.3139 121.484 39.5999 121.997 38.9677C122.506 38.3555 123.149 37.8675 123.875 37.5406C124.733 37.1719 125.662 36.9944 126.596 37.0206H149.207C149.052 37.8891 148.816 38.7411 148.501 39.5652C148.211 40.3318 147.794 41.0443 147.268 41.6731C146.748 42.2847 146.102 42.7769 145.374 43.1161C144.528 43.492 143.609 43.675 142.683 43.652H138.685C138.651 43.6467 138.616 43.648 138.583 43.6561C138.549 43.6642 138.518 43.6788 138.49 43.6991C138.462 43.7193 138.438 43.7449 138.42 43.7743C138.402 43.8037 138.39 43.8363 138.385 43.8704C138.381 43.8953 138.381 43.9208 138.385 43.9458V57.2444C138.385 58.3003 138.159 59.1796 137.706 59.8882C137.258 60.5873 136.66 61.1784 135.956 61.619C135.213 62.0748 134.403 62.4098 133.556 62.6115C132.683 62.833 131.796 62.9974 130.902 63.1037V43.9577Z" fill="#095860"/>
<path fill-rule="evenodd" clip-rule="evenodd" d="M33.9442 61.4563C36.2885 60.4227 38.5587 59.229 40.7389 57.8835C42.4896 56.7743 44.0294 55.363 45.2865 53.7153C46.5389 52.066 47.2733 50.0819 47.3966 48.0147C47.5594 45.6786 47.1028 43.5825 46.0349 41.7446C44.9597 39.9107 43.4171 38.395 41.5646 37.3521C39.6078 36.2369 37.4558 35.5059 35.2245 35.1985C34.1626 35.0319 33.0869 34.9701 32.0128 35.0139C31.6773 35.0298 31.3478 35.0615 31.0203 35.1012L25.4067 35.5954L21.925 40.4008L21.9607 41.5342C21.7596 41.9675 21.582 42.4115 21.4288 42.864L22.0104 43.1379L22.1374 47.1077L28.674 46.2065C29.7995 43.0308 31.6813 41.7287 33.835 42.1177C34.9526 42.3162 35.7645 42.8442 36.2587 43.6917C36.7687 44.5961 36.9878 45.6357 36.886 46.669C36.7848 48.0584 36.0245 49.5729 34.6171 51.1667C33.1117 52.8439 31.4292 54.3532 29.599 55.6684C27.6802 57.0684 25.7005 58.3724 23.6599 59.5806L19.3445 62.147L18.8979 68.0837L44.8478 76.4976L45.4275 68.2524L29.4005 63.6515V63.5404C29.7519 63.3657 31.2545 62.6789 33.9442 61.4563Z" fill="#C6211C"/>
<path d="M38.2318 77.6528L38.8273 69.2926L22.6237 64.6281V64.515C22.9711 64.3383 24.4837 63.6416 27.2071 62.4011C29.9861 61.1328 32.2967 59.92 34.0772 58.7748C35.8474 57.6458 37.4039 56.2124 38.6745 54.541C39.9407 52.8674 40.6825 50.8561 40.8064 48.7611C40.9731 46.3912 40.5106 44.2674 39.4328 42.4095C38.3473 40.5507 36.7875 39.0136 34.9129 37.9555C32.934 36.8236 30.756 36.0823 28.4974 35.7721C26.2173 35.4334 24.1357 35.5346 22.2525 36.0758C20.4597 36.5703 18.821 37.5097 17.4885 38.807C16.1432 40.1297 15.1374 41.7578 14.5567 43.5528L22.1454 47.0621C23.2808 43.8307 24.9244 42.4016 27.096 42.7966C28.2274 42.9951 29.0472 43.533 29.5474 44.3845C30.0633 45.3042 30.2843 46.3601 30.1807 47.4094C30.0774 48.8306 29.3092 50.355 27.888 51.9746C26.3672 53.6757 24.666 55.2064 22.8143 56.5398C20.873 57.9596 18.8714 59.2829 16.8097 60.5095L12.4526 63.1018L12 69.1219L38.2318 77.6528Z" fill="#E84043"/>
<path fill-rule="evenodd" clip-rule="evenodd" d="M53.572 60.7556V60.7258L53.5303 60.7437L53.4906 60.7318L57.5976 47.3319L55.6523 42.1455L53.8836 42.4095C53.8245 41.4491 53.6037 40.5056 53.2305 39.6188L56.4066 37.1277L48.2125 35.9924C46.8341 35.8085 45.4345 35.8608 44.0737 36.1472C42.0163 36.5443 40.0591 37.3487 38.3172 38.5132C36.4209 39.7758 34.7803 41.3853 33.4817 43.257C32.0861 45.2424 31.0761 47.4724 30.5042 49.8309H30.5221L37.7058 51.786L46.1064 45.2141C46.1679 45.5627 46.1978 45.9161 46.1957 46.27C46.1957 47.592 45.6597 49.3029 44.572 51.4307C43.3135 53.8476 41.8971 56.1789 40.332 58.4095C38.5574 60.9739 36.6253 63.6045 34.5358 66.3013L29.7162 72.4861V79.324L36.8483 82.994L62.1373 63.326L53.572 60.7556Z" fill="#075962"/>
<path d="M62.1333 70.6382V63.316L48.4864 69.1396V69.0205C48.8159 68.5978 50.2252 66.857 52.6549 63.8837C54.9912 61.0176 56.8055 58.6298 58.1414 56.6707C59.4013 54.8377 60.4657 52.8779 61.3174 50.8233C62.0915 48.9898 62.4962 47.0216 62.5084 45.0315C62.5084 42.9473 62.0876 41.2741 61.24 39.9958C60.3991 38.7108 59.1145 37.7802 57.6313 37.3818C56.0433 36.9253 54.1913 36.8895 52.0733 37.2944C49.8921 37.7136 47.8168 38.5646 45.9694 39.7974C43.9616 41.1334 42.2241 42.8365 40.8481 44.8171C39.3711 46.9159 38.2987 49.2719 37.686 51.7641L46.7018 51.4743C47.6249 47.5483 49.1553 45.3391 51.2554 44.8191C52.3035 44.5571 53.0717 44.7456 53.566 45.3768C54.0603 46.008 54.3044 46.8794 54.3044 48.0147C54.3044 49.4041 53.7307 51.2249 52.5834 53.4771C51.252 56.0357 49.752 58.503 48.0933 60.8627C46.2129 63.5754 44.167 66.3595 41.9557 69.2151L36.8741 75.7651V82.9999L62.1333 70.6382Z" fill="#008C9B"/>
<path d="M69.8906 78.8357C69.9125 78.4864 69.9323 77.9683 69.9323 77.5118V71.323H70.8315V74.5464H70.8533C71.0216 74.246 71.2703 73.9984 71.5715 73.8315C71.8727 73.6646 72.2145 73.585 72.5585 73.6016C73.7991 73.6016 74.6785 74.6615 74.6685 76.2197C74.6685 78.0537 73.541 78.9647 72.4235 78.9647C72.0811 78.9816 71.7411 78.8996 71.4441 78.7286C71.147 78.5575 70.9054 78.3046 70.7481 78.0001H70.7184L70.6767 78.8476L69.8906 78.8357ZM70.8315 76.7794C70.8356 76.8935 70.8496 77.0071 70.8732 77.1188C70.9462 77.4268 71.1201 77.7015 71.3672 77.8993C71.6143 78.0971 71.9204 78.2066 72.2369 78.2105C73.1897 78.2105 73.7574 77.4165 73.7574 76.2395C73.7574 75.2114 73.2413 74.3321 72.2687 74.3321C71.9424 74.3403 71.6283 74.4576 71.3765 74.6652C71.1246 74.8728 70.9496 75.1587 70.8792 75.4773C70.85 75.6024 70.8327 75.73 70.8275 75.8584L70.8315 76.7794ZM76.3141 76.442C76.3339 77.7024 77.12 78.2283 78.0291 78.2283C78.5063 78.244 78.981 78.1531 79.4186 77.9624L79.5755 78.6313C79.0491 78.8541 78.4814 78.9623 77.91 78.9489C76.3697 78.9489 75.4486 77.9088 75.4486 76.3685C75.4486 74.8283 76.3379 73.6016 77.7949 73.6016C79.4305 73.6016 79.8653 75.0764 79.8653 76.0192C79.8633 76.1645 79.8533 76.3096 79.8355 76.4539L76.3141 76.442ZM78.98 75.7731C78.9919 75.1776 78.7437 74.2586 77.7195 74.2586C76.7984 74.2586 76.3955 75.128 76.33 75.7731H78.98ZM82.0924 72.2341V73.7048H83.3946V74.4154H82.0924V77.1784C82.0924 77.8155 82.2671 78.1708 82.7753 78.1708C82.9526 78.1714 83.1293 78.1501 83.3013 78.1073L83.343 78.8079C83.0845 78.8995 82.8113 78.9426 82.5371 78.935C82.3526 78.9464 82.1678 78.9167 81.9962 78.848C81.8246 78.7794 81.6703 78.6735 81.5446 78.538C81.2865 78.2621 81.1932 77.8076 81.1932 77.2022V74.4234H80.4171V73.7048H81.1932V72.4742L82.0924 72.2341ZM88.3849 78.8357V78.4209L88.905 77.9048C90.1516 76.6861 90.7153 76.039 90.7232 75.2848C90.7232 74.7747 90.4831 74.3043 89.7546 74.3043C89.3691 74.3186 89.0013 74.4691 88.7164 74.729L88.506 74.2507C88.8926 73.919 89.3861 73.7385 89.8955 73.7425C90.9475 73.7425 91.3922 74.4829 91.3922 75.1994C91.3922 76.1244 90.7371 76.8707 89.7069 77.8889L89.3099 78.2581V78.27H91.5053V78.8317L88.3849 78.8357ZM97.0415 75.382C97.0415 74.7251 97.0217 74.1911 96.9998 73.7068H97.8176L97.8593 74.5861H97.8792C98.0564 74.272 98.3171 74.0131 98.6324 73.8379C98.9477 73.6628 99.3053 73.5782 99.6657 73.5937C100.875 73.5937 101.786 74.6437 101.786 76.2018C101.786 78.0457 100.69 78.9568 99.5109 78.9568C99.2059 78.9696 98.903 78.9019 98.6326 78.7604C98.3622 78.619 98.1338 78.4087 97.9705 78.1509H97.9506V80.9297H97.0514L97.0415 75.382ZM97.9407 76.7476C97.9428 76.8763 97.9568 77.0046 97.9824 77.1307C98.0549 77.4393 98.2289 77.7147 98.4765 77.9126C98.7241 78.1106 99.0311 78.2197 99.3481 78.2224C100.309 78.2224 100.867 77.4165 100.867 76.2375C100.867 75.2094 100.341 74.3301 99.3779 74.3301C98.9945 74.3728 98.639 74.551 98.3754 74.8327C98.1119 75.1144 97.9578 75.481 97.9407 75.8664V76.7476ZM102.925 71.323H103.834V78.8456H102.925V71.323ZM108.136 78.8357L108.062 78.1906H108.032C107.857 78.431 107.627 78.6258 107.36 78.7584C107.094 78.8911 106.8 78.9578 106.502 78.9528C106.121 78.9767 105.745 78.8482 105.459 78.5954C105.172 78.3427 104.998 77.9865 104.974 77.6051V77.4761C104.974 76.2355 106.049 75.5567 107.983 75.5686V75.4614C107.983 75.0387 107.868 74.2705 106.845 74.2705C106.383 74.2724 105.931 74.4052 105.541 74.6536L105.343 74.0383C105.835 73.7315 106.406 73.573 106.986 73.5818C108.517 73.5818 108.89 74.6536 108.89 75.6818V77.5991C108.882 78.0103 108.91 78.4214 108.973 78.8278L108.136 78.8357ZM108.001 76.2197C107.008 76.1978 105.881 76.3785 105.881 77.3749C105.861 77.5901 105.927 77.8045 106.065 77.9709C106.203 78.1372 106.402 78.242 106.617 78.2621H106.74C107.007 78.2661 107.267 78.1851 107.485 78.0309C107.702 77.8768 107.865 77.6574 107.949 77.4046C107.981 77.3085 107.998 77.2082 108.001 77.1069V76.2197ZM110.595 73.7048L111.691 76.7357C111.806 77.0751 111.929 77.4781 112.012 77.7857H112.032C112.126 77.4781 112.231 77.0851 112.354 76.7139L113.346 73.7048H114.307L112.943 77.361C112.292 79.1195 111.848 80.0207 111.226 80.5725C110.913 80.8647 110.528 81.07 110.111 81.1679L109.882 80.374C110.174 80.2748 110.443 80.1205 110.676 79.9194C111.008 79.6363 111.27 79.2803 111.441 78.8794C111.478 78.8101 111.503 78.7349 111.514 78.6571C111.505 78.5733 111.484 78.4911 111.453 78.4129L109.603 73.7048H110.595Z" fill="#02898F"/>
<path fill-rule="evenodd" clip-rule="evenodd" d="M83.8055 75.9161C83.8055 79.3677 86.5447 82.1763 89.913 82.1763C93.2813 82.1763 96.0224 79.3677 96.0224 75.9161C96.0224 72.4644 93.2813 69.6538 89.913 69.6538C86.5447 69.6538 83.8055 72.4624 83.8055 75.9161ZM84.2938 75.9161C84.2938 72.7403 86.8146 70.1599 89.913 70.1599C93.0114 70.1599 95.5321 72.7403 95.5321 75.9161C95.5321 79.0918 93.0114 81.6722 89.913 81.6722C86.8146 81.6722 84.2938 79.0918 84.2938 75.9161Z" fill="#457075"/>
<path d="M126.048 78.8357C126.068 78.4864 126.09 77.9683 126.09 77.5118V71.323H126.989V74.5464H127.009C127.177 74.2455 127.426 73.9976 127.728 73.8307C128.03 73.6638 128.372 73.5844 128.716 73.6016C129.957 73.6016 130.836 74.6615 130.824 76.2197C130.824 78.0537 129.699 78.9647 128.581 78.9647C128.239 78.9831 127.898 78.9018 127.601 78.7306C127.303 78.5593 127.062 78.3056 126.906 78.0001H126.876L126.835 78.8476L126.048 78.8357ZM126.989 76.7794C126.991 76.8937 127.005 77.0074 127.031 77.1188C127.103 77.4274 127.276 77.7029 127.524 77.901C127.771 78.099 128.078 78.208 128.395 78.2105C129.346 78.2105 129.915 77.4165 129.915 76.2395C129.915 75.2114 129.399 74.3321 128.427 74.3321C128.1 74.34 127.786 74.4571 127.534 74.6648C127.282 74.8724 127.107 75.1585 127.037 75.4773C127.007 75.6023 126.99 75.73 126.985 75.8584L126.989 76.7794ZM132.478 76.442C132.5 77.7024 133.286 78.2283 134.195 78.2283C134.672 78.2431 135.146 78.1522 135.584 77.9624L135.739 78.6313C135.214 78.8541 134.647 78.9624 134.076 78.9489C132.533 78.9489 131.614 77.9088 131.614 76.3685C131.614 74.8283 132.504 73.6016 133.961 73.6016C135.594 73.6016 136.029 75.0764 136.029 76.0192C136.027 76.1646 136.017 76.3098 135.997 76.4539L132.478 76.442ZM135.146 75.7731C135.146 75.1776 134.908 74.2586 133.885 74.2586C132.964 74.2586 132.561 75.128 132.496 75.7731H135.146ZM138.246 72.2341V73.7048H139.548V74.4154H138.246V77.1784C138.246 77.8155 138.421 78.1708 138.927 78.1708C139.105 78.1726 139.283 78.1512 139.455 78.1073L139.497 78.8079C139.238 78.8995 138.965 78.9426 138.691 78.935C138.506 78.9464 138.322 78.9167 138.15 78.848C137.978 78.7794 137.824 78.6735 137.698 78.538C137.44 78.2621 137.347 77.8076 137.347 77.2022V74.4234H136.571V73.7048H137.347V72.4742L138.246 72.2341ZM144.541 78.8357V78.4209L145.059 77.9048C146.307 76.6861 146.871 76.039 146.879 75.2848C146.879 74.7747 146.639 74.3043 145.908 74.3043C145.524 74.3195 145.157 74.4699 144.872 74.729L144.662 74.2507C145.048 73.919 145.542 73.7385 146.051 73.7425C147.103 73.7425 147.546 74.4829 147.546 75.1994C147.546 76.1244 146.893 76.8707 145.863 77.8889L145.466 78.2581V78.27H147.661V78.8317L144.541 78.8357ZM153.559 73.7048L154.222 76.3129C154.367 76.8846 154.5 77.4145 154.593 77.9445H154.625C154.738 77.4245 154.902 76.8747 155.069 76.3229L155.885 73.7048H156.651L157.425 76.2693C157.612 76.8846 157.757 77.4245 157.87 77.9445H157.898C157.995 77.3834 158.122 76.8281 158.281 76.2812L158.994 73.7009H159.893L158.281 78.8298H157.453L156.689 76.3824C156.512 75.8286 156.364 75.2662 156.244 74.6973H156.223C156.105 75.2708 155.953 75.8369 155.768 76.3923L154.962 78.8298H154.126L152.63 73.7048H153.559ZM161.82 72.2658C161.82 72.4153 161.761 72.5587 161.655 72.6644C161.549 72.7701 161.406 72.8295 161.256 72.8295C161.107 72.8295 160.964 72.7701 160.858 72.6644C160.752 72.5587 160.693 72.4153 160.693 72.2658C160.69 72.192 160.701 72.1184 160.727 72.0491C160.753 71.9799 160.792 71.9163 160.842 71.8621C160.892 71.8079 160.952 71.7641 161.019 71.7333C161.086 71.7024 161.159 71.6851 161.233 71.6823H161.272C161.344 71.6804 161.416 71.6928 161.483 71.7186C161.55 71.7445 161.611 71.7833 161.663 71.833C161.715 71.8826 161.757 71.942 161.786 72.0077C161.815 72.0735 161.831 72.1443 161.832 72.2162C161.83 72.2332 161.826 72.2498 161.82 72.2658ZM160.806 78.8357V73.7048H161.717V78.8337L160.806 78.8357ZM163.226 75.0942C163.226 74.5643 163.216 74.1296 163.184 73.7048H163.99L164.043 74.5524H164.063C164.223 74.2549 164.462 74.0074 164.754 73.8372C165.046 73.667 165.379 73.5807 165.717 73.5877C166.41 73.5877 167.485 74.0125 167.485 75.7711V78.8337H166.576V75.8882C166.576 75.0605 166.277 74.3718 165.417 74.3718C165.138 74.3786 164.869 74.4752 164.649 74.6472C164.43 74.8192 164.272 75.0574 164.198 75.3265C164.154 75.4671 164.133 75.6138 164.135 75.7612V78.8437H163.226V75.0942Z" fill="#02898F"/>
<path fill-rule="evenodd" clip-rule="evenodd" d="M140.146 75.9259C140.146 79.3796 142.885 82.1882 146.253 82.1882C149.622 82.1882 152.363 79.3796 152.363 75.9259C152.363 72.4723 149.622 69.6656 146.253 69.6656C142.885 69.6656 140.146 72.4742 140.146 75.9259ZM140.634 75.9259C140.634 72.7501 143.155 70.1698 146.253 70.1698C149.352 70.1698 151.874 72.7501 151.874 75.9259C151.874 79.1017 149.354 81.682 146.253 81.682C143.153 81.682 140.63 79.1017 140.63 75.9259H140.634Z" fill="#457075"/>
<path d="M149.223 61.4245C149.214 61.1649 149.261 60.9065 149.36 60.6667C149.46 60.4269 149.61 60.2114 149.801 60.035C150.206 59.6903 150.721 59.5011 151.253 59.5011C151.785 59.5011 152.3 59.6903 152.705 60.035C152.895 60.2119 153.045 60.4274 153.144 60.6671C153.243 60.9069 153.29 61.1651 153.281 61.4245C153.29 61.6805 153.243 61.9356 153.145 62.1722C153.047 62.4089 152.899 62.6216 152.711 62.796C152.309 63.1546 151.784 63.3432 151.246 63.322C150.712 63.3419 150.192 63.1532 149.795 62.796C149.607 62.6218 149.458 62.4091 149.36 62.1725C149.261 61.9358 149.215 61.6807 149.223 61.4245ZM170.836 57.1689C170.696 59.1127 169.979 60.6431 168.684 61.7599C167.39 62.8767 165.684 63.4351 163.565 63.4351C161.25 63.4351 159.429 62.6551 158.1 61.095C156.772 59.5349 156.109 57.3952 156.111 54.6759V53.5723C156.079 51.9932 156.392 50.4262 157.03 48.9813C157.582 47.728 158.495 46.6678 159.653 45.9366C160.848 45.2127 162.225 44.845 163.623 44.8766C165.707 44.8766 167.386 45.4344 168.661 46.5499C169.935 47.6654 170.671 49.2328 170.87 51.252H167.138C167.049 50.0876 166.725 49.242 166.165 48.7154C165.606 48.1887 164.755 47.9241 163.615 47.9214C162.375 47.9214 161.448 48.366 160.836 49.2552C160.223 50.1445 159.905 51.5253 159.883 53.3977V54.7632C159.883 56.715 160.179 58.1415 160.77 59.0426C161.362 59.9437 162.294 60.3943 163.567 60.3943C164.718 60.3943 165.578 60.1297 166.147 59.6004C166.717 59.0711 167.041 58.2586 167.122 57.1629L170.836 57.1689ZM188.118 54.5648C188.118 56.3432 187.803 57.902 187.175 59.2411C186.601 60.5185 185.662 61.5978 184.477 62.3434C183.259 63.0564 181.873 63.4331 180.462 63.4352C179.051 63.4373 177.664 63.0647 176.444 62.3554C175.252 61.6168 174.303 60.5451 173.714 59.2729C173.045 57.8297 172.71 56.2544 172.734 54.664V53.7708C172.734 51.9924 173.055 50.427 173.696 49.0746C174.277 47.7927 175.221 46.7097 176.412 45.9604C177.63 45.2506 179.015 44.8766 180.426 44.8766C181.836 44.8766 183.221 45.2506 184.439 45.9604C185.631 46.7089 186.577 47.7921 187.157 49.0746C187.799 50.427 188.119 51.9884 188.118 53.7589V54.5648ZM184.346 53.745C184.346 51.8514 184.007 50.4124 183.33 49.4279C182.652 48.4434 181.684 47.9519 180.426 47.9532C179.178 47.9532 178.214 48.4388 177.535 49.4101C176.857 50.3813 176.513 51.8058 176.505 53.6835V54.5648C176.505 56.4094 176.845 57.8398 177.524 58.856C178.202 59.8723 179.178 60.3811 180.451 60.3824C181.699 60.3824 182.659 59.8921 183.33 58.9116C184.001 57.9311 184.339 56.5026 184.346 54.6263V53.745ZM189.261 61.4245C189.251 61.1649 189.298 60.9065 189.398 60.6667C189.498 60.4269 189.648 60.2114 189.839 60.035C190.243 59.6905 190.758 59.5013 191.29 59.5013C191.821 59.5013 192.336 59.6905 192.741 60.035C192.931 60.2114 193.081 60.4269 193.181 60.6667C193.281 60.9065 193.328 61.1649 193.318 61.4245C193.327 61.6805 193.281 61.9356 193.183 62.1722C193.084 62.4089 192.936 62.6216 192.749 62.796C192.347 63.1546 191.822 63.3432 191.284 63.322C190.75 63.3423 190.229 63.1536 189.833 62.796C189.644 62.6218 189.496 62.4091 189.397 62.1725C189.299 61.9358 189.252 61.6807 189.261 61.4245ZM201.554 45.1228L206.195 58.2229L210.81 45.1228H215.697V63.185H211.963V58.2487L212.335 49.7257L207.459 63.185H204.905L200.041 49.7376L200.413 58.2467V63.185H196.691V45.1228H201.554ZM222.893 60.1958H232V63.185H218.242V61.0017L227.174 48.1358H218.256V45.1228H231.803V47.2585L222.893 60.1958Z" fill="#345961"/>
</g>
<defs>
<clipPath id="clip0_4812_1862">
<rect width="220" height="48" fill="white" transform="translate(12 35)"/>
</clipPath>
</defs>
</svg>
